<?xml version="1.0" encoding="utf-8"?>
<!-- Generator: Adobe Illustrator 24.2.3, SVG Export Plug-In . SVG Version: 6.00 Build 0)  -->
<svg version="1.1" baseProfile="tiny" id="Layer_1" xmlns="http://www.w3.org/2000/svg" xmlns:xlink="http://www.w3.org/1999/xlink"
	 x="0px" y="0px" viewBox="0 0 216 39.4074059" overflow="visible" xml:space="preserve">
<path fill-rule="evenodd" fill="#DA7539" d="M26.5146008,33.9660721
	c-11.5312004-0.8809013-15.0375004-7.5117016-11.1748009-14.9784985c2.0811005-4.0200005,5.2588005-8.3452034,1.4717007-12.3418007
	c-0.1025009-0.1318002-0.017601-0.2157998,0.1406002-0.1441002c8.6269989,3.4395003,4.1376991,10.3833008,2.6651001,13.2574005
	c-2.9028015,5.669899-1.0508003,12.554697,6.8973999,14.0350971C26.6898994,33.833271,26.6772003,33.9797707,26.5146008,33.9660721
	L26.5146008,33.9660721z"/>
<path fill-rule="evenodd" fill="#006A89" d="M71.789978,16.8771458c-1.0194702,0-1.8081055,0.0620117-2.0365601,0.0620117
	c-0.4370117,0-1.4349976-0.0620117-2.5151367-0.0620117c-0.3125,0-0.5404663,0.0215454-0.5404663,0.1875
	c0,0.1236572,0.0824585,0.1861572,0.3314819,0.1861572c0.2910156,0,0.789978,0,1.1016235,0.125
	c0.4984741,0.2074585,0.6864624,0.6029663,0.7080078,1.8695679l0.2074585,9.3339844h-0.1040039
	c-0.3534546-0.3319702-3.1601563-3.3261719-4.5733032-4.7402954c-3.0340576-3.0136108-6.1928101-6.4007568-6.4432983-6.6707764
	c-0.3526001-0.375-0.5401001-0.6450806-0.769104-0.6450806c-0.2074585,0-0.2699585,0.2914429-0.2699585,0.706543
	l-0.1860352,12.3027344c-0.0209961,1.8085938-0.1034546,2.4121094-0.644104,2.5780621
	c-0.2915039,0.0840454-0.6654663,0.1035156-0.9349976,0.1035156c-0.2094727,0-0.3324585,0.0430298-0.3324585,0.1661377
	c0,0.1875,0.1864624,0.2088623,0.4559937,0.2088623c1.081604,0,2.0585938-0.0625,2.2442017-0.0625
	c0.3955078,0,1.2265015,0.0625,2.5770874,0.0625c0.2919922,0,0.4790039-0.0410156,0.4790039-0.2088623
	c0-0.1231079-0.1245117-0.1661377-0.3530273-0.1661377c-0.3330078,0-0.7279663-0.0194702-1.0805664-0.1444702
	c-0.4165039-0.1445293-0.6870117-0.685545-0.7285156-2.3066387l-0.2285156-8.7304688h0.0620117
	c0.3745117,0.3944702,2.6810913,2.9940796,4.9473267,5.2382813c2.1620483,2.1426392,4.8216553,4.8632813,6.1307983,6.1094341
	c0.2284546,0.2284546,0.4784546,0.4569702,0.7070923,0.4569702c0.1870117,0,0.2694702-0.1856079,0.2694702-0.6425781
	l0.2290039-13.1152325c0.0209961-1.1635742,0.1875-1.5990601,0.7689819-1.765564
	c0.2495117-0.0629883,0.4165039-0.0629883,0.6241455-0.0629883c0.2489624,0,0.3734741-0.0625,0.3734741-0.1861572
	C72.2670898,16.8986912,72.0601196,16.8771458,71.789978,16.8771458z M87.3710938,16.5851536
	c-6.2348633,0-8.5839844,4.593811-8.5839844,8.1484985c0,3.6797485,2.4121094,8.1465435,8.3764648,8.1465435
	c5.2792969,0,8.6040039-3.7598248,8.6040039-8.5215435C95.7675781,19.5988865,92.5463867,16.5851536,87.3710938,16.5851536z
	 M88.0360718,31.841074c-3.9901733,0-6.3807983-3.4276733-6.3807983-7.7520142c0-5.1756592,2.7236328-6.5057983,5.112854-6.5057983
	c3.4090576,0,6.0897827,2.890625,6.0897827,7.5449219C92.8579102,31.1340427,89.4907227,31.841074,88.0360718,31.841074z
	 M116.8574219,16.8771458c-0.6230469,0-1.600647,0.0620117-1.9541016,0.0620117
	c-0.2705078,0-1.1434937-0.0620117-2.1816406-0.0620117c-0.3955078,0-0.5820923,0.0406494-0.5820923,0.2071533
	c0,0.1454468,0.1661377,0.1665039,0.3536377,0.1665039c0.2684937,0,0.5819702,0.0209961,0.8309937,0.1034546
	c0.1845703,0.0625,0.2695923,0.2290039,0.2695923,0.3955078c0,0.1875-0.085022,0.4985352-0.1875,0.7689819
	c-0.4981079,1.3711548-3.2001953,8.0645142-4.093811,10.3496094h-0.0830078l-3.574707-9.4375
	c-0.2915039-0.7459717-0.4771118-1.3270874-0.4771118-1.5975952c0-0.1870117,0.0606079-0.3324585,0.2071533-0.4356079
	c0.1664429-0.1258545,0.477478-0.1468506,0.8094482-0.1468506c0.1880493,0,0.3116455-0.0410156,0.3116455-0.1861572
	c0-0.1468506-0.2290039-0.1875-0.4776001-0.1875c-1.0386353,0-2.0366211,0.0620117-2.555603,0.0620117
	c-0.7276001,0-1.9122314-0.0620117-3.0137329-0.0620117c-0.3125,0-0.5409546,0.0215454-0.5409546,0.1875
	c0,0.1236572,0.0619507,0.1861572,0.25,0.1861572c0.1659546,0,0.4989624,0,0.8099976,0.0834961
	c0.7475586,0.2079468,1.1015625,0.4364624,1.5795898,1.5791016l5.2373047,12.6971436
	c0.3945923,0.9785137,0.5204468,1.2696514,0.7909546,1.2696514c0.2901001,0,0.4141235-0.3321533,0.9551392-1.5391216
	l2.7647095-6.3378906c1.1210938-2.5565796,1.6844482-3.6796875,2.4940796-5.6307983
	c0.5606079-1.3311157,0.8710938-1.6851196,1.1416016-1.871582c0.3770142-0.25,0.8114624-0.25,1.0194702-0.25
	c0.2071533,0,0.3330078-0.0410156,0.3330078-0.1861572C117.2938843,16.9177952,117.1278687,16.8771458,116.8574219,16.8771458z
	 M135.7666016,32.2140579c-0.25,0-0.5615234-0.0194702-0.8729858-0.0819702
	c-0.4366455-0.1055298-1.0401001-0.3965435-1.8301392-2.2676373c-1.3272095-3.156189-4.6542969-11.637207-5.1532593-12.7801514
	c-0.2081299-0.4776001-0.3320923-0.6651001-0.5195923-0.6651001c-0.2080078,0-0.3320313,0.2290039-0.5820313,0.831604
	l-5.2177734,13.0511475c-0.4150391,1.0391235-0.8095093,1.7460918-1.7646484,1.8710918l-0.6454468,0.0410156
	c-0.1661377,0-0.2491455,0.0430298-0.2491455,0.1661377c0,0.1678467,0.1260376,0.2088623,0.3955078,0.2088623
	c1.0801392,0,2.2216797-0.0625,2.4522095-0.0625c0.6425781,0,1.5371094,0.0625,2.2020874,0.0625
	c0.2286377,0,0.3544922-0.0410156,0.3544922-0.2088623c0-0.1231079-0.0625-0.1661377-0.3125-0.1661377h-0.3125
	c-0.6424561,0-0.8309937-0.2694683-0.8309937-0.6444683c0-0.2480469,0.1035156-0.7460938,0.3115234-1.2676392l1.1231079-2.9707031
	c0.0409546-0.125,0.0830078-0.1678467,0.1875-0.1678467h4.6356812c0.1035156,0,0.1660156,0.0428467,0.2061157,0.1483765
	l1.6629639,4.4042969c0.1036377,0.2479858-0.039978,0.4374981-0.1875,0.4785137
	c-0.2080078,0.0194702-0.2919922,0.0625-0.2919922,0.1856079c0,0.1463623,0.2510376,0.1463623,0.625,0.1678467
	c1.6630859,0.0410156,3.1796875,0.0410156,3.928833,0.0410156c0.7684937,0,0.9549561-0.0410156,0.9549561-0.2088623
	C136.0360718,32.2355423,135.9326172,32.2140579,135.7666016,32.2140579z M128.7421875,26.1262913h-3.8251953
	c-0.0830078,0-0.1035156-0.0625-0.0830078-0.1465454l1.9121094-5.1132813c0.0205078-0.0819702,0.0625-0.1856079,0.125-0.1856079
	s0.0830078,0.1036377,0.1035156,0.1856079l1.8701172,5.1348267
	C128.8662109,26.0637913,128.8447266,26.1262913,128.7421875,26.1262913z M156.4237671,32.2140579
	c-0.1659546,0-0.3544922-0.0194702-0.5819702-0.0604858c-0.3134766-0.0625-1.1641235-0.2089825-2.328125-1.4141216
	c-1.2265625-1.2871094-2.6611938-3.1385498-4.5097656-5.4647827c2.0996094-1.7050781,2.7440796-3.1190796,2.7440796-4.656311
	c0-1.3924561-0.8319702-2.4536133-1.4140015-2.8475952c-1.1220703-0.769104-2.515564-0.8936157-3.8241577-0.8936157
	c-0.6455078,0-2.2237549,0.0620117-2.9307251,0.0620117c-0.4365234,0-1.7451172-0.0620117-2.8466797-0.0620117
	c-0.3125,0-0.4570313,0.0406494-0.4570313,0.1875c0,0.1451416,0.1240234,0.1861572,0.352478,0.1861572
	c0.2910156,0,0.6446533,0.0209961,0.8116455,0.0629883c0.6845093,0.1444702,0.8515015,0.4769897,0.8934937,1.1835938
	C142.375,19.1623631,142.375,19.7453709,142.375,22.903574v3.6582031c0,1.9141235,0,3.5546875-0.1044922,4.4276733
	c-0.0839844,0.6016235-0.1885376,1.0585918-0.602478,1.1426373c-0.1885376,0.0409546-0.4366455,0.0819702-0.7491455,0.0819702
	c-0.2489624,0-0.3319702,0.0625-0.3319702,0.1661377c0,0.1463623,0.1455078,0.2088623,0.4151001,0.2088623
	c0.8319702,0,2.140564-0.0625,2.5371094-0.0625c0.3104858,0,1.8475952,0.0625,3.0526733,0.0625
	c0.2705078,0,0.4169922-0.0625,0.4169922-0.2088623c0-0.1036377-0.0839844-0.1661377-0.25-0.1661377
	c-0.2489624,0-0.7069702-0.0410156-1.0175781-0.0819702c-0.6240234-0.0840454-0.75-0.5410137-0.8125-1.1426373
	c-0.1035156-0.8729858-0.1035156-2.5135498-0.1035156-4.4472046v-0.2909546c0-0.125,0.0615234-0.1661377,0.1660156-0.1661377
	l1.8085938,0.0411377c0.147522,0,0.2705078,0.0213623,0.3739624,0.1444702
	c0.2705078,0.3125,1.2266235,1.7246094,2.0586548,2.8671875c1.1640625,1.6015015,1.9541016,2.578125,2.8476563,3.0566387
	c0.5390015,0.2909546,1.0605469,0.3944702,2.2217407,0.3944702h1.9765015c0.2480469,0,0.3954468-0.0410156,0.3954468-0.2088623
	C156.6737671,32.2765579,156.5897827,32.2140579,156.4237671,32.2140579z M148.0684204,24.7746677
	c-0.3741455,0.2695313-0.6446533,0.3535156-1.4766235,0.3535156c-0.5175781,0-1.1416016-0.0625-1.578125-0.2070313
	c-0.1445923-0.0625-0.1884766-0.1464844-0.1884766-0.375v-6.3189087c0-0.1659546,0.0438843-0.2484741,0.1884766-0.289978
	c0.2060547-0.0625,0.5810547-0.0839844,1.1015015-0.0839844c1.2246094,0,3.1797485,0.8529663,3.1797485,3.8041992
	C149.2949219,23.3605442,148.6914063,24.3176975,148.0684204,24.7746677z M172.0791016,16.7321873
	c-0.1680298,0-0.6660156,0.2069702-1.9951172,0.2069702h-8.2304688c-0.6865234,0-1.475647-0.0404663-2.078125-0.1040039
	c-0.5205078-0.0418701-0.7285156-0.25-0.8944702-0.25c-0.125,0-0.1866455,0.1255493-0.2491455,0.3959961
	c-0.0419922,0.1661377-0.4375,2.057251-0.4375,2.3912354c0,0.2265015,0.0419922,0.3319702,0.1875,0.3319702
	c0.125,0,0.1875-0.0839844,0.2286377-0.25c0.0418701-0.1659546,0.1455078-0.4159546,0.3534546-0.7284546
	c0.3115234-0.4556274,0.8115234-0.5611572,2.0166016-0.6021118l3.0966187-0.0825195v8.5205078
	c0,1.9141235,0,3.5546875-0.1043701,4.4276733c-0.0616455,0.6016235-0.1856079,1.0585918-0.6026001,1.1426373
	c-0.1885376,0.0409546-0.4365234,0.0819702-0.7471313,0.0819702c-0.2509155,0-0.3330078,0.0625-0.3330078,0.1661377
	c0,0.1463623,0.1445923,0.2088623,0.4151001,0.2088623c0.8309937,0,2.1395874-0.0625,2.6201172-0.0625
	c0.5811157,0,1.8895874,0.0625,3.2617188,0.0625c0.2284546,0,0.3944702-0.0625,0.3944702-0.2088623
	c0-0.1036377-0.1035156-0.1661377-0.3330078-0.1661377c-0.3114624,0-0.7684937-0.0410156-1.0595093-0.0819702
	c-0.6220703-0.0840454-0.7480469-0.5410137-0.8105469-1.123045c-0.1045532-0.8925781-0.1045532-2.5331421-0.1045532-4.4472656
	v-8.5205078l2.6201172,0.0625c1.8486938,0.0415039,2.4111938,0.6221313,2.4522095,1.1611328l0.0214844,0.2304688
	c0.0205078,0.3145142,0.0625,0.4160156,0.2285156,0.4160156c0.125,0,0.1669922-0.125,0.1854858-0.3320313
	c0-0.5409546,0.0625-1.9746094,0.0625-2.4110718C172.2440796,16.8557835,172.2246094,16.7321873,172.0791016,16.7321873z
	 M184.7753906,32.2140579c-0.3115234,0-0.7686157-0.0410156-1.0595703-0.0819702
	c-0.6240234-0.0840454-0.7695313-0.4590435-0.8320313-1.0195293c-0.0830078-0.8925781-0.0830078-2.5332031-0.0830078-4.5507813
	V22.903574c0-3.1582031,0-3.7412109,0.0419922-4.406189c0.0410156-0.7266235,0.2080078-1.0806274,0.7695313-1.1835938
	c0.2489624-0.0419922,0.414978-0.0629883,0.6231079-0.0629883c0.2080078,0,0.3330078-0.0410156,0.3330078-0.2075195
	c0-0.1254883-0.1661377-0.1661377-0.4366455-0.1661377c-0.789978,0-2.0166016,0.0620117-2.5350952,0.0620117
	c-0.6044922,0-1.9140625-0.0620117-2.7022095-0.0620117c-0.3329468,0-0.4989624,0.0406494-0.4989624,0.1661377
	c0,0.1665039,0.1259766,0.2075195,0.3311157,0.2075195c0.25,0,0.5194702,0.0209961,0.7479858,0.0834961
	c0.4589844,0.1040039,0.664978,0.4564819,0.7069702,1.1630859c0.0419922,0.664978,0.0419922,1.2479858,0.0419922,4.406189v3.6582031
	c0,2.0175781,0,3.6582031-0.1044922,4.531311c-0.0614624,0.6015015-0.1854858,0.9549541-0.602478,1.0389996
	c-0.1854858,0.0409546-0.4365234,0.0819702-0.7471313,0.0819702c-0.2479858,0-0.3329468,0.0625-0.3329468,0.1661377
	c0,0.1463623,0.1445923,0.2088623,0.4151001,0.2088623c0.8309937,0,2.140564-0.0625,2.6190796-0.0625
	c0.5614624,0,1.8710938,0.0625,3.2421875,0.0625c0.2285156,0,0.3945313-0.0625,0.3945313-0.2088623
	C185.1074219,32.2765579,185.0048828,32.2140579,184.7753906,32.2140579z M197.5126953,23.1125584l-0.5800781-0.4375
	c-1.725647-1.3106079-2.2041016-2.0351563-2.2041016-2.9921875c0-1.2460938,0.9356079-2.140625,2.4746094-2.140625
	c1.3476563,0,1.9511719,0.6224976,2.2626953,1.0176392c0.4364624,0.539978,0.5401001,1.1854858,0.5401001,1.3709717
	c0,0.25,0.0625,0.375,0.2088623,0.375c0.1661377,0,0.2294922-0.1640015,0.2294922-0.6229858
	c0-1.621582,0.0820923-2.2246094,0.0820923-2.4945679c0-0.1450195-0.1044922-0.2071533-0.2909546-0.2491455
	c-0.5411377-0.145874-1.4141235-0.3540039-2.7637329-0.3540039c-2.8886719,0-4.8007813,1.6420898-4.8007813,3.9297485
	c0,1.6817017,0.789978,3.1366577,3.0751953,4.9257813l0.9580078,0.7481079
	c1.7227173,1.3299561,2.0352173,2.3065796,2.0352173,3.3222046c0,1.1034546-0.9151001,2.3730469-2.7842407,2.3730469
	c-1.2890625,0-2.515564-0.5625-2.9726563-2.0995483c-0.1035156-0.3536377-0.1865234-0.7911377-0.1865234-1.0606079
	c0-0.1660156-0.0214844-0.3555298-0.2080078-0.3555298c-0.1669922,0-0.2285156,0.2305298-0.25,0.5430298
	c-0.0205078,0.3300781-0.1035156,1.578064-0.1035156,2.7207031c0,0.4589825,0.0625,0.5624981,0.3945313,0.7069683
	c0.8944702,0.3945923,1.8300781,0.5411377,3.0352173,0.5411377c1.1015015,0,2.2635498-0.1875,3.3036499-0.8536377
	c1.4960938-0.9764996,1.953125-2.4082012,1.953125-3.6131573C200.9208984,26.4387913,200.0059204,25.044199,197.5126953,23.1125584z
	 M27.8925781,27.6418552c0.012207,0.1582031,0.1509399,0.1523438,0.1611328,0L30.0059204,3.536386l-4.5728149-0.0073242
	L27.8925781,27.6418552z"/>
<path fill-rule="evenodd" fill="#F0B12D" d="M33.2748985,15.5075731c2.8472023,2.2407007,7.491703,14.6947966-3.8451977,18.2846985
	c-0.1841011,0.0467987-0.1690006,0.1875,0.0023994,0.1679001C47.4673004,31.708271,41.2695007,18.765873,33.4263,15.3547735
	C33.2178001,15.2536736,33.1190987,15.3854733,33.2748985,15.5075731L33.2748985,15.5075731z"/>
</svg>
