<svg xmlns="http://www.w3.org/2000/svg" viewBox="0 0 250 250"><path d="M202.1 12.5c-3.7 0-6.8 3-6.8 6.8v14.6h-140.7V19.3c0-3.7-3-6.8-6.8-6.8 -3.7 0-6.8 3-6.8 6.8v21.4c0 3.7 3 6.8 6.8 6.8h154.3c3.7 0 6.8-3 6.8-6.8v-21.4C208.9 15.5 205.9 12.5 202.1 12.5zM130 120.7v9.7h8.7c2.5 0 4.6-1.9 4.8-4.4l6-62.6c0.1-1.4-0.3-2.7-1.2-3.7 -0.9-1-2.2-1.6-3.6-1.6h-39.4c-1.4 0-2.7 0.6-3.6 1.6 -0.9 1-1.4 2.4-1.2 3.7l6 62.6c0.2 2.5 2.3 4.4 4.8 4.4h8.7v-9.7h-4.3l-5.1-52.9h28.7l-5.1 52.9H130zM97.4 209.9C97.4 225.2 109.8 237.5 125 237.5c15.2 0 27.6-12.3 27.6-27.6 0-21.3-22-42.2-27.6-76.1C119.5 167.8 97.4 188.7 97.4 209.9z"/></svg>
