<?xml version="1.0" encoding="utf-8"?>
<svg version="1.1" xmlns="http://www.w3.org/2000/svg" xmlns:xlink="http://www.w3.org/1999/xlink" x="0px" y="0px"
	 viewBox="0 0 147.7471 25.1983" style="enable-background:new 0 0 147.7471 25.1983;" xml:space="preserve">
<path class="secondary" d="M21.30077-0.00002c-1.94714,0-3.20209,1.25299-3.20209,2.95801c0,1.67188,1.21771,2.9942,3.16699,2.9942
	c1.98431,0,3.23822-1.32233,3.23822-2.9942C24.46782,1.25297,23.24999-0.00002,21.30077-0.00002z M115.3789-0.00002
	c-1.9502,0-3.20313,1.25299-3.20313,2.95801c0,1.67188,1.21881,2.9942,3.16803,2.9942c1.98444,0,3.23627-1.32233,3.23627-2.9942
	C118.54498,1.25297,117.32824-0.00002,115.3789-0.00002z"/>
<path class="primary" d="M-0.00001,24.81547h6.29889v-8.90918h8.25v-5.08203h-8.25V6.47459h8.77142V1.35746H-0.00001V24.81547z
	 M18.16802,24.81547h6.26556V7.69236h-6.26556V24.81547z M28.33111,24.81547h6.26459v-24.711h-6.26459V24.81547z M45.35162,2.81938
	L39.2246,4.45316v3.2392h-2.12299v4.59381h2.12299v5.98633c0,2.61041,0.55768,4.31537,1.60162,5.36041
	c0.9043,0.90515,2.4375,1.56537,4.28125,1.56537c1.60052,0,2.99213-0.2442,3.72363-0.4873V19.9434
	c-0.52252,0.13959-0.7666,0.13959-1.49713,0.13959c-1.49506,0-1.98236-0.83691-1.98236-2.88959v-4.90723h3.54877V7.69236h-3.54877
	V2.81938z M59.65533,7.30961c-6.29883,0-8.87402,5.11517-8.87402,9.11719c0,5.43158,3.4101,8.77148,9.43158,8.77148
	c2.12311,0,4.35162-0.2774,6.40436-1.11432l-0.80084-4.17578c-1.53217,0.48639-3.06342,0.66223-4.69916,0.66223
	c-2.19336,0-4.17584-0.7666-4.38477-2.12415h10.58002c0.10358-0.41699,0.2442-1.3222,0.2442-2.36719
	C67.55669,11.37986,65.18951,7.30961,59.65533,7.30961z M56.6621,14.20017c0.10449-1.0791,0.836-2.78412,2.68073-2.78412
	c1.9834,0,2.43646,1.80853,2.43646,2.78412H56.6621z M75.97857,10.7891H75.8399l-0.20898-3.09674h-5.35944
	c0.0694,1.42584,0.13873,3.06152,0.13873,5.77545v11.34766h6.26459v-8.45801c0-0.41797,0.03418-0.76465,0.10449-1.07819
	c0.3125-1.39056,1.56641-2.1582,3.41211-2.1582c0.66022,0,1.14752,0.0694,1.59967,0.17389v-5.8819
	c-0.45215-0.10345-0.69537-0.10345-1.25195-0.10345C79.07623,7.30961,76.88482,8.17881,75.97857,10.7891z M101.80572,10.68461
	c-0.69824,2.50586-1.3584,5.22168-1.9502,8.11035H99.7871c-0.55853-3.02838-1.18353-5.60449-1.95007-8.21387l-2.46979-9.22363
	H88.4746l7.44733,23.45801h7.41406l7.69141-23.45801h-6.68262L101.80572,10.68461z M112.24609,24.81547h6.26471V7.69236h-6.26471
	V24.81547z M137.61919,14.86137c0-4.28027-2.05469-7.55176-7.9375-7.55176c-3.54888,0-5.98437,0.97357-7.09869,1.53125
	l1.11432,4.00293c1.11328-0.66412,3.02728-1.28809,4.83788-1.28809c2.26166,0,2.7851,0.76367,2.7851,1.46088v0.13971
	c-5.81249,0.03418-9.91991,2.05267-9.91991,6.64752c0,2.85437,2.15631,5.39447,5.63672,5.39447
	c1.84478,0,3.55181-0.52441,4.76958-1.87787h0.10455l0.34656,1.49506h5.63867c-0.20898-0.87109-0.27728-2.46979-0.27728-4.17871
	V14.86137z M131.52739,18.37699c0,0.3125,0,0.62598-0.07031,0.90619c-0.2774,0.9375-1.25201,1.56451-2.15631,1.56451
	c-1.04388,0-1.77538-0.55762-1.77538-1.63568c0-1.49713,1.46191-2.2276,4.00201-2.2276V18.37699z M141.48247,0.10447v24.711h6.26465
	v-24.711H141.48247z"/>
</svg>
