<svg xmlns="http://www.w3.org/2000/svg" viewBox="0 0 250 250"><path d="M97.7 153.6c0-1.9-1.6-3.5-3.5-3.5 -1.9 0-3.5 1.6-3.5 3.5 0 1.9 1.6 3.5 3.5 3.5C96.2 157.1 97.7 155.5 97.7 153.6zM101.6 173c-2.7 0-4.9 2.2-4.9 4.9s2.2 4.9 4.9 4.9c2.7 0 4.9-2.2 4.9-4.9S104.4 173 101.6 173zM117.8 196c-4.6 0-8.4 3.8-8.4 8.4s3.8 8.4 8.4 8.4 8.4-3.8 8.4-8.4S122.5 196 117.8 196zM145.6 212.8c-6.8 0-12.4 5.5-12.4 12.4 0 6.8 5.5 12.4 12.4 12.4 6.8 0 12.4-5.5 12.4-12.4C157.9 218.3 152.4 212.8 145.6 212.8zM173.8 76c3.2 0 5.8-2.6 5.8-5.8V23.8c0-6.3-5.1-11.3-11.3-11.3H81.7c-6.2 0-11.3 5.1-11.3 11.3v46.4c0 3.2 2.6 5.8 5.8 5.8h7.4v13.7c-7.4 0.7-13.2 7-13.2 14.6v48.7c0 2.2 1.3 4.2 3.1 5.1v73.5c0 3.2 2.6 5.8 5.8 5.8 3.2 0 5.8-2.6 5.8-5.8v-78.7c0-2.2-1.3-4.2-3.1-5.1v-43.5c0-1.6 1.4-3 3-3h60.5c3.2 0 5.8-2.6 5.8-5.8 0-3.2-2.6-5.8-5.8-5.8h-50.3V76h29.7c3.2 0 5.8-2.6 5.8-5.8 0-3.2-2.6-5.8-5.8-5.8H82.1V24.1h85.9v40.3h-7.4c-3.2 0-5.8 2.6-5.8 5.8v25.3c0 3.2 2.6 5.8 5.8 5.8h4.4c1.6 0 3 1.3 3 3v43.5h-59.9c-3.2 0-5.8 2.6-5.8 5.8 0 3.2 2.6 5.8 5.8 5.8h56.8v72.2c0 3.2 2.6 5.8 5.8 5.8 3.2 0 5.8-2.6 5.8-5.8v-73.5c1.8-1 3.1-2.9 3.1-5.1v-48.7c0-7.6-5.8-13.8-13.2-14.6V76H173.8z"/></svg>
