<?xml version="1.0" encoding="utf-8"?>
<svg version="1.1" xmlns="http://www.w3.org/2000/svg" xmlns:xlink="http://www.w3.org/1999/xlink" x="0px" y="0px"
	 viewBox="0 0 164.39459 25.2011" style="enable-background:new 0 0 164.39459 25.2011;" xml:space="preserve">
<path class="secondary" d="M38.46587,6.87106c-3.16608,0-5.72949,2.56342-5.72949,5.72949c0,3.164,2.56342,5.72943,5.72949,5.72943
	c3.16693,0,5.73041-2.56543,5.73041-5.72943C44.19628,9.43448,41.6328,6.87106,38.46587,6.87106z M46.75982-0.00003v25.20111
	h1.69141V-0.00003H46.75982z"/>
<path class="primary" d="M4.32427,6.87106c-1.22064,0-2.24603,0.43262-3.07715,1.29785L-0.00001,7.1611v10.85156h1.45709v-6.8194
	c0-0.7959,0.2793-1.4726,0.83691-2.02826c0.55762-0.55859,1.2334-0.83594,2.03027-0.83594
	c0.79395,0,1.46973,0.26953,2.02936,0.80951c0.55847,0.53912,0.83685,1.22369,0.83685,2.05469v6.8194h1.45703v-6.8194
	c0-1.21869-0.41504-2.24408-1.24902-3.07709C6.5703,7.2861,5.544,6.87106,4.32427,6.87106z M15.57128,6.87106
	c-1.55658,0-2.8974,0.5556-4.03119,1.66992c-1.13379,1.11517-1.69922,2.4668-1.69922,4.05957
	c0,1.5556,0.56543,2.89941,1.69922,4.03223c1.13379,1.13177,2.47461,1.6972,4.03119,1.6972
	c1.60944,0,2.9873-0.59271,4.13971-1.77728l1.59082,1.45996V7.1611l-1.59082,1.4873
	C18.55858,7.46188,17.18072,6.87106,15.57128,6.87106z M18.59569,15.62497c-0.83099,0.83203-1.83789,1.24701-3.02441,1.24701
	c-1.20209,0-2.2168-0.41107-3.03809-1.23431c-0.8222-0.82129-1.23242-1.83496-1.23242-3.03711
	c0-1.20404,0.41022-2.21484,1.23242-3.03809c0.82129-0.8233,1.836-1.2334,3.03809-1.2334c1.18652,0,2.19342,0.41602,3.02441,1.24701
	c0.83112,0.83112,1.24609,1.83893,1.24609,3.02448C19.84179,13.78506,19.42681,14.79288,18.59569,15.62497z M27.2188,6.87106
	c-1.2207,0-2.24609,0.43262-3.07721,1.29785L22.89458,7.1611v10.85156h1.45703v-6.8194c0-0.7959,0.2793-1.4726,0.83691-2.02826
	c0.55756-0.55859,1.2334-0.83594,2.03027-0.83594c0.79388,0,1.4726,0.26953,2.02728,0.80951
	c0.55762,0.53912,0.836,1.22369,0.836,2.05469v6.8194h1.4599v-6.8194c0-1.21869-0.41498-2.24408-1.24701-3.07709
	C29.4649,7.2861,28.4395,6.87106,27.2188,6.87106z M72.6953,21.44626h4.53619V3.55368H72.6953V21.44626z M67.60357,3.47647
	c-1.41217,0-2.31934,0.9082-2.31934,2.14362c0,1.20898,0.88379,2.16602,2.29584,2.16602c1.43365,0,2.34381-0.95703,2.34381-2.16602
	C69.89648,4.38467,69.01373,3.47647,67.60357,3.47647z M52.17968,21.44626h4.56256v-6.45215h5.97266V11.3154h-5.97266V8.16599
	h6.34955V4.45987H52.17968V21.44626z M85.0205,5.51749l-4.43652,1.18457v2.34473h-1.53705v3.32617h1.53705v4.33502
	c0,1.88959,0.4024,3.12604,1.15723,3.8808c0.65527,0.65533,1.76758,1.13379,3.10059,1.13379
	c1.16022,0,2.16998-0.17578,2.69531-0.35248v-3.45221c-0.375,0.10059-0.55463,0.10059-1.08301,0.10059
	c-1.08099,0-1.43359-0.60449-1.43359-2.0918v-3.55371h2.5694V9.04678h-2.5694V5.51749z M65.33788,21.44626h4.53522V9.04678h-4.53522
	V21.44626z M135.72557,3.47647c-1.41211,0-2.31738,0.9082-2.31738,2.14362c0,1.20898,0.88092,2.16602,2.29303,2.16602
	c1.43555,0,2.34375-0.95703,2.34375-2.16602C138.02147,4.38467,137.13676,3.47647,135.72557,3.47647z M151.83006,14.23917
	c0-3.09961-1.48828-5.46967-5.74609-5.46967c-2.56927,0-4.33398,0.70605-5.1416,1.1084l0.80762,2.89941
	c0.80768-0.48053,2.19342-0.93262,3.50391-0.93262c1.6377,0,2.01367,0.55371,2.01367,1.05762v0.10156
	c-4.20697,0.02344-7.17969,1.48633-7.17969,4.81354c0,2.06726,1.55963,3.90515,4.0791,3.90515
	c1.33502,0,2.57129-0.37891,3.45325-1.36029h0.07605l0.25201,1.08398h4.0849c-0.15039-0.6319-0.20313-1.78906-0.20313-3.02539
	V14.23917z M147.41801,16.7822c0,0.22852,0,0.4541-0.04883,0.65717c-0.20221,0.67975-0.90918,1.13385-1.56061,1.13385
	c-0.75781,0-1.28711-0.40332-1.28711-1.18463c0-1.0849,1.06061-1.61322,2.89655-1.61322V16.7822z M95.37701,8.7695
	c-4.56061,0-6.42773,3.70508-6.42773,6.60248c0,3.93268,2.47266,6.35059,6.83002,6.35059c1.53912,0,3.15039-0.20105,4.63873-0.8056
	l-0.58099-3.02448c-1.11041,0.35162-2.2168,0.47949-3.40045,0.47949c-1.58887,0-3.02448-0.55457-3.17676-1.53796h7.66016
	c0.07611-0.30286,0.1767-0.95813,0.1767-1.71295C101.09667,11.71768,99.38482,8.7695,95.37701,8.7695z M93.21001,13.75876
	c0.07623-0.78125,0.60449-2.01465,1.94037-2.01465c1.43561,0,1.76471,1.30957,1.76471,2.01465H93.21001z M154.62798,21.44626
	h4.53613V3.55368h-4.53613V21.44626z M133.45897,21.44626h4.53326V9.04678h-4.53326V21.44626z M125.89849,11.21481
	c-0.50592,1.8125-0.98438,3.7793-1.41022,5.87207h-0.05267c-0.4024-2.19238-0.85736-4.05957-1.41211-5.94733l-1.78906-6.67969
	h-4.98834l5.3916,16.98639h5.36823l5.56835-16.98639h-4.83788L125.89849,11.21481z M107.19732,11.28897h-0.10162l-0.15039-2.24219
	h-3.88184c0.0498,1.03229,0.1026,2.21777,0.1026,4.1817v8.21777h4.5332v-6.12408c0-0.30267,0.02734-0.55469,0.07611-0.78119
	c0.22949-1.00781,1.13672-1.56348,2.4707-1.56348c0.47852,0,0.83014,0.0498,1.15924,0.12598V8.8447
	c-0.3291-0.0752-0.50195-0.0752-0.90723-0.0752C109.43749,8.7695,107.85259,9.39938,107.19732,11.28897z M162.56157,17.84659
	c-1.02533,0-1.84277,0.79688-1.84277,1.78912c0,1.01465,0.81744,1.81055,1.84277,1.81055c1.03711,0,1.83301-0.7959,1.83301-1.81055
	C164.39458,18.64346,163.59868,17.84659,162.56157,17.84659z M162.57329,21.06491c-0.8067,0-1.39648-0.63281-1.39648-1.4292
	c0-0.78516,0.58978-1.4292,1.38477-1.4292c0.79681,0,1.375,0.64404,1.375,1.44
	C163.93657,20.4321,163.35838,21.06491,162.57329,21.06491z M162.97661,19.68991v-0.021
	c0.21777-0.06592,0.37006-0.21875,0.37006-0.41455c0-0.1748-0.07617-0.31641-0.17377-0.39355
	c-0.13092-0.07574-0.2832-0.1308-0.62109-0.1308c-0.29492,0-0.52441,0.0224-0.6875,0.05505v1.78864h0.41406v-0.71924h0.1972
	c0.22852,0,0.33789,0.08594,0.37109,0.2832c0.05371,0.20703,0.086,0.37109,0.14063,0.43604h0.44733
	c-0.04303-0.06494-0.07623-0.1748-0.13092-0.44781C163.24907,19.8862,163.15141,19.75528,162.97661,19.68991z M162.4854,19.55911
	h-0.19531v-0.51276c0.04291-0.01074,0.11914-0.021,0.22852-0.021c0.26172,0,0.38177,0.1084,0.38177,0.2724
	C162.90038,19.48337,162.71489,19.55911,162.4854,19.55911z"/>
</svg>
