<?xml version="1.0" encoding="utf-8"?>
<svg version="1.1" xmlns="http://www.w3.org/2000/svg" xmlns:xlink="http://www.w3.org/1999/xlink" x="0px" y="0px"
	 viewBox="0 0 174.10649 25.1997" style="enable-background:new 0 0 174.10649 25.1997;" xml:space="preserve">
<path class="secondary" d="M85.208,10.82277c0,1.04291,0.8457,1.88861,1.88867,1.88861c1.04303,0,1.88672-0.8457,1.88672-1.88861
	c0-1.04095-0.84369-1.88666-1.88672-1.88666C86.0537,8.93611,85.208,9.78181,85.208,10.82277z M88.38769,10.82277
	c0,0.55273-0.45111,1.00189-1.00391,1.00189c-0.55078,0-1-0.44916-1-1.00189c0-0.55078,0.44922-1.00201,1-1.00201
	C87.93658,9.82076,88.38769,10.27199,88.38769,10.82277z M77.00097,9.64699c0,1.43359,1.16412,2.5976,2.59772,2.5976
	c1.43555,0,2.5976-1.164,2.5976-2.5976s-1.16205-2.59772-2.5976-2.59772C78.16509,7.04927,77.00097,8.21339,77.00097,9.64699z
	 M81.37597,9.64699c0,0.75983-0.61908,1.37891-1.38074,1.37891c-0.75983,0-1.37701-0.61908-1.37701-1.37891
	s0.61719-1.37891,1.37701-1.37891C80.75689,8.26808,81.37597,8.88716,81.37597,9.64699z M76.3037,6.06111l25.88477,2.3457
	c0.06061,0.00385,0.11523-0.03912,0.12311-0.09973c0.00781-0.0625-0.03705-0.11908-0.09955-0.12689l-25.8067-3.08942
	c-0.00391,0-0.00983-0.00092-0.01373-0.00092c-0.26849-0.02448-0.5058,0.17285-0.53021,0.44141
	C75.83703,5.79976,76.03521,6.03761,76.3037,6.06111z M102.18847,12.07277L76.3037,14.41646
	c-0.00391,0.00201-0.0097,0.00201-0.01361,0.00201c-0.26758,0.03119-0.45898,0.27539-0.42682,0.54291
	c0.03223,0.26758,0.27441,0.45898,0.54205,0.42578l25.8067-3.08789c0.06049-0.00781,0.10535-0.06049,0.09955-0.12299
	C102.30572,12.11378,102.25097,12.06691,102.18847,12.07277z"/>
<path class="primary" d="M14.40337,7.38917c0-1.88141-0.67578-3.43408-2.0293-4.65869c-1.21484-1.09381-2.92389-1.64062-5.13086-1.64062
	h-7.24323v18.979h5.64459v-13.875H6.6455c1.37207,0,2.05859,0.44922,2.05859,1.3476c0,1.01965-0.59369,1.5293-1.78021,1.5293
	H6.47863v4.88092l2.7392,6.11719h5.92285l-3.25299-7.82819C13.56548,10.92427,14.40337,9.30708,14.40337,7.38917z M23.10747,5.9297
	c-2.0108,0-3.71875,0.69971-5.12305,2.09808c-1.40436,1.40039-2.10644,3.10547-2.10644,5.11719
	c0,2.06641,0.69531,3.78711,2.0849,5.1582c1.39075,1.37109,3.12891,2.05859,5.21393,2.05859
	c0.35248,0,0.74219-0.03711,1.16797-0.11127v-5.38092c-0.38867,0.2403-0.81055,0.36139-1.26471,0.36139
	c-0.55658,0-1.01459-0.18561-1.37598-0.5567c-0.3623-0.37109-0.54285-0.84369-0.54285-1.41791
	c0-0.54688,0.19916-1.01959,0.59753-1.41797c0.3985-0.39844,0.87109-0.59772,1.41803-0.59772
	c0.60248,0,1.08197,0.2168,1.43939,0.6524c0.35651,0.4375,0.53522,1.01953,0.53522,1.75189v6.42389h5.2002v-6.79889
	c0-2.27136-0.64655-4.0625-1.93951-5.37299C27.11919,6.58449,25.35058,5.9297,23.10747,5.9297z M40.22369,5.9297
	c-1.03906,0-2.05078,0.22711-3.03906,0.68018c-0.98633,0.45508-1.7998,1.06641-2.43939,1.83588
	c-1.11243,1.33405-1.66803,3.06451-1.66803,5.18561v11.5683h5.19922V13.82668c0-1.84381,0.66797-2.76758,2.00287-2.76758
	c0.55573,0,1.0332,0.19336,1.4317,0.57806c0.3974,0.38483,0.5976,0.84961,0.5976,1.39655c0,0.54688-0.19238,1.01947-0.57709,1.41797
	c-0.38483,0.39844-0.8457,0.5976-1.38281,0.5976c-0.42676,0-0.85345-0.16986-1.2793-0.51361v5.72852
	c0.61133,0.06439,1.0752,0.0976,1.39063,0.0976c1.92767,0,3.5957-0.71478,5.00488-2.14246
	c1.40918-1.42584,2.1123-3.12311,2.1123-5.08795c0-2.02148-0.70801-3.72656-2.12701-5.11719
	C44.03228,6.62361,42.29009,5.9297,40.22369,5.9297z M49.85839,20.06886h5.19928V6.20747h-5.19928V20.06886z M66.65337,12.44966
	c0,1.8457-0.66608,2.76764-2.00195,2.76764c-0.55573,0-1.0332-0.19342-1.43164-0.57813
	c-0.3985-0.38477-0.59766-0.8457-0.59766-1.38281c0-0.5567,0.19141-1.03125,0.57617-1.42578
	c0.3847-0.39258,0.8457-0.5899,1.3847-0.5899c0.42578,0,0.85162,0.16614,1.27838,0.5v-5.729
	C65.24029,5.95698,64.7774,5.9297,64.4707,5.9297c-1.92767,0-3.59662,0.71338-5.00482,2.14105
	c-1.40918,1.42786-2.11328,3.1192-2.11328,5.07422c0,2.02148,0.70898,3.72662,2.12689,5.11719
	c1.41803,1.39063,3.16119,2.086,5.22852,2.086c1.03723,0,2.05078-0.22858,3.03723-0.6817
	c0.98627-0.45508,1.80066-1.06635,2.43939-1.83588c1.11328-1.33398,1.66986-3.0625,1.66986-5.18561V1.08986h-5.20111V12.44966z
	 M115.7022,1.39156c4.21289,0,6.70508,2.87793,7.42578,3.87994h0.89844c-1.38672-2.1582-4.26373-4.57422-8.32422-4.57422
	c-5.44531-0.02539-9.86517,4.13672-9.86517,9.84033c0,5.70306,4.41986,9.83984,9.86517,9.83984
	c3.98242,0,7.01367-2.28516,8.29877-4.47064h-0.87299c-0.54095,0.74597-2.98047,3.77728-7.42578,3.77728
	c-5.03522,0-9.09381-3.87891-9.09381-9.14648C106.60839,5.2715,110.66698,1.36616,115.7022,1.39156z M160.17088,9.89699h-0.05066
	c-0.66803-1.77338-3.03131-3.80267-6.32043-3.80267c-4.39252,0-7.16791,3.39056-7.16791,7.14056
	c0,3.67578,2.6972,7.14258,7.16791,7.14258c2.87891,0,5.13867-1.41217,6.32043-3.72467h0.05066v3.39069h0.7207V6.42818h-0.7207
	V9.89699z M153.87798,19.71138c-4.39258,0-6.52539-3.39252-6.52539-6.4765c-0.02539-3.82617,2.90228-6.47272,6.4472-6.47272
	c3.6485,0,6.44928,2.74811,6.44928,6.47272C160.24907,16.75636,157.62798,19.71138,153.87798,19.71138z M126.97948,20.04347h0.71881
	V1.03126h-0.71881V20.04347z M170.4229,6.09431c-1.1817,0.07605-3.51953,0.23035-4.75391,2.79877h-0.05078V6.42818h-0.7207v13.6153
	h0.7207v-7.37311c0-1.875,0.20508-3.46869,1.82416-4.93158c1.23242-0.875,2.1582-0.92578,2.98053-0.95117V6.09431z
	 M137.66698,6.09431c-4.05859,0-7.1933,3.08197-7.1933,7.16785c0,4.0332,3.0058,7.0899,7.16791,7.1153
	c2.74811,0,5.3692-1.36139,6.62891-4.26367h-0.79681c-1.07819,2.3125-3.28906,3.5976-5.8067,3.5976
	c-2.67175,0-6.39648-1.95313-6.4472-6.39838h13.56445l0.02539-0.38483C144.62987,8.71339,141.31548,6.09431,137.66698,6.09431z
	 M131.24522,12.64497c0.20496-3.39056,3.03119-5.88281,6.52527-5.88281c3.16022,0,6.14075,2.62109,6.29498,5.88281H131.24522z
	 M52.458,5.01759c1.3858,0,2.50983-1.12311,2.50983-2.50879c0-1.38574-1.12402-2.50879-2.50983-2.50879
	c-1.3847,0-2.50873,1.12305-2.50873,2.50879C49.94927,3.89448,51.0733,5.01759,52.458,5.01759z M172.68657,18.28761v-0.01953
	c0.21484-0.06842,0.37201-0.2207,0.37201-0.41797c0-0.17383-0.0791-0.31641-0.17871-0.39264
	c-0.1308-0.07611-0.28217-0.1308-0.62299-0.1308c-0.29297,0-0.5235,0.02344-0.68658,0.05469v1.79291h0.41406v-0.7226h0.19922
	c0.23053,0,0.34088,0.08789,0.37213,0.2851c0.05267,0.20709,0.08887,0.3692,0.1416,0.4375h0.4502
	c-0.04694-0.0683-0.07813-0.17767-0.13672-0.45111C172.95897,18.48488,172.85936,18.35396,172.68657,18.28761z M172.19438,18.15681
	h-0.19916v-0.51373c0.04675-0.00983,0.12006-0.01947,0.23035-0.01947c0.26172,0,0.38281,0.10736,0.38281,0.27136
	C172.60838,18.07857,172.42479,18.15681,172.19438,18.15681z M172.27251,16.44386c-1.02728,0-1.84961,0.79681-1.84961,1.789
	c0,1.01373,0.82233,1.81061,1.84961,1.81061c1.03711,0,1.83398-0.79688,1.83398-1.81061
	C174.10649,17.24068,173.30962,16.44386,172.27251,16.44386z M172.28319,19.66457c-0.80762,0-1.39941-0.63477-1.39941-1.4317
	c0-0.7851,0.5918-1.42969,1.38873-1.42969c0.79688,0,1.37299,0.64459,1.37299,1.44141
	C173.64549,19.0298,173.06938,19.66457,172.28319,19.66457z"/>
</svg>
