<svg viewBox="0 0 71.0610962 25.2012005" xmlns="http://www.w3.org/2000/svg"><path d="m42.0889053 2.7831812c-1.5966797-1.2227173-3.9409179-1.8007812-7.2363281-1.8007812h-22.6645489c-.8344727-.1289062-1.7636719-.2051392-2.8125-.2051392-5.7749023 0-9.171875 3.1270142-9.171875 7.1699219 0 3.3964844 2.5478516 5.5352173 6.4204102 6.8945923 2.581543.8847046 3.6010742 1.5292978 3.6010742 2.6503916 0 1.1542969-1.0195312 1.8672485-3.1254883 1.8672485-2.2763672 0-4.5522461-.7129517-5.9448242-1.4258423l-1.1547852 5.0625c1.2910156.6796875 3.9746094 1.4258423 6.7260742 1.4258423 3.2387695 0 5.6318359-.796936 7.2416992-2.0645142v1.6914062h6.0805664v-7.7792969c.3735352.0332031.9175415.0663452 1.4951172.0663452 2.1558228 0 4.112793-.345643 5.7338867-1.1210947v8.8340464h6.0806255v-7.7792969c.3734741.0332031.9168701.0663452 1.4945679.0663452 3.0917969 0 5.7749023-.7128916 7.6434937-2.376893 1.4263306-1.2910767 2.2080078-3.328186 2.2080078-5.6386719.0000001-2.343811-1.052185-4.3828124-2.6151733-5.5371093zm-28.1210918 9.1932983c-.8950195-.6854858-2.0356445-1.2792969-3.4370117-1.7890015-2.8876953-1.0859985-4.1108398-1.5625-4.1108398-2.7167969 0-1.0194702 1.019043-1.6992188 2.8876953-1.6992188 2.0688477 0 3.6455078.5175171 4.6601562.9432983zm2.2866211 7.9122324c-.4208984.8397827-1.0493164 1.5702515-1.8144531 2.0663452.5439453-.7304688.9780273-1.4942017 1.2587891-2.3046875.2836914-.8067017.4189453-1.6542969.4267578-2.5039062.0078125-.8554688-.1010742-1.7011728-.3842773-2.5058603-.277832-.8066406-.737793-1.5547485-1.2998047-2.2715454.7749023.4785156 1.4301758 1.1875 1.8535156 2.0352173.4267578.8475952.6079102 1.812501.5981445 2.7479868-.0058594.9434203-.2163086 1.8926391-.6386719 2.7364501zm5.1869507-8.2403574c-.645874 0-1.0531616-.0331421-1.3930054-.0663452v-5.84375c.305603-.0683594.9175415-.1367798 1.8345337-.1367798 2.3099976 0 3.4647827 1.156311 3.4647827 2.8535767 0 1.9707031-1.4945679 3.1932983-3.906311 3.1932983zm9.7183227-.1991577c-.2109375.5020142-.4805298.9804688-.8110352 1.4082031-.1655884.2147827-.3442993.4159546-.5395508.6015625-.1943359.1835938-.4009399.3554077-.6224976.5.6748047-.8164062 1.1416016-1.7382812 1.4331055-2.7050781.2923584-.9667969.4144897-1.9785156.4095459-2.9882812-.0106812-1.9980469-.7460938-3.9941406-2.2504883-5.4824219.9375.5018921 1.6983032 1.343689 2.2045898 2.3104858.5093384.968811.769104 2.0684204.7764282 3.1660156.0067751 1.0859986-.179199 2.1835938-.6000975 3.1895142zm3.5913067.1991577c-.6459961 0-1.0537109-.0331421-1.3930054-.0663452v-5.84375c.3060913-.0683594.9168701-.1367798 1.8344116-.1347656 2.3105469 0 3.4653931 1.1542969 3.4653931 2.8515625 0 1.9707031-1.4946899 3.1932983-3.9067993 3.1932983zm12.777832-5.4550171c-.2890625 0-.6518555-.0996094-.8583984-.2226562l-.1484375.7597656c.1733398.1152344.5859375.2304688 1.0068359.2304688.9990234 0 1.7089844-.6347656 1.7089844-1.6347656 0-.59375-.2807617-1.1308594-.9824219-1.5927734-.5698242-.3632812-.7924805-.5615234-.7924805-.9912109 0-.3378906.2392578-.6757812.7426758-.6757812.2973633 0 .5366211.0898438.6855469.1894531l.1650391-.7597656c-.1489258-.0898438-.4790039-.1972656-.8339844-.1972656-1.0400391 0-1.6259766.6845703-1.6259766 1.5507812 0 .6035156.4291992 1.15625 1.0483398 1.5527344.4541016.3134766.7265625.5693359.7265625 1.015625.0000001.4531248-.2973632.7753904-.8422851.7753904zm4.491211.6357422-.0908203-.6845703c-.1235352.0654297-.2641602.0898438-.4291992.0898438-.5366211 0-.8666992-.4951172-.8666992-1.3203125 0-.734375.2973633-1.3535156.8666992-1.3535156.1982422 0 .3383789.0566406.4291992.0898438l.1323242-.7011719c-.1074219-.0576172-.3383789-.1152344-.578125-.1152344-1.0644531 0-1.7333984.8994141-1.7333984 2.0957031 0 1.3222656.6357422 2.03125 1.5932617 2.03125.2973632 0 .5532226-.0664063.6767578-.131836zm.8925781-4.4824218c.2885742 0 .4951172-.2060547.4868164-.5029297 0-.3144531-.1982422-.5126953-.4707031-.5126953-.2641602 0-.4785156.1982422-.4702148.5126953-.0083008.296875.1982421.5029297.4541015.5029297zm-.4213867 4.5654296h.8833008v-4.0205078h-.8833008zm3.1289062.0488282c.371582 0 .7592773-.0742188 1.0073242-.1894531l-.1240234-.6357422c-.1816406.0830078-.4291992.1484375-.7182617.1484375-.4702148 0-.8916016-.2470703-.8999023-1.1474609h1.890625c.0083008-.1074219.0249023-.2392578.0249023-.4707031 0-1.0722656-.4291992-1.8408203-1.2714844-1.8408203-.8583984 0-1.5024414.8095703-1.5024414 2.1376953 0 1.2470702.5615235 1.9980468 1.5932617 1.9980468zm-.1567382-3.4746094c.3134766 0 .5283203.3789062.5200195 1.0234375h-1.0898438c.0166016-.4707031.1899414-1.0234375.5698243-1.0234375zm1.9736328 3.4257812h.8833008v-2.4853515c0-.1484375.0166016-.2802734.0415039-.3632812.0825195-.3300781.2807617-.4951172.4951172-.4951172.3881836 0 .4707031.3964844.4707031.7929688v2.5507812h.8833008v-2.6337891c0-.9326172-.3549805-1.453125-1.0317383-1.453125-.4213867 0-.7597656.2148438-.949707.5361328h-.0161133l-.0415039-.4697266h-.7675782c.0166016.3544922.0327148.6767578.0327148 1.1308594v2.8896484zm3.7241211-1.2880859c0 .5947266.0991211.8916016.2973633 1.0888672.1733398.1738281.4291992.2480469.7099609.2480469.2475586 0 .4458008-.0244141.5776367-.0664062l-.0161133-.6845704c-.0908203.0166016-.1733398.0244141-.2724609.0244141-.2231445 0-.4130859-.1230469-.4130859-.6191406v-2.0800782h.7763672v-.6435547h-.7763672v-.9990234l-.8833008.3056641v.6933594h-.4785156v.6435547h.4785156zm2.609375-3.2773437c.2885742 0 .4951172-.2060547.4868164-.5029297 0-.3144531-.1982422-.5126953-.4707031-.5126953-.2641602 0-.4785156.1982422-.4702148.5126953-.0083009.296875.1982421.5029297.4541015.5029297zm-.4213868 4.5654296h.8833008v-4.0205078h-.8833008zm2.7407227 0v-3.3769531h.7099609v-.6435547h-.7099609v-.2148437c0-.4287109.1240234-.8173828.5283203-.8173828.140625 0 .2563477.0253906.3388672.0585938l.1152344-.6933594c-.1401367-.0507812-.3300781-.0917969-.5859375-.0917969-.3217773 0-.6523438.1074219-.8916016.3632812-.3051758.3222656-.3876953.7519531-.3876953 1.1972656v.1982422h-.5205078v.6435547h.5205078v3.3769531zm1.5200195-4.5654296c.2885742 0 .4951172-.2060547.4868164-.5029297 0-.3144531-.1982422-.5126953-.4707031-.5126953-.2641602 0-.4785156.1982422-.4702148.5126953-.0083008.296875.1982422.5029297.4541015.5029297zm-.4213867 4.5654296h.8833008v-4.0205078h-.8833008zm3.2856445-.6777343c-.5366211 0-.8666992-.4951172-.8666992-1.3203125 0-.734375.2973633-1.3535156.8666992-1.3535156.1982422 0 .3383789.0566406.4291992.0898438l.1323242-.7011719c-.1074219-.0576172-.3383789-.1152344-.5776367-.1152344-1.0649414 0-1.7338867.8994141-1.7338867 2.0957031 0 1.3222656.6357422 2.03125 1.5932617 2.03125.2973633 0 .5532227-.0664062.6767578-.1318359l-.0908203-.6845703c-.1235351.0654296-.2641601.0898437-.4291992.0898437zm-22.6396484 3.2011718c-.3964844 0-.7514648.0410156-1.0405273.1074219v5.4804688h.8754883v-2.1621094h.2475586c.4702148 0 1.0068359-.1816406 1.3374023-.5703125.2558594-.296875.4125977-.6845703.4125977-1.2460938 0-.4785156-.1484375-.9082031-.4458008-1.1884766-.3300782-.3134765-.8007813-.4208984-1.3867188-.4208984zm.0493164 2.7158204c-.0825195 0-.1484375 0-.2143555-.0166016v-1.9394531c.0742188-.0253906.1894531-.0419922.3051758-.0419922.5942383 0 .809082.4375.809082.9580078.0000001.6435547-.3217773 1.0400391-.8999023 1.0400391zm3.2695313 2.8720703v-5.7119141h-.8833008v5.7119141zm2.4936523-.4121094h.0166016l.0493164.4121094h.7924805c-.0415039-.2636719-.0493164-.6015625-.0493164-.9160156v-1.6015625c0-.8583984-.2641602-1.5683594-1.3046875-1.5683594-.4868164 0-.9077148.1660156-1.105957.2890625l.1650391.6025391c.2231445-.1396484.4624023-.2226562.7514648-.2226562.4375 0 .6025391.296875.6025391.7099609v.1074219c-.9082031.0078125-1.7832031.4453125-1.7832031 1.4775391 0 .7021484.4375 1.1884766 1.0151367 1.1884766.3466796-.0000002.6440428-.1650392.8505858-.4785158zm-1.0239258-.8007813c0-.7011719.6191406-.7929688.9658203-.8007812v.7509766c0 .0751953-.0078125.1494141-.0244141.2060547-.0742188.3144531-.2890625.4628906-.5039062.4628906-.1977539 0-.4375-.1650391-.4375-.6191407zm3.7485352-2.1953125c.2143555 0 .3959961.0742188.5532227.1728516l.1816406-.6523438c-.1982422-.1074219-.4458008-.1982422-.7763672-.1982422-.7177734 0-1.2299805.5117188-1.2299805 1.2050781 0 .4042969.2231445.7929688.8173828 1.1484375.371582.2382812.4873047.4042969.4873047.6513672 0 .2890625-.1899414.4619141-.5039062.4619141-.2641602 0-.5449219-.1152344-.6933594-.2148438l-.1733398.6523438c.1816406.140625.5449219.2314453.8583984.2314453.7597656 0 1.3291016-.4208984 1.3291016-1.2373047 0-.4960938-.2807617-.8925781-.8168945-1.2148438-.3881836-.2470703-.4873047-.3710938-.4873047-.5859375-.0000001-.2226561.1484374-.4199218.4541015-.4199218zm3.1870117 2.7070313c-.0908203.0166016-.1733398.0253906-.2724609.0253906-.2231445 0-.4130859-.125-.4130859-.6191406v-2.0810547h.7763672v-.6435547h-.7763673v-.9990234l-.8833008.3056641v.6933594h-.4785156v.6435547h.4785156v2.0888672c0 .59375.0991211.890625.2973633 1.0898438.1733398.1728516.4291992.2470703.7099609.2470703.2475586 0 .4458008-.0244141.5776367-.0654297zm1.0405273-3.8632813c.2885742 0 .4951172-.2070312.4868164-.5039062 0-.3134766-.1982422-.5117188-.4707031-.5117188-.2641602 0-.4785156.1982422-.4702148.5117188-.0083008.296875.1982422.5039062.4541015.5039062zm-.4213867 4.5644532h.8833008v-4.0195312h-.8833008zm3.8056641-.0820313-.0908203-.6855469c-.1235352.0664062-.2641602.0917969-.4291992.0917969-.5366211 0-.8666992-.4960938-.8666992-1.3212891 0-.7353516.2973633-1.3544922.8666992-1.3544922.1982422 0 .3383789.0585938.4291992.0917969l.1323242-.7021484c-.1074219-.0576172-.3383789-.1162109-.5776367-.1162109-1.0649414 0-1.7338867.9003906-1.7338867 2.0976562 0 1.3203125.6357422 2.0302734 1.5932617 2.0302734.2973633.0000001.5532226-.0654296.6767578-.1318359zm-16.1489258 2.6054697c-.3964844 0-.7514648.0419922-1.0405273.1074219v5.4824219h.8754883v-2.1630859h.2475586c.4702148 0 1.0068359-.1816406 1.3374023-.5693359.2558594-.2978516.4125977-.6855469.4125977-1.2470703 0-.4785156-.1484375-.9072266-.4458008-1.1884766-.3300782-.3144532-.8007813-.4218751-1.3867188-.4218751zm.0493164 2.7167969c-.0825195 0-.1484375 0-.2143555-.0166016v-1.9404297c.0742188-.0244141.1894531-.0410156.3051758-.0410156.5942383 0 .809082.4375.809082.9570312.0000001.6445313-.3217773 1.0410157-.8999023 1.0410157zm3.1621094-.5371094h-.0244141l-.0498047-.6103515h-.7675781c.0083008.3466797.0327148.7587891.0327148 1.1308594v2.8896484h.8833008v-2.1220703c0-.1572266.0083008-.2890625.0332031-.3876953.0908203-.4375.4042969-.6933594.7099609-.6933594.0742188 0 .1318359 0 .1816406.015625v-.8828125c-.0498047-.0078125-.0991211-.0166016-.1816406-.0166016-.330078 0-.6606444.2646484-.8173827.6767578zm2.6835937-.6767578c-.7514648 0-1.4697266.6357422-1.4697266 2.0888672 0 1.3535156.5864258 2.0634766 1.4365234 2.0634766.6108398 0 1.4443359-.4619141 1.4443359-2.0888672.0000001-1.3203125-.5693358-2.0634766-1.4111327-2.0634766zm0 3.4755859c-.4707031 0-.5864258-.7265625-.5864258-1.4033203 0-.5859375.0908203-1.3867188.5698242-1.3867188.4541016 0 .5527344.8007812.5527344 1.3867188 0 .6025391-.0986328 1.4033203-.5361328 1.4033203zm4.7719727-5.1015625h-.875v2.0634766h-.0166016c-.1323242-.2802734-.371582-.4375-.7016602-.4375-.6523438 0-1.2631836.6767578-1.2631836 2.0888672 0 1.2128906.4375 2.0634766 1.2216797 2.0634766.3881836 0 .6933594-.2558594.8339844-.5449219h.0249023l.0493164.4794922h.7592773c-.0161133-.3066406-.0327148-.7597656-.0327148-1.0898438v-4.6230469zm-.875 4.2929688c0 .0986328-.0083008.1894531-.0332031.2636719-.1074219.4042969-.3134766.4960938-.4790039.4960938-.3710938 0-.5859375-.5214844-.5859375-1.3300781 0-.7177734.1567383-1.3457031.6025391-1.3457031.2641602 0 .4458008.28125.4790039.6035156.0166016.0820312.0166016.1728516.0166016.2470703v1.0654296zm4.3925781-2.6005859h-.8833008v2.6083984c0 .1328125-.0166016.2558594-.0498047.3466797-.0410156.1572266-.1816406.3964844-.4458008.3964844-.3632812 0-.4702148-.4052734-.4702148-.9736328v-2.3779297h-.875v2.484375c0 1.0488281.2885742 1.6015625 1.0234375 1.6015625.4291992 0 .7431641-.2470703.8999023-.4873047h.0166016l.0576172.421875h.7592773c-.0166016-.3388672-.0327148-.7353516-.0327148-1.1640625zm2.4194336.6689453c.1982422 0 .3383789.0566406.4291992.0898438l.1323242-.7011719c-.1074219-.0576172-.3383789-.1152344-.578125-.1152344-1.0644531 0-1.7333984.8994141-1.7333984 2.0957031 0 1.3222656.6357422 2.03125 1.5932617 2.03125.2973633 0 .5532227-.0664062.6767578-.1318359l-.0908203-.6845703c-.1235352.0654297-.2641602.0898438-.4291992.0898438-.5366211 0-.8666992-.4951172-.8666992-1.3203125 0-.7343751.2973633-1.3535157.8666992-1.3535157zm2.1884766-1.6679688-.8833008.3056641v.6933594h-.4785156v.6435547h.4785156v2.0888672c0 .5947266.0991211.8916016.2973633 1.0888672.1733398.1738281.4291992.2480469.7099609.2480469.2475586 0 .4458008-.0244141.5776367-.0664062l-.0161133-.6845703c-.0908203.0166016-.1733398.0244141-.2724609.0244141-.2231445 0-.4130859-.1230469-.4130859-.6191406v-2.0800781h.7763672v-.6435549h-.7763672zm2.4360351 2.6171875c-.3881836-.2480469-.4873047-.3710938-.4873047-.5859375 0-.2236328.1484375-.421875.4541016-.421875.2143555 0 .3959961.0742188.5532227.1738281l.1816406-.6523438c-.1982422-.1074219-.4458008-.1982422-.7763672-.1982422-.7177734 0-1.2299805.5126953-1.2299805 1.2060547 0 .4042969.2231445.7919922.8173828 1.1464844.371582.2402344.4873047.4042969.4873047.6523438 0 .2890625-.1899414.4628906-.5039062.4628906-.2641602 0-.5449219-.1162109-.6933594-.2148438l-.1733398.6523438c.1816406.1396484.5449219.2304688.8583984.2304688.7597656 0 1.3291016-.4208984 1.3291016-1.2382812 0-.4951172-.2807618-.8906251-.8168946-1.2128907z"/></svg>