<?xml version="1.0" encoding="utf-8"?>
<svg version="1.1" xmlns="http://www.w3.org/2000/svg" xmlns:xlink="http://www.w3.org/1999/xlink" x="0px" y="0px"
	 viewBox="0 0 186.9444 25.1992" style="enable-background:new 0 0 186.9444 25.1992;" xml:space="preserve">
<path class="secondary" d="M84.6045,8.916v-4.58H84.128l-2.5899,8.248l-0.00581,0.0215l-3.9385,9.2949l-2.2383,2.0059
	c-0.1201,0.1093-0.28028,0.1621-0.4404,0.1621c-0.1475,0-0.29788-0.0469-0.4121-0.1367c-0.2432-0.1934-0.2549-0.5137-0.0274-0.7188
	l2.0655-1.8516l3.84859-9.0781l2.4931-7.9472h-5.55758v4.58c0,1.543-3.56342,12.9356-3.56342,14.0664
	c0,1.1153,0.4746,1.8633,1.665,1.8633h11.0791c1.1875,0,1.6621-0.748,1.6621-1.8633C88.168,21.8516,84.6045,10.459,84.6045,8.916z"
	/>
<path class="primary" d="M12.2871,15.63478c0,1.62689-0.06641,2.80078-0.18652,3.50189
	c-0.12299,0.70514-0.48828,1.29889-1.08588,1.78131c-0.6026,0.47852-1.49017,0.7226-2.6748,0.7226
	c-1.16022,0-2.0733-0.25391-2.74609-0.76752c-0.67291-0.50787-1.0957-1.19135-1.27539-2.03125
	c-0.10553-0.52344-0.15143-1.67383-0.15143-3.44531V4.22065h-4.16699v11.00592c0,2.30658,0.1319,4.05658,0.40631,5.23444
	c0.18848,0.79675,0.57617,1.55658,1.16602,2.2832c0.59277,0.72845,1.40039,1.31635,2.41595,1.77527
	c1.01764,0.45117,2.51471,0.67969,4.47852,0.67969c1.6319,0,2.9541-0.20496,3.96979-0.62299
	c1.01752-0.42188,1.8252-0.98053,2.42871-1.67969c0.60254-0.70898,1.02051-1.56842,1.24023-2.58978
	c0.2334-1.02356,0.33978-2.77356,0.33978-5.25V4.22065h-4.1582V15.63478z M25.11529,4.39259h-4.16901v20.45306h14.51764v-3.46869
	H25.11529V4.39259z M34.8272,7.71486h6.11517v17.1308h4.16705V7.71486h6.10156v-3.4942H34.8272V7.71486z M67.56451,17.47658
	c-0.58398-0.63092-1.33008-1.20117-2.22662-1.72852c1.8125-0.26758,3.1748-0.8985,4.08405-1.90625
	c0.90717-1.00983,1.3584-2.28912,1.3584-3.83984c0-1.2168-0.29785-2.29498-0.89453-3.24609
	c-0.60059-0.94727-1.40137-1.60352-2.4024-1.97656c-0.99799-0.36725-2.59961-0.55865-4.80859-0.55865h-8.76556v20.625h4.16797
	v-8.60736h0.8476c0.95801,0,1.65344,0.08197,2.0918,0.23236c0.44629,0.15631,0.86139,0.43951,1.25879,0.85944
	c0.3916,0.41797,1.12604,1.42578,2.19531,3.0293l3.00879,4.48627h4.97174l-2.51172-4.01758
	C68.9453,19.22066,68.15142,18.10158,67.56451,17.47658z M61.16125,12.94526H58.0772V7.71486h3.25104
	c1.68835,0,2.70105,0.01953,3.03705,0.0683c0.67773,0.11133,1.20111,0.38092,1.5722,0.80865
	c0.37018,0.42377,0.5528,0.98627,0.5528,1.6817c0,0.61707-0.1377,1.13464-0.4209,1.54486
	c-0.28027,0.414-0.67291,0.70703-1.16406,0.875C64.40533,12.85939,63.16509,12.94526,61.16125,12.94526z M109.5332,12.38478
	l-4.8584-8.16412h-4.87402l7.54694,11.95514v8.66986h4.15228v-8.65039l7.58008-11.97461h-4.79199L109.5332,12.38478z
	 M121.0274,24.84566h4.16309v-20.625h-4.16309V24.84566z M133.32909,15.75978h10.35059v-3.47662h-10.35059v-4.5683h11.12311v-3.4942
	h-15.29492v20.625h15.68451v-3.46869h-11.5127V15.75978z M152.65532,4.39259h-4.16602v20.45306h14.52441v-3.46869h-10.3584V4.39259z
	 M182.57719,9.85548c-0.44629-1.31842-1.10651-2.42578-1.96881-3.3418c-0.85742-0.9043-1.89838-1.53711-3.10541-1.89648
	c-0.89941-0.26764-2.20996-0.39655-3.9278-0.39655h-7.61719v20.625h7.84277c1.5401,0,2.76373-0.14056,3.68652-0.43158
	c1.23053-0.39648,2.20709-0.94727,2.9278-1.64459c0.95801-0.93158,1.68848-2.14642,2.20703-3.64642
	c0.41797-1.23047,0.63867-2.69135,0.63867-4.38867C183.26079,12.79878,183.02837,11.17579,182.57719,9.85548z M178.52538,18.33198
	c-0.28015,0.92389-0.63959,1.586-1.08588,1.98639s-1.00488,0.6875-1.6875,0.85742c-0.50977,0.13281-1.34863,0.20117-2.51471,0.20117
	h-3.10742V7.71486h1.87402c1.69629,0,2.83893,0.06055,3.41217,0.19141c0.78412,0.17181,1.42181,0.49414,1.93652,0.97461
	c0.50293,0.48041,0.89264,1.14264,1.17279,1.99609c0.28424,0.85352,0.42389,2.07611,0.42389,3.67181
	C178.94926,16.14851,178.80962,17.40816,178.52538,18.33198z M82.54589,2.43361l0.86432,0.16986l-0.41309,1.3399h1.24609
	l0.3418-1.10352l0.91888,0.1875c-0.06641-0.26178-0.66791-3.02734-0.66791-3.02734S83.04198,1.83986,82.54589,2.43361z
	 M185.1104,21.24611c-1.0274,0-1.84961,0.79688-1.84961,1.78906c0,1.01361,0.8222,1.81049,1.84961,1.81049
	c1.03711,0,1.83398-0.79688,1.83398-1.81049C186.94438,22.04298,186.14751,21.24611,185.1104,21.24611z M185.12108,24.46681
	c-0.80762,0-1.39941-0.63483-1.39941-1.43164c0-0.78516,0.5918-1.42969,1.38873-1.42969c0.79688,0,1.37299,0.64453,1.37299,1.44141
	C186.48338,23.83198,185.90727,24.46681,185.12108,24.46681z M185.52446,23.08986v-0.01959
	c0.21484-0.0683,0.37201-0.2207,0.37201-0.41791c0-0.17389-0.0791-0.31635-0.17865-0.39258
	c-0.13086-0.07617-0.28223-0.13092-0.62305-0.13092c-0.29297,0-0.5235,0.0235-0.68658,0.05475v1.79297h0.41412v-0.72272h0.19916
	c0.23053,0,0.34082,0.08795,0.37213,0.28522c0.05267,0.20703,0.08887,0.36908,0.1416,0.4375h0.4502
	c-0.04694-0.06842-0.07813-0.1778-0.13672-0.45117C185.79686,23.28706,185.69731,23.15626,185.52446,23.08986z M185.03227,22.959
	h-0.19928v-0.51373c0.04688-0.0097,0.12024-0.01947,0.23047-0.01947c0.26172,0,0.38281,0.10736,0.38281,0.27148
	C185.44627,22.88087,185.26268,22.959,185.03227,22.959z"/>
</svg>
