<svg xmlns="http://www.w3.org/2000/svg" viewBox="0 0 189.3 240"><path d="M24.8 178.6h-6v8c0 6.7 3.5 12.7 8.9 16v-7.9c-1.8-2.2-2.9-5-2.9-8.1V178.6zM124.1 12.6H37.8c-10.5 0-19 8.5-19 19v127.1l6-7.3V31.6c0-7.2 5.8-13 13-13h82v31c0 10.5 8.5 19 19 19h31v118c0 7.2-5.8 13-13 13H76.2v6h80.6c10.5 0 19-8.5 19-19V64.3L124.1 12.6zM138.8 62.6c-7.2 0-13-5.8-13-13V22.8l39.7 39.7H138.8z" fill="#9FA6B1"/><path d="M53.8 127c-1-1.2-2.7-1.2-3.7 0l-36 43.6c-1.3 1.6-0.2 3.9 1.8 3.9h13.3c1.3 0 2.4 1.1 2.4 2.4v48.1c0 1.3 1.1 2.4 2.4 2.4h35.8c1.3 0 2.4-1.1 2.4-2.4v-48.1c0-1.3 1.1-2.4 2.4-2.4h13.3c2 0 3.1-2.3 1.8-3.9L53.8 127zM70.8 119.3c-0.7-5.9 0.2-12 2.8-17.5L60.3 85.5c-4.9-6-4.1-15 1.9-19.7 5.9-4.6 14.4-3.7 19.1 2.1l21.1 25.9c4.6 5.6 4.2 13.9-1.1 18.9 -0.3 0.3-0.7 0.6-1 0.9 -3.7 2.8-4.2 8.1-1.3 11.7l2.2 2.7c3.2-1.2 6.2-3 8.9-5.4 10.6-9.7 11.5-26.2 2.4-37.3L91.6 59.6c-9.5-11.6-26.8-13.3-38.3-3.5C42 65.6 40.8 82.6 50.1 94L70.8 119.3zM144.6 124.5l-21.1-25.8c0.8 6-0.2 12.1-2.7 17.6l13.5 16.6c4.8 5.9 3.9 14.5-1.9 19.3 -5.9 4.8-14.5 3.9-19.3-1.9l-21.3-26.1c-4.8-5.9-3.9-14.5 1.9-19.3 2.1-1.7 4.5-2.7 6.9-3 -0.2-1.7-0.8-3.5-2-4.9l-5.5-6.8c-2.7 1-5.3 2.5-7.7 4.4 -11.5 9.4-13.2 26.4-3.8 37.9l21.3 26.1c9.4 11.5 26.4 13.2 37.9 3.8C152.3 153 154 136 144.6 124.5z" fill="#3D5EAB"/></svg>