<svg xmlns="http://www.w3.org/2000/svg" viewBox="0 0 189.3 240"><path d="M36.1 69.8c-0.7-0.4-1.7-0.6-2.8-0.6h-3.9v9.2h4c1.1 0 2.1-0.2 2.8-0.6 0.7-0.4 1.3-0.9 1.6-1.6 0.4-0.7 0.5-1.5 0.5-2.4 0-0.9-0.2-1.7-0.5-2.4C37.3 70.7 36.8 70.1 36.1 69.8zM62 70.3c-1.2-0.6-2.6-0.9-4.4-0.9h-3.7v17.6h3.7c1.7 0 3.2-0.3 4.4-0.9s2.1-1.6 2.7-2.9c0.6-1.3 0.9-3 0.9-5 0-2-0.3-3.7-0.9-5C64.1 71.9 63.2 70.9 62 70.3zM108.7 56.7h-100v43h100V56.7zM43.1 78.6c-0.8 1.4-1.9 2.5-3.4 3.3 -1.5 0.8-3.3 1.2-5.4 1.2h-4.9v9h-5.8V64.4h10.9c2.1 0 3.9 0.4 5.4 1.2s2.6 1.9 3.4 3.3c0.8 1.4 1.2 3 1.2 4.9S43.9 77.2 43.1 78.6zM69.8 85.6c-1.1 2.1-2.6 3.7-4.7 4.8 -2 1.1-4.4 1.7-7.2 1.7h-9.8V64.4h9.9c2.8 0 5.2 0.6 7.2 1.7 2 1.1 3.6 2.7 4.6 4.7 1.1 2.1 1.6 4.5 1.6 7.4C71.4 81.1 70.9 83.6 69.8 85.6zM94 69.2H81.6v6.6h11.2v4.8H81.6v11.4h-5.8V64.4H94V69.2zM159.7 179h-13.3c-1.3 0-2.4-1.1-2.4-2.4v-48.1c0-1.3-1.1-2.4-2.4-2.4h-35.8c-1.3 0-2.4 1.1-2.4 2.4v48.1c0 1.3-1.1 2.4-2.4 2.4H87.7c-2 0-3.1 2.3-1.8 3.9l36 43.6c1 1.2 2.7 1.2 3.7 0l36-43.6C162.8 181.4 161.7 179 159.7 179z" fill="#C82127"/><path d="M42.6 199.6c-7.2 0-13-5.8-13-13v-80.9h-6v80.9c0 10.5 8.5 19 19 19h54.2l-5-6H42.6zM128.9 12.6H42.6c-10.5 0-19 8.5-19 19v19.1h6V31.6c0-7.2 5.8-13 13-13h82v31c0 10.5 8.5 19 19 19h31v118c0 7.2-5.8 13-13 13h-6l-5 6h11c10.5 0 19-8.5 19-19V64.3L128.9 12.6zM143.6 62.6c-7.2 0-13-5.8-13-13V22.8l39.7 39.7H143.6z" fill="#9FA6B1"/></svg>