<?xml version="1.0" encoding="utf-8"?>
<svg version="1.1" xmlns="http://www.w3.org/2000/svg" xmlns:xlink="http://www.w3.org/1999/xlink" x="0px" y="0px"
	 viewBox="0 0 84.5245 25.1992" style="enable-background:new 0 0 84.5245 25.1992;" xml:space="preserve">
<path class="secondary" d="M-0.00001,25.03908h3.4668v-1.1875h-2.2666v-1.66992h2.2666v-1.16205h-2.2666v-1.14655h2.2666v-1.18359h-3.4668
	V25.03908z M7.03521,20.22268c-0.22754,0-0.4502,0.04291-0.66602,0.1308c-0.21777,0.0899-0.45996,0.24609-0.72662,0.4707v-0.48041
	H4.46392v4.69531h1.17865v-1.88483c0-0.48828,0.01666-0.80469,0.05084-0.95306c0.06641-0.2793,0.18457-0.5,0.35638-0.66211
	c0.16901-0.1582,0.37408-0.23828,0.61328-0.23828c0.18359,0,0.33795,0.04877,0.46295,0.14447s0.21185,0.23639,0.2627,0.41998
	c0.0498,0.18555,0.0752,0.55664,0.0752,1.11713v2.0567h1.16595v-3.10352c0-0.53906-0.13666-0.94916-0.4101-1.22461
	C7.8955,20.38479,7.49999,20.22268,7.03521,20.22268z M12.34569,20.22268c-0.2392,0-0.47461,0.04883-0.70801,0.14838
	c-0.2334,0.09961-0.46478,0.24811-0.69427,0.44531v-2.28711H9.77349v6.50983h1.16992v-1.88672
	c0-0.50195,0.01758-0.82617,0.05182-0.9649c0.06635-0.27539,0.18445-0.49017,0.35638-0.64838
	c0.1709-0.1582,0.37598-0.23828,0.61426-0.23828c0.18451,0,0.33984,0.04688,0.46484,0.14258s0.21289,0.23828,0.26459,0.43158
	c0.05182,0.19342,0.07922,0.56061,0.07922,1.10553v2.05859h1.1601v-3.10352c0-0.53906-0.13672-0.95117-0.4101-1.23047
	C13.20409,20.38277,12.81158,20.22268,12.34569,20.22268z M18.54009,20.8594c-0.20898-0.21094-0.43848-0.37109-0.68457-0.47662
	c-0.24805-0.10736-0.5127-0.1601-0.79395-0.1601c-0.61139,0-1.13287,0.23242-1.56158,0.6933
	c-0.42767,0.4649-0.6416,1.05859-0.6416,1.7832c0,0.69928,0.2207,1.28522,0.66412,1.75592
	c0.44141,0.46881,0.9668,0.70508,1.57416,0.70508c0.26953,0,0.51953-0.04877,0.75201-0.14459
	c0.23041-0.0976,0.46191-0.25391,0.69141-0.4726v0.49609h1.17871v-4.69531h-1.17871V20.8594z M18.22661,23.69527
	c-0.24414,0.25781-0.55084,0.38684-0.9209,0.38684c-0.3584,0-0.66022-0.13092-0.90619-0.39465
	c-0.24524-0.2597-0.36725-0.59369-0.36725-1c0-0.40228,0.12109-0.73438,0.36133-0.99017
	c0.24121-0.25781,0.54388-0.38672,0.9082-0.38672c0.37299,0,0.68066,0.12689,0.9248,0.37891
	c0.24316,0.25391,0.36621,0.58594,0.36621,0.99408C18.59282,23.09957,18.46978,23.43746,18.22661,23.69527z M23.48052,20.22268
	c-0.22662,0-0.44922,0.04291-0.66504,0.1308c-0.2168,0.0899-0.45898,0.24609-0.72656,0.4707v-0.48041h-1.17767v4.69531h1.17767
	v-1.88483c0-0.48828,0.0166-0.80469,0.05078-0.95306c0.06641-0.2793,0.18549-0.5,0.35553-0.66211
	c0.1709-0.1582,0.37689-0.23828,0.6142-0.23828c0.18359,0,0.33685,0.04877,0.46185,0.14447
	c0.12604,0.0957,0.21393,0.23639,0.2627,0.41998c0.05084,0.18555,0.07623,0.55664,0.07623,1.11713v2.0567h1.16602v-3.10352
	c0-0.53906-0.13672-0.94916-0.4101-1.22461C24.34179,20.38479,23.94628,20.22268,23.48052,20.22268z M28.6524,21.31838
	c0.24121,0,0.45313,0.03711,0.63281,0.11328c0.17969,0.07422,0.36127,0.20703,0.54779,0.40045l0.98053-0.53912
	c-0.2373-0.34381-0.54004-0.60742-0.91211-0.79303c-0.37012-0.18549-0.78912-0.27728-1.25592-0.27728
	c-0.50293,0-0.9599,0.10944-1.36621,0.32813c-0.40717,0.2168-0.72357,0.51947-0.95209,0.90228
	c-0.2276,0.38287-0.34082,0.80078-0.34082,1.25592c0,0.65625,0.23431,1.22845,0.70215,1.7168
	c0.46777,0.49017,1.11517,0.73438,1.93945,0.73438c0.91791,0,1.62982-0.32806,2.13184-0.98242L29.833,23.54098
	c-0.29388,0.35944-0.70599,0.54114-1.2334,0.54114c-0.42572,0-0.76953-0.12701-1.03223-0.37903
	c-0.2627-0.25391-0.39349-0.58002-0.39349-0.98041c0-0.41022,0.13574-0.74609,0.40723-1.00977
	C27.85448,21.44918,28.21099,21.31838,28.6524,21.31838z M34.08501,20.22268c-0.69629,0-1.27643,0.23633-1.7373,0.70898
	c-0.46192,0.47461-0.69342,1.0683-0.69342,1.78711c0,0.6972,0.23151,1.2793,0.69531,1.74414
	c0.46289,0.46484,1.06348,0.69727,1.79993,0.69727c0.47546,0,0.8847-0.08398,1.23035-0.25201
	c0.34473-0.16791,0.6416-0.42767,0.88873-0.7793l-0.99219-0.4668c-0.31744,0.30859-0.69531,0.46289-1.13574,0.46289
	c-0.36816,0-0.6709-0.0976-0.9082-0.29688c-0.23828-0.19531-0.38379-0.46088-0.43848-0.79681h3.78607l0.00494-0.22461
	c0-0.77539-0.23242-1.40039-0.69629-1.875C35.42577,20.45901,34.82427,20.22268,34.08501,20.22268z M32.8457,22.10348
	c0.13293-0.29102,0.2774-0.49207,0.43268-0.60742c0.24805-0.18549,0.53516-0.27728,0.8642-0.27728
	c0.30273,0,0.56946,0.08203,0.79791,0.24799c0.22949,0.16211,0.38281,0.375,0.46094,0.63672H32.8457z M40.99999,20.8594
	c-0.20886-0.21094-0.4375-0.37109-0.68549-0.47662c-0.24713-0.10736-0.51172-0.1601-0.79401-0.1601
	c-0.61127,0-1.13177,0.23242-1.55951,0.6933c-0.42969,0.4649-0.64362,1.05859-0.64362,1.7832
	c0,0.69928,0.22174,1.28522,0.66412,1.75592c0.4433,0.46881,0.96777,0.70508,1.57422,0.70508
	c0.27051,0,0.52051-0.04877,0.75195-0.14459c0.23145-0.0976,0.46191-0.25391,0.69232-0.4726v0.49609h1.1778v-6.50983h-1.1778
	V20.8594z M40.68658,23.69527c-0.2442,0.25781-0.55078,0.38684-0.9209,0.38684c-0.3584,0-0.66016-0.13092-0.90527-0.39465
	c-0.24609-0.2597-0.36719-0.59369-0.36719-1c0-0.40228,0.11908-0.73438,0.36041-0.99017
	c0.24017-0.25781,0.54388-0.38672,0.90814-0.38672c0.37305,0,0.6806,0.12689,0.9248,0.37891
	c0.2431,0.25391,0.36523,0.58594,0.36523,0.99408C41.05181,23.09957,40.92968,23.43746,40.68658,23.69527z M48.74224,21.94918
	c-0.09766-0.1015-0.37695-0.3457-0.83795-0.73041c-0.49304-0.41602-0.78809-0.68951-0.88568-0.81451
	c-0.0733-0.0957-0.1084-0.19714-0.1084-0.30267c0-0.10742,0.0498-0.20313,0.14941-0.28711
	c0.10162-0.086,0.23151-0.12701,0.39056-0.12701c0.3252,0,0.64551,0.2168,0.96002,0.65631l0.89551-0.79102
	c-0.33405-0.38867-0.64447-0.65625-0.93164-0.8028c-0.28619-0.14648-0.58984-0.2207-0.90625-0.2207
	c-0.49225,0-0.90625,0.1582-1.24225,0.47461c-0.3349,0.3125-0.50287,0.69141-0.50287,1.13092
	c0,0.30658,0.10059,0.61127,0.30267,0.91797c0.20221,0.30664,0.64752,0.74213,1.3399,1.30664
	c0.3642,0.29486,0.59961,0.51556,0.70599,0.66022c0.10553,0.14447,0.15924,0.28705,0.15924,0.43158
	c0,0.1582-0.07031,0.29688-0.21295,0.41797c-0.13959,0.12305-0.31433,0.18164-0.52234,0.18164
	c-0.39752,0-0.74915-0.28119-1.05475-0.8418l-1.01569,0.61328c0.23932,0.47461,0.52539,0.82422,0.86145,1.04492
	c0.33588,0.2207,0.73035,0.33197,1.18158,0.33197c0.5791,0,1.04974-0.16992,1.40918-0.5097
	c0.36029-0.3399,0.54102-0.76959,0.54102-1.29102c0-0.26758-0.05182-0.51367-0.1543-0.7403
	C49.16125,22.43355,48.98827,22.19527,48.74224,21.94918z M52.65142,20.22268c-0.69818,0-1.27643,0.23633-1.73834,0.70898
	c-0.46185,0.47461-0.6933,1.0683-0.6933,1.78711c0,0.6972,0.23242,1.2793,0.69635,1.74414
	c0.46277,0.46484,1.06335,0.69727,1.79877,0.69727c0.47559,0,0.88568-0.08398,1.23138-0.25201
	c0.3457-0.16791,0.6416-0.42767,0.88873-0.7793l-0.99219-0.4668c-0.31744,0.30859-0.69531,0.46289-1.13672,0.46289
	c-0.36719,0-0.66986-0.0976-0.9082-0.29688c-0.2373-0.19531-0.38281-0.46088-0.43848-0.79681h3.78607l0.00403-0.22461
	c0-0.77539-0.23053-1.40039-0.69446-1.875C53.9912,20.45901,53.39068,20.22268,52.65142,20.22268z M51.4121,22.10348
	c0.13287-0.29102,0.27539-0.49207,0.43359-0.60742c0.24609-0.18549,0.53418-0.27728,0.86328-0.27728
	c0.3028,0,0.56842,0.08203,0.79791,0.24799c0.22949,0.16211,0.38281,0.375,0.4599,0.63672H51.4121z M59.5664,20.8594
	c-0.2099-0.21094-0.4375-0.37109-0.68652-0.47662c-0.24707-0.10736-0.50964-0.1601-0.79285-0.1601
	c-0.61243,0-1.13293,0.23242-1.56061,0.6933c-0.42871,0.4649-0.64264,1.05859-0.64264,1.7832
	c0,0.69928,0.22174,1.28522,0.6651,1.75592c0.44232,0.46881,0.96771,0.70508,1.5722,0.70508
	c0.27051,0,0.52051-0.04877,0.75299-0.14459c0.23145-0.0976,0.46295-0.25391,0.69232-0.4726v0.49609h1.1778v-4.69531h-1.1778
	V20.8594z M59.25201,23.69527c-0.24323,0.25781-0.5498,0.38684-0.91992,0.38684c-0.3584,0-0.66119-0.13092-0.90729-0.39465
	c-0.24408-0.2597-0.36713-0.59369-0.36713-1c0-0.40228,0.12103-0.73438,0.3623-0.99017
	c0.24023-0.25781,0.54205-0.38672,0.90723-0.38672c0.37299,0,0.68158,0.12689,0.9248,0.37891
	c0.24323,0.25391,0.36621,0.58594,0.36621,0.99408C59.61822,23.09957,59.49523,23.43746,59.25201,23.69527z M61.80669,18.52926
	v6.50983h1.17773v-6.50983H61.80669z"/>
<path class="primary" d="M6.47558,0.2676L0.18358,16.63668h2.3028l1.79883-4.95111h6.85449l1.91107,4.95111h2.4707L8.81353,0.25777
	L6.47558,0.2676z M4.9121,10.12105l1.79791-4.87109c0.38281-1.0332,0.67578-2.14447,0.88477-3.19525
	C7.84869,2.94137,8.2354,4.11916,8.75689,5.49605l1.71094,4.625H4.9121z M17.12499,16.63668h2.086V4.90816h-2.086V16.63668z
	 M17.12499,2.56246h2.086V0.47658h-2.086V2.56246z M25.16698,4.93948c-0.39056,0.27148-0.74408,0.82422-1.26556,1.66791V4.90816
	h-1.5625v11.72851h1.82416v-6.17181c0-0.85156,0.06555-1.63275,0.28912-2.34766c0.15039-0.46875,0.35547-0.83795,0.70508-1.10352
	c0.35052-0.26373,0.74512-0.39453,1.18555-0.39453c0.49316,0,0.98438,0.14453,1.47748,0.43359l0.69629-1.8653
	c-0.70209-0.43158-1.38861-0.64838-2.06537-0.64838C25.98052,4.53908,25.55962,4.6719,25.16698,4.93948z M41.24419,1.08401
	c-1.21387-0.7226-2.5791-1.08405-4.09277-1.08405c-2.30963,0-4.19531,0.76764-5.65534,2.3067
	c-1.46088,1.54102-2.19037,3.66992-2.19037,6.39063c0,1.4375,0.3125,2.80469,0.93848,4.08978
	c0.62604,1.29102,1.5459,2.30859,2.76068,3.05469c1.2149,0.7442,2.5957,1.11536,4.1358,1.11536
	c1.42572,0,2.75189-0.33606,3.98145-1.00983c1.23047-0.67578,2.18066-1.66602,2.85059-2.97852
	c0.6709-1.31061,1.00488-2.79688,1.00488-4.461c0-1.63861-0.31738-3.10736-0.9541-4.40039
	C43.3858,2.81448,42.46001,1.80855,41.24419,1.08401z M41.16021,13.38277c-1.05469,1.14459-2.39844,1.7207-4.03033,1.7207
	c-1.6015,0-2.93256-0.5683-3.99609-1.70697c-1.06348-1.13281-1.5918-2.69141-1.5918-4.66602
	c0-2.4668,0.55182-4.22662,1.65924-5.28131c1.10547-1.05457,2.42767-1.58197,3.96185-1.58197
	c1.08215,0,2.0567,0.27539,2.92584,0.82227c0.86615,0.54694,1.52728,1.3183,1.97748,2.31439
	c0.4502,0.99219,0.6778,2.16022,0.6778,3.49219C42.74419,10.60348,42.2149,12.23238,41.16021,13.38277z M51.0371,14.95711
	c-0.29779,0-0.51752-0.04694-0.6767-0.14465c-0.16113-0.0976-0.25592-0.22845-0.32617-0.39258
	c-0.07031-0.16211-0.06641-0.5293-0.06641-1.10742V6.47268h2.08588V4.90816h-2.08588V0.66018l-1.82526,1.20703v3.04095h-1.5625
	v1.56451h1.5625v6.73041c0,1.20898-0.04688,2,0.11823,2.375c0.164,0.375,0.31641,0.6817,0.7207,0.91022
	c0.40131,0.23236,0.96777,0.34961,1.69922,0.34961c0.44629,0,0.95209-0.0625,1.52051-0.17975l-0.29102-1.77728
	C51.54498,14.93355,51.2608,14.95711,51.0371,14.95711z M58.6983,4.53908c-1.4707,0-2.7149,0.43939-3.73541,1.3183
	c-1.2226,1.06061-1.8349,2.6875-1.8349,4.88678c0,2.0058,0.51361,3.539,1.53711,4.60541
	c1.02631,1.06641,2.36719,1.59772,4.0332,1.59772c1.03418,0,1.9892-0.24017,2.8642-0.72662
	c0.87604-0.48236,1.54498-1.164,2.00201-2.04095c0.45697-0.87305,0.6875-2.07813,0.6875-3.60352
	c0-1.88483-0.51862-3.36523-1.55371-4.43359C61.6621,5.07229,60.32909,4.53908,58.6983,4.53908z M61.19048,14.15426
	c-0.66406,0.75781-1.49609,1.13873-2.49219,1.13873c-1.00879,0-1.8418-0.38092-2.50592-1.13483
	c-0.664-0.75775-0.99609-1.89447-0.99609-3.414c0-1.52148,0.33209-2.6543,0.99609-3.4082
	C56.8565,6.5801,57.68951,6.2051,58.6983,6.2051c0.99023,0,1.8183,0.37701,2.48529,1.13281
	c0.66699,0.75586,0.99811,1.87109,0.99811,3.33789C62.18169,12.23238,61.85448,13.3926,61.19048,14.15426z M76.32824,7.53127
	c-0.39655-0.95117-0.97766-1.6875-1.75305-2.20898c-0.77631-0.52338-1.66595-0.7832-2.67969-0.7832
	c-0.77631,0-1.42767,0.15039-1.97162,0.45313c-0.54401,0.30078-0.92865,0.75385-1.44928,1.35736V4.90816h-1.82611v20.07031h2.08594
	v-9.53119c0.2608,0.43359,0.72559,0.79297,1.25781,1.07812c0.53314,0.28125,1.08008,0.42188,1.75195,0.42188
	c0.91504,0,1.78809-0.25781,2.62012-0.77539c0.83099-0.51764,1.46393-1.26562,1.90039-2.23633
	c0.43652-0.97461,0.65332-2.06641,0.65332-3.2832C76.91802,9.52346,76.72167,8.48049,76.32824,7.53127z M73.9063,14.15816
	c-0.6377,0.75391-1.4043,1.13483-2.29883,1.13483c-0.87799,0-1.62695-0.36719-2.2442-1.09772
	c-0.62006-0.72852-0.92969-1.85541-0.92969-3.3847c0-1.5274,0.3291-2.69336,0.98834-3.4942
	c0.66016-0.80078,1.41797-1.20111,2.27539-1.20111c0.86517,0,1.6084,0.37695,2.23138,1.12891
	c0.62109,0.75189,0.9317,1.88672,0.9317,3.39844C74.8604,12.23049,74.54302,13.40041,73.9063,14.15816z M76.91802,21.97268h1.1377
	v3.0058h0.71289v-3.0058h1.15228v-0.5957h-3.00287V21.97268z M84.24523,21.37697h-1.02936l-0.62207,1.78711
	c-0.08112,0.25-0.15918,0.56641-0.25488,0.88672h-0.00983c-0.09271-0.37109-0.14642-0.63672-0.2373-0.91211l-0.62201-1.76172
	H80.3955l-0.26361,3.6015h0.6875l0.13281-2.11707c0.01172-0.33405,0.02637-0.67584,0.02637-1.00592h0.04102
	c0.07709,0.31439,0.18164,0.75391,0.25,1.01758l0.64844,2.05084h0.74121l0.64844-1.99615
	c0.09186-0.33008,0.21094-0.75787,0.30463-1.07227h0.04108c0.0097,0.38281,0.0097,0.72662,0.02441,1.00592l0.12988,2.11707h0.71686
	L84.24523,21.37697z"/>
</svg>
