<svg xmlns="http://www.w3.org/2000/svg" viewBox="0 0 250 250"><path d="M140.9 51.7l0-4.1c-5.2-0.9-10.5-1.3-15.9-1.3 -4.5 0-9 0.3-13.3 0.9v4C116 50.6 120.5 50.3 125 50.3 130.4 50.3 135.7 50.8 140.9 51.7zM125 62.4c-43.9 0-79.4 35.5-79.4 79.4 0 43.9 35.5 79.4 79.4 79.4 43.9 0 79.4-35.5 79.4-79.4C204.4 98 168.9 62.4 125 62.4zM125 195.8c-29.7 0-54-24.2-54-54 0-29.7 24.2-54 54-54h0c29.7 0 54 24.2 54 54C179 171.6 154.7 195.8 125 195.8zM154.1 50.6V17.6c0-2.8-2.3-5.1-5.1-5.1h-45.4c-2.8 0-5.1 2.3-5.1 5.1v32.2c-40 11.5-69.2 48.3-69.2 92C29.3 194.7 72.2 237.5 125 237.5s95.7-42.8 95.7-95.7C220.7 99.1 192.7 62.9 154.1 50.6zM125 229.4c-48.3 0-87.5-39.3-87.5-87.5 0-19.4 6.2-37.7 17.9-53.1C66.8 73.8 82.9 62.8 100.8 57.7c3.5-1 5.9-4.2 5.9-7.8V20.6h39.2v30c0 3.5 2.3 6.7 5.7 7.8 17.3 5.5 32.8 16.6 43.7 31.3 11.3 15.2 17.2 33.2 17.2 52.1C212.5 190.1 173.3 229.4 125 229.4z"/></svg>
