<?xml version="1.0" encoding="utf-8"?>
<svg version="1.1" xmlns="http://www.w3.org/2000/svg" xmlns:xlink="http://www.w3.org/1999/xlink" x="0px" y="0px"
	 viewBox="0 0 150.0137 25.1988" style="enable-background:new 0 0 150.0137 25.1988;" xml:space="preserve">
<path class="secondary" d="M32.16308,2.52836l-5.29199,6.88574l-1.7724-6.88574h-7.06445l2.55756,9.82813L12.6397,22.70268h3.53223
	l5.29095-6.88818l1.77155,6.88818h7.06537l-2.5556-9.8443L35.6953,2.52836H32.16308z M112.33599-0.00002l-6.76959,25.19879h2.53229
	l6.75684-25.19879H112.33599z"/>
<path class="primary" d="M4.79009,7.03618c-0.82721,0.38379-1.3233,0.89648-1.49316,1.53613L0.04497,20.67729
	c-0.0293,0.11719-0.04498,0.2558-0.04498,0.41412c0,0.52338,0.29303,0.93158,0.87311,1.2265
	c0.49219,0.25586,1.05078,0.38477,1.67188,0.38477h9.07422l0.76758-2.82422H6.12109c-0.43359,0-0.65228-0.16205-0.65228-0.48639
	v-0.11908l0.8877-3.23682h7.06348l0.7558-2.82129H7.11138L7.9688,9.99217c0.10742-0.40619,0.42767-0.60736,0.96088-0.60736h6.25201
	l0.75293-2.82135H6.85839C6.16021,6.56346,5.4688,6.71977,4.79009,7.03618z M41.01757,9.99217
	c0.10742-0.40619,0.42773-0.60736,0.95905-0.60736h2.21869l0.76569-2.82135h-3.0293l1.08008-4.0351l-8.14453,4.0351h-0.50195
	l-0.75391,2.82135h1.71484c0.45306,0,0.67969,0.15717,0.67969,0.47455c0-0.01068-0.00983,0.03424-0.0293,0.13281l-2.71973,10.18512
	l-0.16119,0.5c-0.03119,0.11719-0.04492,0.2558-0.04492,0.41412c0,0.52338,0.29492,0.93158,0.8858,1.2265
	c0.4931,0.25586,1.0459,0.38477,1.65521,0.38477h5.05573l0.75287-2.82422h-2.2168c-0.4433,0-0.66498-0.16205-0.66498-0.48639
	v-0.11908L41.01757,9.99217z M60.2149,11.30668c0.0976-0.35449,0.14838-0.7002,0.14838-1.03418c0-1.37012-0.8183-2.37012-2.45404-3
	c-1.23053-0.47272-2.73535-0.70905-4.50684-0.70905h-7.06641l-4.31451,16.13922h5.66119l1.47754-5.52789l3.16211,5.52789h6.35547
	l-4.09381-7.06403C57.72662,14.98729,59.60363,13.54301,60.2149,11.30668z M54.55468,11.30668
	c-0.14838,0.58197-0.54291,1.05957-1.18256,1.43457c-0.55084,0.31445-1.12793,0.47363-1.73053,0.47363H50.2246l1.00592-3.83008
	h1.41699c0.51172,0,0.97168,0.13275,1.37598,0.40039c0.39349,0.26556,0.59082,0.62988,0.59082,1.09467
	C54.61431,11.05668,54.5938,11.19829,54.55468,11.30668z M66.14257,16.03618h7.06451l0.75391-2.82129h-7.06451l0.85651-3.22272
	c0.10931-0.40619,0.42871-0.60736,0.96191-0.60736h6.25189l0.75299-2.82135h-9.0733c-0.70117,0-1.39056,0.15631-2.07129,0.47272
	c-0.82806,0.38379-1.32709,0.89648-1.4931,1.53613l-3.25,12.10498c-0.03131,0.11719-0.04401,0.2558-0.04401,0.41412
	c0,0.52338,0.28912,0.93158,0.87012,1.2265c0.4942,0.25586,1.04889,0.38477,1.67004,0.38477h9.07605l0.7666-2.82422H65.9063
	c-0.43359,0-0.65039-0.16205-0.65039-0.48639v-0.11908L66.14257,16.03618z M93.26269,8.60356
	c0-0.6026-0.18646-1.09766-0.56146-1.48639c-0.375-0.38861-0.88574-0.5849-1.53711-0.5849
	c-1.08203,0-2.05859,0.58099-2.92584,1.74512l-4.46289,5.96973l-1.2851-5.96973c-0.24805-1.16412-0.92389-1.74512-2.02441-1.74512
	c-0.75098,0-1.4649,0.28223-2.14459,0.8418c-0.6806,0.57129-1.11328,1.23242-1.3017,1.98242l-3.58887,13.34619h3.2334
	l1.68549-6.28082l1.10938,4.25543c0.35553,1.34961,1.03522,2.02539,2.03912,2.02539c0.98438,0,2.01947-0.67578,3.10352-2.02539
	l3.42969-4.25543l-1.68359,6.28082h3.23627l3.57623-13.34619C93.22857,9.12016,93.26269,8.86717,93.26269,8.60356z
	 M96.87109,7.03618c-0.82806,0.38379-1.32611,0.89648-1.4931,1.53613l-3.25391,12.10498
	c-0.02838,0.11719-0.04401,0.2558-0.04401,0.41412c0,0.52338,0.29303,0.93158,0.87402,1.2265
	c0.49121,0.25586,1.04889,0.38477,1.66901,0.38477h9.0752l0.76849-2.82422h-6.26752c-0.43457,0-0.65039-0.16205-0.65039-0.48639
	v-0.11908l0.8877-3.23682h7.06439l0.75494-2.82129h-7.06641l0.85938-3.22272c0.10541-0.40619,0.42773-0.60736,0.95892-0.60736
	h6.25201l0.75391-2.82135h-9.07526C98.23827,6.56346,97.54888,6.71977,96.87109,7.03618z M111.2832,22.70268h5.14648l2.12604-7.7818
	h7.02051l1.20508-4.32813h-7.05273l1.07611-3.90527h7.44921l1.23834-4.38959h-12.68365L111.2832,22.70268z M144.23338,2.2979
	l-4.41107,8.35547c-1.14063,2.08789-2.4668,4.5722-3.50201,6.87305h-0.06152c0.02051-2.45313,0.06152-4.78516,0.03033-6.99323
	l0.01068-8.23529h-5.32611l0.8642,20.40479h6.05469L150.01372,2.2979H144.23338z M148.59569,20.94627v-0.021
	c0.21777-0.06592,0.37018-0.21869,0.37018-0.41449c0-0.1748-0.07617-0.31641-0.17389-0.39362
	c-0.13074-0.07568-0.2832-0.1308-0.62109-0.1308c-0.29492,0-0.52441,0.0224-0.6875,0.05511v1.78857h0.41412v-0.71918h0.19727
	c0.22852,0,0.33789,0.08588,0.37109,0.2832c0.05371,0.20697,0.08594,0.37109,0.14063,0.43597h0.4472
	c-0.04291-0.06488-0.07611-0.1748-0.1308-0.44769C148.86821,21.14256,148.77049,21.01176,148.59569,20.94627z M148.10448,20.81547
	h-0.19525v-0.5127c0.04297-0.0108,0.11914-0.021,0.22845-0.021c0.26178,0,0.3819,0.1084,0.3819,0.2724
	C148.51958,20.73979,148.33397,20.81547,148.10448,20.81547z M148.18071,19.10307c-1.02539,0-1.84283,0.79681-1.84283,1.789
	c0,1.01471,0.81744,1.81061,1.84283,1.81061c1.03711,0,1.83301-0.7959,1.83301-1.81061
	C150.01372,19.89989,149.21782,19.10307,148.18071,19.10307z M148.19237,22.32127c-0.80658,0-1.39648-0.63281-1.39648-1.4292
	c0-0.7851,0.5899-1.4292,1.38483-1.4292c0.79688,0,1.375,0.6441,1.375,1.44
	C149.55571,21.68846,148.97758,22.32127,148.19237,22.32127z"/>
</svg>
