<?xml version="1.0" encoding="utf-8"?>
<svg version="1.1" xmlns="http://www.w3.org/2000/svg" xmlns:xlink="http://www.w3.org/1999/xlink" x="0px" y="0px"
	 viewBox="0 0 229.14549 22.6836" style="enable-background:new 0 0 229.14549 22.6836;" xml:space="preserve">
<path class="secondary" d="M165.36723,10.76559v-0.05658c2.41986-0.84973,3.56836-2.45123,3.56836-4.53912
	c0-2.8125-2.53912-4.99219-6.89648-4.99219c-2.72272,0-5.23242,0.69531-6.47461,1.48236l1.03119,3.9024
	c0.78522-0.42389,2.54108-1.1192,4.17389-1.1192c1.7265,0,2.66211,0.66602,2.66211,1.66412c0,1.36127-1.72461,1.78509-3.086,1.78509
	h-1.9375v3.87311h2.0274c1.81641,0,3.48242,0.75189,3.48242,2.35547c0,1.39453-1.27344,2.08984-3.20905,2.08984
	c-1.87689,0-3.84174-0.75592-4.6601-1.18164l-1.02539,4.08594c1.20703,0.75586,3.4472,1.39056,6.13861,1.39056
	c5.11139,0,8.41022-2.44916,8.41022-6.04877C169.57231,12.91598,167.6953,11.16006,165.36723,10.76559z M187.99419,2.97458
	c-2.0274-1.38867-4.47662-2.02539-8.37891-2.02539c-2.42188,0-4.75,0.1543-6.50592,0.42383v19.99805
	c1.05865,0.18164,2.8125,0.36133,5.44531,0.36133c3.9942,0,7.32233-0.78522,9.55859-2.54102
	c1.99811-1.54102,3.57031-4.23438,3.57031-8.37891C191.68358,7.06247,190.23247,4.5195,187.99419,2.97458z M179.73436,17.46866
	c-0.36127,0-0.87689,0-1.14838-0.06049V5.24606c0.27148-0.06055,0.78711-0.1192,1.664-0.1192c3.26758,0,5.62701,1.875,5.62701,5.836
	C185.877,15.56051,183.27348,17.52731,179.73436,17.46866z M199.53709,18.98819h4.10748v-5.80853h5.375v-3.3125h-5.375V7.03317
	h5.71478v-3.336h-9.82227V18.98819z M221.11137,3.69717l-1.6543,6.08014c-0.45709,1.63477-0.88477,3.40234-1.27148,5.2832h-0.04688
	c-0.36133-1.97266-0.76953-3.64844-1.26764-5.3515l-1.61328-6.01184h-4.48822l4.8515,15.29102h4.83215l5.01556-15.29102H221.11137z"
	/>
<path class="primary" d="M227.72661,17.2319v-0.021c0.21967-0.06641,0.37109-0.21875,0.37109-0.41455
	c0-0.17474-0.07721-0.31647-0.1748-0.39355c-0.12988-0.07574-0.28418-0.13092-0.62012-0.13092
	c-0.29498,0-0.52441,0.02252-0.68848,0.05518v1.78864h0.41498v-0.71918h0.19629c0.22766,0,0.33893,0.08588,0.37109,0.28314
	c0.0528,0.20703,0.08691,0.37103,0.14063,0.43604h0.44733c-0.04303-0.065-0.07623-0.1748-0.12994-0.44781
	C227.99907,17.42819,227.90141,17.29727,227.72661,17.2319z M227.23637,17.10098h-0.19629v-0.5127
	c0.04291-0.01068,0.11914-0.02087,0.22852-0.02087c0.26166,0,0.38086,0.10828,0.38086,0.2724
	C227.64946,17.02536,227.46391,17.10098,227.23637,17.10098z M227.31248,15.38858c-1.02441,0-1.84369,0.79694-1.84369,1.78912
	c0,1.01471,0.81927,1.81049,1.84369,1.81049c1.03619,0,1.83301-0.79578,1.83301-1.81049
	C229.14549,16.18551,228.34868,15.38858,227.31248,15.38858z M227.32329,18.6069c-0.80762,0-1.39551-0.63281-1.39551-1.4292
	c0-0.78522,0.58789-1.4292,1.3847-1.4292c0.7959,0,1.375,0.64398,1.375,1.43988
	C228.68748,17.97409,228.10838,18.6069,227.32329,18.6069z M30.71782,11.0527c-0.2041-0.32184-0.2041-0.73242,0-1.05469
	l5.3067-8.3764c0.19226-0.30383,0.20496-0.68805,0.03119-1.00305c-0.17291-0.31439-0.50391-0.51019-0.86334-0.51019h-5.78809
	c-0.33881,0-0.65326,0.17383-0.83398,0.4599l-2.2431,3.55859l-2.25293-3.56c-0.18066-0.28571-0.49518-0.4585-0.83307-0.4585h-7.5517
	c-0.35944,0-0.69043,0.1958-0.86432,0.51074c-0.17279,0.315-0.16107,0.69867,0.03131,1.0025l5.7207,9.02289
	c0.2041,0.32178,0.2041,0.73291,0,1.05518l-5.93463,9.3681c-0.19238,0.30383-0.20404,0.68799-0.03027,1.00299
	c0.17291,0.31439,0.50391,0.51019,0.86328,0.51019h5.82812c0.33789,0,0.6524-0.17279,0.83307-0.4585l2.85052-4.50531
	l2.86041,4.50635c0.18066,0.28516,0.49408,0.45746,0.83197,0.45746h7.54492c0.35938,0,0.68951-0.19525,0.86328-0.51019
	c0.17291-0.315,0.16119-0.69879-0.03021-1.0025L30.71782,11.0527z M2.1328,12.05661h6.625v-1.9082h-6.625V5.31827h11.23047V3.41208
	H-0.00001v15.85944h13.45325v-1.90833H2.1328V12.05661z M36.91021,5.31827h6.44342v13.95325h2.13275V5.31827h6.4433V3.41208
	H36.91021V5.31827z M62.7207,12.82809h0.84961c1.63293,0,2.75977-0.26953,3.37897-0.8125
	c0.51361-0.45123,0.76953-1.12109,0.76953-2.00983v-2.5293c0-1.42767-0.17188-2.42377-0.52148-2.97845
	c-0.45123-0.72266-1.35944-1.08594-2.7168-1.08594H53.35943v15.85944h2.13281v-6.44342h3.47064l6.37311,6.44342l2.93359-0.00592
	l-6.375-6.44141C62.16613,12.82809,62.4414,12.82809,62.7207,12.82809z M55.49224,10.92178V5.31827h8.11133
	c0.98822,0,1.5957,0.17194,1.8222,0.52155c0.15247,0.24017,0.22852,0.88867,0.22852,1.94336v1.39844
	c0,0.60345-0.10541,1.02539-0.3183,1.26758c-0.27148,0.31439-0.7832,0.4726-1.54102,0.4726H55.49224z M77.04302,3.41208
	l-8.11914,15.85541l2.31439,0.00403l2.12115-4.03912h8.82227l2.11523,4.04102l2.3418-0.00592L78.54107,3.41208H77.04302z
	 M74.31249,13.32608l3.45319-6.89447l3.4668,6.89447H74.31249z M100.31841,3.41208H90.17968
	c-0.77338,0-1.32025,0.12891-1.64447,0.38672c-0.32813,0.25586-0.49023,0.76367-0.49023,1.51556v12.07422
	c0,0.75793,0.17383,1.27148,0.52142,1.53912c0.28717,0.23047,0.82428,0.34381,1.61328,0.34381h10.18561
	c0.69531,0,1.22461-0.1485,1.58594-0.44342c0.36517-0.29303,0.54688-0.7832,0.54688-1.4649v-3.08203l-2.13281-0.5918v3.67383
	H90.17968V5.31827h10.18561v3.62891l2.13281-0.42767V6.31827c0-1.17969-0.07813-1.91595-0.22662-2.20306
	C102.01373,3.64651,101.36327,3.41208,100.31841,3.41208z M103.9707,5.31827h6.44141v13.95325h2.13483V5.31827h6.44135V3.41208
	H103.9707V5.31827z M134.00591,3.41208h-11.45513c-0.77148,0-1.3183,0.12891-1.64648,0.38672
	c-0.3222,0.25586-0.48431,0.76367-0.48431,1.51556v12.0528c0,0.75781,0.16211,1.26172,0.48431,1.51953
	c0.32819,0.2558,0.875,0.38483,1.64648,0.38483h11.4356c0.67969,0,1.20502-0.1485,1.5722-0.44153
	c0.37109-0.29492,0.55865-0.7832,0.55865-1.46283V5.31436c0-0.76947-0.15625-1.27728-0.46484-1.52728
	C135.34178,3.53506,134.79301,3.41208,134.00591,3.41208z M133.98637,17.36319h-11.4356V5.31827h11.4356V17.36319z
	 M147.79301,12.82809h0.84766c1.6347,0,2.7597-0.26953,3.37891-0.8125c0.51361-0.45123,0.76953-1.12109,0.76953-2.00983v-2.5293
	c0-1.42767-0.17188-2.42377-0.51764-2.97845c-0.45508-0.72266-1.36127-1.08594-2.7207-1.08594h-11.12109v15.85944h2.13281v-6.44342
	h3.47272l6.37299,6.44342l2.9317-0.00592l-6.375-6.44141C147.23827,12.82809,147.51176,12.82809,147.79301,12.82809z
	 M140.56248,10.92178V5.31827h8.11139c0.98822,0,1.5957,0.17194,1.82611,0.52155c0.15039,0.24017,0.22662,0.88867,0.22662,1.94336
	v1.39844c0,0.60345-0.10553,1.02539-0.31842,1.26758c-0.27142,0.31439-0.7851,0.4726-1.54095,0.4726H140.56248z M194.6602,22.68356
	h1.52148V-0.00003h-1.52148V22.68356z"/>
</svg>
