<svg xmlns="http://www.w3.org/2000/svg" viewBox="0 0 250 250"><path d="M38.5 232.9V122c0-11 5.8-9 13.7-21.9 7.5-12.2 13-9 13-9s33.5 30.9 146.3 30.9V232.9c0 2.8 2.2 5 5 5s5-2.2 5-5V121.9c0-20.9-20.4-21.1-25.1-48.4L99 78.6c-0.2 0-0.5 0-0.7 0 -2.7 0-7.9-0.6-12.8-1.7 -8.2-1.9-11.9-4.3-12.1-7.9 -0.5-8.9 24.2-12.2 24.5-12.2l97.4-5.1v-38.7H54.7V29.4l95.4-5c0 0 0 0 0 0 0.7 0 25.1 0.8 25.6 9.6 0.5 8.9-24.2 12.2-24.5 12.2L54.7 51.3v9.7c0 40.1-26.2 37.1-26.2 60.8V232.9c0 2.8 2.2 5 5 5S38.5 235.7 38.5 232.9z"/></svg>
