<?xml version="1.0" encoding="utf-8"?>
<svg version="1.1" xmlns="http://www.w3.org/2000/svg" xmlns:xlink="http://www.w3.org/1999/xlink" x="0px" y="0px"
	 viewBox="0 0 191.8477 25.2002" style="enable-background:new 0 0 191.8477 25.2002;" xml:space="preserve">
<path class="secondary" d="M1.08398,1.91698h-1.08398v16.98444h6.125v-0.9317H1.08398V1.91698z M11.16021,6.60246
	c-1.89063,0-3.67969,1.79102-3.67969,6.25104c0,4.46088,1.78906,6.25201,3.50391,6.25201c1.86328,0,3.65234-1.79114,3.65234-6.25201
	C14.63677,8.39348,12.8731,6.60246,11.16021,6.60246z M11.08398,18.14549c-2.09174,0-2.4707-3.32623-2.4707-5.29199
	c0-1.96582,0.37897-5.29199,2.41992-5.29199c2.0918,0,2.4707,3.32617,2.4707,5.29199
	C13.5039,14.81926,13.12499,18.14549,11.08398,18.14549z M26.5274,13.10551c-0.32813,1.43549-0.62988,2.6709-0.80762,4.03015
	h-0.10059c-0.25098-1.4599-0.55469-2.79486-0.88092-4.1308l-1.51166-6.1983h-0.85742l-1.58789,6.40045
	c-0.30267,1.15717-0.62891,2.61914-0.83203,3.92865H19.8496c-0.17767-1.30951-0.50391-2.69427-0.80658-3.98041l-1.48834-6.34869
	h-1.08301l2.95026,12.09485h0.9043l1.68945-6.80286c0.27734-1.1601,0.50391-2.1933,0.73041-3.65527h0.05182
	c0.22559,1.38483,0.37787,2.31842,0.7041,3.55383l1.71478,6.9043h0.83112l2.99902-12.09485h-1.10944L26.5274,13.10551z
	 M37.30181,10.46086h4.4873V9.50188h-4.4873V2.87498h4.81543V1.91698H36.2188v16.98444h6.22461V17.9453h-5.1416V10.46086z
	 M47.7813,14.46678c-0.17578,0.7793-0.4024,1.8125-0.5293,2.66888h-0.07623c-0.15039-0.9306-0.37787-2.01355-0.55469-2.66888
	l-1.91602-7.66022h-1.08398l3.07623,12.09485h0.9082l3.12311-12.09485h-1.10944L47.7813,14.46678z M58.38482,10.46086
	c0-2.89935-1.31055-3.8584-2.94824-3.8584c-0.90527,0-1.83887,0.35553-2.24219,0.70612l0.30371,0.83301
	c0.4765-0.35352,1.10938-0.58008,1.71191-0.58008c1.76459,0,2.09076,1.38477,2.09076,3.45215v0.45313
	c-2.74609,0.02631-4.93939,1.38672-4.93939,4.30963c0,2.06634,1.18555,3.3291,2.67383,3.3291
	c1.0332,0,1.8125-0.6084,2.26556-1.53912h0.07623l0.10162,1.33502h1.00775c-0.10156-0.75592-0.10156-1.83893-0.10156-2.72083
	V10.46086z M57.30077,15.07127c0,0.22852,0,0.50293-0.04877,0.78119c-0.22748,1.46191-1.0332,2.29303-2.06641,2.29303
	c-0.8067,0-1.6875-0.62793-1.6875-2.44433c0-3.22559,2.87109-3.30078,3.80267-3.30078V15.07127z M65.56249,6.60246
	c-0.83197,0-1.81439,0.32813-2.5722,1.81555h-0.04688l-0.05182-1.61145h-1.03412c0.02533,0.6543,0.1015,1.61145,0.1015,3.72852
	v13.2041h1.08405v-6.17279h0.05078c0.32617,0.75391,0.95697,1.53912,2.19141,1.53912c1.78906,0,3.62891-1.69055,3.62891-6.29993
	C68.91412,8.41801,67.32623,6.60246,65.56249,6.60246z M65.3106,18.14549c-0.63092,0-1.76367-0.37793-2.2168-2.72168
	c-0.05078-0.32813-0.05078-0.65533-0.05078-0.98242v-3.00098c0-0.32623,0-0.62891,0.02539-0.95514
	c0.10156-1.43842,1.08301-2.92377,2.19141-2.92377c1.89056,0,2.52148,2.64648,2.52148,5.29199
	C67.7813,15.62596,67.20123,18.14549,65.3106,18.14549z"/>
<path class="primary" d="M72.58788,25.20018h1.68854v-25.2002h-1.68854V25.20018z M78.6328,18.90141h4.56158V12.4492h5.97168V8.77147
	h-5.97168V5.62212H89.544V1.91698H78.6328V18.90141z M94.67681,0.93358c-1.40924,0-2.31842,0.9082-2.31842,2.1416
	c0,1.2099,0.8819,2.16699,2.29401,2.16699c1.43549,0,2.34369-0.95709,2.34369-2.16699
	C96.9707,1.84178,96.08788,0.93358,94.67681,0.93358z M92.41021,18.90141h4.5351V6.50389h-4.5351V18.90141z M100.39458,18.90141
	h4.53412V1.00877h-4.53412V18.90141z M113.34179,2.97557l-4.43549,1.18451v2.34381h-1.53711v3.32422h1.53711v4.33685
	c0,1.88971,0.4043,3.12311,1.1582,3.87994c0.65619,0.65527,1.76459,1.13379,3.09961,1.13379
	c1.16016,0,2.16986-0.17578,2.69818-0.35162v-3.45496c-0.37787,0.10144-0.55371,0.10144-1.0849,0.10144
	c-1.08209,0-1.43561-0.60248-1.43561-2.09076V9.82811h2.57031V6.50389h-2.57031V2.97557z M124.32427,6.22557
	c-4.5625,0-6.42676,3.70313-6.42676,6.60352c0,3.93262,2.47168,6.34961,6.8291,6.34961c1.53711,0,3.15137-0.20123,4.63665-0.80573
	l-0.58008-3.02441c-1.10741,0.3526-2.21679,0.4776-3.4013,0.4776c-1.58789,0-3.02246-0.55377-3.17389-1.53516h7.65923
	c0.07617-0.30273,0.17773-0.96002,0.17773-1.71484C130.04497,9.17479,128.33006,6.22557,124.32427,6.22557z M122.1563,11.21678
	c0.07617-0.78217,0.60547-2.01758,1.94037-2.01758c1.43756,0,1.76563,1.30957,1.76563,2.01758H122.1563z M136.76567,8.7451h-0.10156
	l-0.15039-2.24121h-3.88092c0.04889,1.03418,0.10059,2.21777,0.10059,4.18158v8.21594h4.53619V12.7783
	c0-0.30273,0.02344-0.55371,0.0752-0.78119c0.2265-1.00793,1.13379-1.5625,2.46973-1.5625c0.47852,0,0.83099,0.05066,1.1582,0.12396
	V6.30077c-0.32721-0.0752-0.50201-0.0752-0.90631-0.0752C139.00877,6.22557,137.41997,6.85551,136.76567,8.7451z M156.71678,8.66991
	c-0.50391,1.81537-0.98431,3.7793-1.41211,5.87109h-0.05078c-0.40228-2.19141-0.85742-4.05573-1.41211-5.94629l-1.789-6.67773
	h-4.98828l5.39258,16.98444h5.36914l5.56836-16.98444h-4.83789L156.71678,8.66991z M167.16411,0.93358
	c-1.41022,0-2.31842,0.9082-2.31842,2.1416c0,1.2099,0.88287,2.16699,2.29303,2.16699c1.4375,0,2.34467-0.95709,2.34467-2.16699
	C169.45708,1.84178,168.57622,0.93358,167.16411,0.93358z M164.89647,18.90141h4.53619V6.50389h-4.53619V18.90141z
	 M183.89256,11.69426c0-3.09955-1.48627-5.46869-5.74609-5.46869c-2.57025,0-4.33398,0.70502-5.1416,1.10645l0.80762,2.90039
	c0.8067-0.47754,2.19342-0.93073,3.50299-0.93073c1.63776,0,2.0166,0.55182,2.0166,1.05768v0.1015
	c-4.20898,0.02441-7.18359,1.48633-7.18359,4.81152c0,2.06738,1.56348,3.90631,4.08398,3.90631
	c1.33392,0,2.57031-0.37891,3.45313-1.36133h0.07422l0.25,1.08405h4.08496c-0.1524-0.62903-0.20221-1.78912-0.20221-3.02252
	V11.69426z M179.48247,14.24016c0,0.22662,0,0.45221-0.05078,0.65436c-0.20117,0.67969-0.90723,1.13574-1.5625,1.13574
	c-0.75391,0-1.2832-0.4043-1.2832-1.18555c0-1.08502,1.05658-1.6142,2.89648-1.6142V14.24016z M187.31248,1.00877v17.89264h4.53522
	V1.00877H187.31248z"/>
</svg>
