<?xml version="1.0" encoding="utf-8"?>
<svg version="1.1" xmlns="http://www.w3.org/2000/svg" xmlns:xlink="http://www.w3.org/1999/xlink" x="0px" y="0px"
	 viewBox="0 0 219.8916 25.2021" style="enable-background:new 0 0 219.8916 25.2021;" xml:space="preserve">
<path class="secondary" d="M25.8399,19.9297L21.4043,7.789c-0.0058-0.0195-0.0117-0.042-0.0117-0.0654V2.3457h-5.9971v5.3779
	c0,0.0234-0.0019,0.041-0.0117,0.0615l-2.167,6.085l-2.22358,6.0849l-0.09772,0.1914v0.5147l0.1446,0.4228l0.2812,0.376
	l0.42292,0.2832l0.44328,0.0987l0.1211-0.0059h12.5039l0.42-0.1855l0.3789-0.334l0.2324-0.4229l0.0976-0.4687L25.8399,19.9297z"/>
<path class="primary" d="M212.83397,17.29977h1.05084v3.04199h0.66888v-3.04199h1.06653v-0.55756h-2.78625V17.29977z M219.6787,16.74221
	h-0.87793l-0.50775,1.44714c-0.1416,0.41803-0.26563,0.86041-0.36334,1.25104h-0.01758
	c-0.09369-0.40381-0.20801-0.82471-0.33978-1.24854l-0.48053-1.44965h-0.88568l-0.24713,3.59955h0.625l0.086-1.44965
	c0.02142-0.48492,0.04779-1.05914,0.06342-1.52692h0.01959c0.09369,0.44818,0.21973,0.94379,0.36523,1.39496l0.49506,1.53711
	h0.51172l0.5459-1.55505c0.15918-0.45715,0.31842-0.93951,0.42871-1.37701h0.01569c0,0.48578,0.02539,1.0459,0.0517,1.51117
	l0.06842,1.46539h0.65619L219.6787,16.74221z M18.42193,0.00289c-10.17383,0-18.42194,5.63867-18.42194,12.59961
	c0,6.96185,8.24811,12.59961,18.42194,12.59961c10.16986,0,18.41797-5.63776,18.41797-12.59961
	C36.8399,5.64157,28.59179,0.00289,18.42193,0.00289z M18.18267,24.49606c-7.51178,0-12.36816-5.31738-12.36816-11.89355
	c0-6.7334,5.0127-11.89362,12.68359-11.89362c7.66992,0,12.36517,5.16022,12.52441,11.89362
	C31.02251,19.17867,26.16802,24.49606,18.18267,24.49606z M66.61327,2.84176c-1.68939,0-3.06537,0.93842-3.06537,2.09473
	c0,1.1582,1.37598,2.0957,3.06537,2.0957c1.69733,0,3.07031-0.9375,3.07031-2.0957
	C69.68359,3.78018,68.3106,2.84176,66.61327,2.84176z M66.58398,6.6318c-1.07318,0-1.76166-0.75879-1.76166-1.69531
	c0-0.96393,0.70898-1.69531,1.80658-1.69531c1.0918,0,1.7627,0.73138,1.78131,1.69531
	C68.41021,5.87301,67.7207,6.6318,66.58398,6.6318z M48.6162,7.99307c-1.64642,0-2.99512,0.6123-3.90521,1.79102h-0.04688
	l-0.2002-1.51849h-3.80469c0.04688,1.12598,0.10059,2.50287,0.10059,4.09467v12.84082h4.41498v-5.74701h0.0498
	c0.44629,0.62012,1.49811,1.16113,2.87598,1.16113c2.625,0,5.49811-2.04199,5.49811-6.45703
	C53.59869,10.2275,51.14257,7.99307,48.6162,7.99307z M46.96978,17.24697c-0.88477,0-1.54688-0.65912-1.71875-1.45209
	c-0.04694-0.21881-0.07623-0.45898-0.07623-0.72852v-1.50098c0-0.19531,0-0.3916,0.0498-0.56543
	c0.1485-0.85547,0.91022-1.57227,1.79498-1.57227c1.3974,0,2.08594,1.23047,2.08594,2.92676
	C49.10552,16.0986,48.29498,17.24697,46.96978,17.24697z M60.20507,4.82711l-4.3183,1.1543v2.28418h-1.50299v3.23828h1.50299
	v4.22363c0,1.84277,0.39063,3.0459,1.12793,3.78131c0.63959,0.63959,1.7207,1.10638,3.01563,1.10638
	c1.13477,0,2.11517-0.17383,2.63092-0.35059v-3.36334c-0.36725,0.10449-0.53912,0.10449-1.05573,0.10449
	c-1.05573,0-1.40045-0.58978-1.40045-2.04388v-3.45801h2.50494V8.26559h-2.50494V4.82711z M64.40429,20.34176h4.41901V8.26559
	h-4.41901V20.34176z M85.76269,7.99307c-0.80762,0-1.5166,0.17194-2.12988,0.49322
	c-0.63568,0.31537-1.18353,0.80658-1.67078,1.42578H81.9121c-0.51361-1.20709-1.7207-1.91901-3.26752-1.91901
	c-2.06158,0-3.11816,1.17584-3.55469,1.76862h-0.10352l-0.1709-1.49609h-3.7041c0.04492,1.10638,0.0957,2.50287,0.0957,4.09467
	v7.98151h4.29681v-6.92188c0-0.29492,0-0.6123,0.12311-0.87988c0.17188-0.41992,0.54102-1.0127,1.35059-1.0127
	c0.98242,0,1.40131,0.88477,1.40131,2.23438v6.58008h4.29498v-6.90137c0-0.24121,0.02344-0.63281,0.12402-0.87793
	c0.19922-0.56445,0.63177-1.03516,1.34857-1.03516c0.9834,0,1.42383,0.86035,1.42383,2.35938v6.45508h4.29889v-7.1192
	C89.86919,9.88571,88.3731,7.99307,85.76269,7.99307z M104.1358,8.26559h-4.41901v7.11908c0,0.23932-0.0293,0.4668-0.12787,0.63873
	c-0.16803,0.45996-0.58691,1.03131-1.42383,1.03131c-1.02441,0-1.54297-0.836-1.54297-2.38483v-6.4043h-4.41705v7.11719
	c0,3.48633,1.56744,5.23242,4.26563,5.23242c2.16412,0,3.2168-1.20313,3.66022-1.86523h0.10156l0.19623,1.5918h3.80377
	c-0.0498-1.0274-0.09668-2.39948-0.09668-4.12305V8.26559z M121.10058,7.9902c-0.81049,0-1.5166,0.1748-2.13568,0.49316
	c-0.63867,0.3183-1.17383,0.80951-1.66992,1.42871h-0.04785c-0.5166-1.20709-1.71783-1.92187-3.2666-1.92187
	c-2.0625,0-3.12109,1.17871-3.56152,1.77051h-0.09668l-0.17194-1.49512h-3.70599c0.04785,1.10638,0.0976,2.50287,0.0976,4.09467
	v7.98151h4.29694v-6.92188c0-0.29492,0-0.6123,0.12396-0.88092c0.1709-0.41888,0.53912-1.01166,1.34772-1.01166
	c0.98242,0,1.40228,0.88477,1.40228,2.23438v6.58008h4.29791v-6.90137c0-0.24121,0.01953-0.63281,0.12299-0.87793
	c0.19244-0.56445,0.63971-1.03516,1.35162-1.03516c0.97852,0,1.42383,0.86035,1.42383,2.35938v6.45508h4.29401v-7.1192
	C125.20324,9.88571,123.70409,7.9902,121.10058,7.9902z M136.73436,12.20211h3.89063v5.76367
	c-0.56641,0.2851-1.6875,0.51849-3.32129,0.51849c-4.52728,0-7.44818-2.89551-7.44818-7.7998
	c0-4.83978,3.06146-7.7627,7.76068-7.7627c1.95319,0,3.2403,0.34283,4.27148,0.8291l0.63281-2.03217
	c-0.83099-0.40045-2.60925-0.88574-4.84369-0.88574c-6.47852,0-10.45611,4.2099-10.45611,9.9707
	c0,3.00684,1.02837,5.59082,2.69238,7.1933c1.88971,1.80078,4.29303,2.54303,7.21881,2.54303
	c2.60931,0,4.8418-0.62402,5.96289-1.05859v-9.28125h-6.36041V12.20211z M148.64647,9.2275h-0.08197l-0.11823-2.75293h-2.2099
	c0.08984,1.28809,0.11719,2.69434,0.11719,4.3291v9.53809h2.52734v-7.39258c0-0.40039,0.02338-0.8291,0.08588-1.17291
	c0.34283-1.89056,1.6026-3.20801,3.37604-3.20801c0.34375,0,0.60547,0,0.85938,0.05573V6.24801
	c-0.22662-0.02734-0.42578-0.05664-0.68463-0.05664C150.83006,6.19137,149.27641,7.3652,148.64647,9.2275z M160.87987,6.19137
	c-3.8056,0-6.87299,2.71973-6.87299,7.33398c0,4.38184,2.92181,7.13574,6.64551,7.13574c3.3252,0,6.90723-2.23932,6.90723-7.36914
	C167.55962,9.08297,164.8643,6.19137,160.87987,6.19137z M160.76567,18.76748c-2.461,0-4.18066-2.29102-4.18066-5.33099
	c0-2.60553,1.28906-5.35651,4.23926-5.35651c2.98145,0,4.15332,2.94928,4.15332,5.30078
	C164.97758,16.50387,163.17186,18.76748,160.76567,18.76748z M184.20018,13.43649c-0.45795,1.63483-0.83295,3.09473-1.06049,4.49799
	h-0.08203c-0.31158-1.40326-0.71777-2.86316-1.23438-4.5224l-2.1485-6.9375h-2.1181l-2.26172,7.0791
	c-0.461,1.49023-0.9209,2.97754-1.2373,4.3808h-0.08698c-0.25287-1.4306-0.62787-2.86316-1-4.40912l-1.8623-7.05078h-2.57611
	l4.1806,13.86719h2.29303l2.23529-6.58698c0.4834-1.49213,0.91412-2.92383,1.2608-4.58978h0.05566
	c0.34863,1.63867,0.74603,3.00879,1.23535,4.55957l2.11621,6.61719h2.29095l4.47272-13.86719h-2.49323L184.20018,13.43649z
	 M193.7979,3.15328l-2.46393,0.74121v2.58008h-2.14935V8.3945h2.14935v7.56348c0,1.63379,0.28424,2.87012,0.97949,3.63959
	c0.59863,0.66125,1.54303,1.06354,2.7149,1.06354c0.97852,0,1.75092-0.17584,2.23431-0.34772l-0.11127-1.91791
	c-0.37213,0.11719-0.77344,0.17181-1.46295,0.17181c-1.40527,0-1.89056-0.97552-1.89056-2.69141V8.3945h3.61133V6.47457h-3.61133
	V3.15328z M206.77348,6.19137c-0.94049,0-1.82819,0.2558-2.5752,0.68359c-0.7735,0.43555-1.40527,1.08984-1.80469,1.80762h-0.05469
	v-8.68262h-2.52344v20.3418h2.52344v-8.36139c0-0.46381,0.02338-0.83398,0.16406-1.20502
	c0.48822-1.35059,1.75482-2.49805,3.3847-2.49805c2.37701,0,3.20709,1.86615,3.20709,4.09955v7.9649h2.52344v-8.25195
	C211.61821,7.33389,208.64067,6.19137,206.77348,6.19137z"/>
</svg>
