<?xml version="1.0" encoding="utf-8"?>
<svg version="1.1" xmlns="http://www.w3.org/2000/svg" xmlns:xlink="http://www.w3.org/1999/xlink" x="0px" y="0px"
	 viewBox="0 0 155.3936 48.8321" style="enable-background:new 0 0 155.3936 48.8321;" xml:space="preserve">
<path class="secondary" d="M49.3203,48.02737l-0.03998,0.02539l-0.06445,0.7793l0.164-0.0899
	c0.09381-0.05078,0.19531-0.10345,0.3028-0.1601c0.84863-0.44336,2.04004-1.08398,2.72162-2.61328
	c-0.59076,0.07031-1.19922,0.1347-1.8291,0.19922C50.5332,46.87106,50.12212,47.4805,49.3203,48.02737z M83.60448,4.41599
	c0.02252-0.12299,0.04303-0.24597,0.08691-0.37097l0.11139-0.32043L82.2373,4.93167
	C82.71978,4.74808,83.18169,4.57431,83.60448,4.41599z M92.18267,21.71878c-1.90137,0.5683-4.10938,1.12891-6.41797,1.66211
	l0.74408,1.68158c2.125-0.50781,3.9082-1.0293,5.39941-1.55469l0.87109-1.99213c-0.10248,0.03516-0.19427,0.07031-0.30072,0.10541
	L92.18267,21.71878z M81.67681,24.28519v1.79297c0.45801-0.08398,0.89551-0.16998,1.33008-0.25586l-0.73639-1.66412
	C82.0733,24.2012,81.87499,24.24417,81.67681,24.28519z M92.05572,11.92386c-1.69824-0.88678-3.41699-1.78516-4.86041-2.71289
	c-0.88672,0.2851-1.74799,0.56439-2.58978,0.83984c1.2627,0.79297,2.74408,1.59564,4.25977,2.41797
	c2.33301,1.26563,4.70599,2.55469,6.20801,3.80469l0.9472-2.16595C94.85162,13.3887,93.47558,12.66599,92.05572,11.92386z
	 M66.08788,27.26761c-0.22064,0.04486-0.50964,0.09955-0.83301,0.16016c0.27832,0.2168,0.55865,0.43164,0.83795,0.64453
	c0.31537,0.24219,0.62695,0.48236,0.93457,0.7207c1.6084-0.28711,3.16309-0.56049,4.59668-0.8125
	c2.46381-0.43164,4.59082-0.80469,6.14642-1.10352c0.12109-0.0235,0.25879-0.05078,0.39648-0.07813v-1.79688
	c-3.44916,0.68359-6.65619,1.26758-8.95209,1.68359C67.80181,26.94138,66.6856,27.14456,66.08788,27.26761z M58.84179,28.61136
	c-1.11621,0.2168-2.27441,0.45111-3.43054,0.69922v1.71088c1.65228-0.34955,3.36908-0.6933,5.09656-1.02338
	c-0.25781-0.19531-0.52631-0.38477-0.77338-0.5899C59.51757,29.25589,59.21392,28.98441,58.84179,28.61136z M48.61529,39.77927
	c-2.43561-1.91211-4.95508-3.88666-4.57227-5.625c1.67865-0.76947,4.50287-1.5683,7.85156-2.35345v-1.67975
	c-1.46588,0.36725-2.84088,0.75391-4.00391,1.15631l-0.05469,0.01764c-1.16986,0.35736-5.0401,1.67566-5.73541,3.54285
	c-0.1972,0.52545-0.1308,1.0567,0.19635,1.57813l0.03131-0.01752c0.50476,1.08984,2.00385,2.39453,3.57709,3.76172
	c0.28809,0.25189,0.58197,0.50781,0.875,0.76563c1.00098-0.0957,1.9668-0.19531,2.91016-0.29492
	C49.3399,40.34958,48.9815,40.06638,48.61529,39.77927z"/>
<path class="primary" d="M153.56157,34.668c-1.02637,0-1.84479,0.79877-1.84479,1.78906c0,1.01563,0.81842,1.81055,1.84479,1.81055
	c1.0351,0,1.83203-0.79492,1.83203-1.81055C155.3936,35.46677,154.59666,34.668,153.56157,34.668z M153.57329,37.88681
	c-0.81061,0-1.39648-0.63092-1.39648-1.42975c0-0.7832,0.58588-1.42578,1.38477-1.42578c0.7959,0,1.37402,0.64258,1.37402,1.4375
	C154.93559,37.25589,154.35747,37.88681,153.57329,37.88681z M153.97557,36.51181v-0.02155
	c0.21881-0.06445,0.37109-0.2168,0.37109-0.41406c0-0.17383-0.07617-0.31641-0.1748-0.39264
	c-0.1308-0.07416-0.28418-0.1308-0.62109-0.1308c-0.29388,0-0.52539,0.02155-0.6875,0.05664v1.78705h0.4151v-0.71869h0.19434
	c0.23138,0,0.33978,0.08594,0.37207,0.2832c0.05469,0.20703,0.08789,0.36914,0.14252,0.43549h0.44629
	c-0.04199-0.06635-0.07611-0.17377-0.1308-0.44714C154.24907,36.70895,154.14946,36.57816,153.97557,36.51181z M153.48436,36.38089
	h-0.19629v-0.51172c0.04303-0.00977,0.1192-0.02148,0.22852-0.02148c0.26178,0,0.38287,0.10938,0.38287,0.27338
	C153.89946,36.30667,153.71391,36.38089,153.48436,36.38089z M98.0147,13.28909c-0.59082-0.12311-1.16901,0.17969-1.40723,0.72461
	l-7.72266,17.65228l-7.81543-17.6582c-0.2403-0.54102-0.8252-0.83777-1.40729-0.71869
	c-0.58002,0.12299-0.99512,0.63477-0.99512,1.22656v22.69141c0,0.6933,0.56158,1.2558,1.25494,1.2558s1.25488-0.5625,1.25488-1.2558
	V20.4512l6.56738,14.83789c0.2002,0.45306,0.65039,0.74609,1.1474,0.74609h0.00299c0.49701,0,0.94629-0.29492,1.14648-0.75201
	l6.46094-14.76947v16.69336c0,0.6933,0.56146,1.2558,1.25488,1.2558c0.69434,0,1.2558-0.5625,1.2558-1.2558V14.51566
	C99.01269,13.92191,98.59478,13.41019,98.0147,13.28909z M104.4287,13.26181c-0.6933,0-1.25482,0.56049-1.25482,1.25385v22.69141
	c0,0.6933,0.56152,1.2558,1.25482,1.2558c0.69342,0,1.25488-0.5625,1.25488-1.2558V14.51566
	C105.68359,13.8223,105.12212,13.26181,104.4287,13.26181z M116.62988,13.26181h-6.22559c-0.6933,0-1.25476,0.56049-1.25476,1.25385
	v22.69141c0,0.6933,0.56146,1.2558,1.25476,1.2558c0.69342,0,1.25494-0.5625,1.25494-1.2558V15.77145h4.97064
	c3.14752,0,5.72955,1.12891,7.84961,3.4024c1.68561,2.01752,2.50391,4.10352,2.50391,6.37305v0.63086
	c0,2.43939-0.94916,4.6875-2.90515,6.87109c-2.16803,1.95502-4.43176,2.9043-6.91901,2.9043h-3.36816
	c-0.69336,0-1.25586,0.56055-1.25586,1.25391c0,0.6933,0.5625,1.2558,1.25586,1.2558h3.36816
	c3.11328,0,6.02435-1.21088,8.65326-3.59955c0.03033-0.02734,0.05963-0.05664,0.08789-0.08795
	c2.38482-2.64258,3.5938-5.5351,3.5938-8.5976v-0.63086c0-2.8418-1.03912-5.52734-3.1328-8.0332
	C123.73248,14.69138,120.458,13.26181,116.62988,13.26181z M151.71678,23.043h-6.4707v-6.46869h-5.6347V23.043h-6.4707v5.63477
	h6.4707v6.4726h5.6347v-6.4726h6.4707V23.043z M151.11229,28.07431h-6.4707v6.4726h-4.42572v-6.4726h-6.47064v-4.42584h6.47064
	v-6.4707h4.42572v6.4707h6.4707V28.07431z M19.93657,18.11136c-0.27246-1.07037-0.95795-2.11328-2.09375-3.18555
	c-0.03125-0.03125-0.06354-0.05865-0.09863-0.08594c-1.32031-1.01172-2.89056-1.52539-4.66797-1.52539H1.25487
	c-0.6933,0-1.25488,0.5625-1.25488,1.2558V37.2598c0,0.69336,0.56158,1.25586,1.25488,1.25586
	c0.69342,0,1.25494-0.5625,1.25494-1.25586V15.8262h10.56641c1.20605,0,2.21777,0.31641,3.09076,0.96881
	c0.73151,0.69916,1.19342,1.36908,1.33691,1.93158l0.2793,1.11719l0.00104,1.50391c-0.00293,0.0332-0.04102,0.36908-0.47852,1.68359
	c-0.54303,0.94922-1.3291,1.64063-2.39551,2.10352c-0.90918,0.19531-1.22852,0.21088-1.30762,0.21088H4.56548
	c-0.69336,0-1.25488,0.56061-1.25488,1.25391c0,0.69342,0.56152,1.25592,1.25488,1.25592h9.03711
	c0.26563,0,0.75781-0.03119,1.95599-0.29303c0.0733-0.01556,0.14465-0.039,0.21393-0.06641
	c1.67969-0.6972,2.95306-1.82605,3.78711-3.35541c0.03516-0.06445,0.06445-0.13086,0.08789-0.20117
	c0.56738-1.6875,0.64551-2.22852,0.64551-2.5625v-1.6875c0-0.10352-0.01172-0.20508-0.03711-0.30469L19.93657,18.11136z
	 M31.72948,36.00589H25.6397V14.57028c0-0.6933-0.56146-1.2558-1.25488-1.2558s-1.25494,0.5625-1.25494,1.2558V37.2598
	c0,0.69336,0.56152,1.25586,1.25494,1.25586h7.34467c0.69342,0,1.25495-0.5625,1.25495-1.25586
	C32.98443,36.56638,32.4229,36.00589,31.72948,36.00589z M35.80468,38.5137c0.69733,0,1.25299-0.55664,1.25299-1.25391
	l0.0224-13.34381c0-2.45313,0.71783-4.37097,2.2276-5.89063c0.87793-0.92188,2.28125-1.57416,4.15521-1.96088
	c0.04303-0.00983,0.086-0.01947,0.13971-0.04303c0.10638-0.00964,0.51465-0.05267,1.73444-0.09564
	c1.34955,0.1192,2.63464,0.53516,3.76947,1.22064c2.21777,1.46686,3.28809,3.51373,3.28809,6.23444v2.01172H39.833
	c-0.6972,0-1.25391,0.56836-1.25391,1.26367c0,0.6875,0.5567,1.25391,1.25391,1.25391h12.56158v9.34961
	c0,0.69727,0.5683,1.25391,1.26361,1.25391c0.68658,0,1.25305-0.55664,1.25305-1.25391V23.38089
	c0-3.57813-1.48834-6.38483-4.46594-8.35351c-1.54193-0.92188-3.21283-1.46881-4.97943-1.60736h-0.12885
	c-1.69244,0.04285-2.20612,0.10736-2.49524,0.21478c-2.32422,0.49219-4.12299,1.38086-5.3222,2.63476
	c-1.95996,1.9707-2.95709,4.539-2.95709,7.6347L34.55181,37.2598C34.55181,37.95706,35.10943,38.5137,35.80468,38.5137z
	 M65.3662,38.38681c-5.64941,1.90619-15.95801,3-30.4433,4.04675l-0.15533,0.01172l-0.77148,4.34973l1.9278-0.11536
	c7.01172-0.414,14.95892-0.88275,19.87793-1.72455c12.28809-1.8476,14.75-6.47852,14.8623-9.69922
	c-0.24023,0.3418-0.5127,0.65619-0.82031,0.9375C68.59869,37.36331,67.0039,38.0723,65.3662,38.38681z M57.60259,22.15036
	c0.44629-0.80267,1.08398-1.48035,1.77148-2.07806c1.38965-1.19141,4.61133-2.91022,4.61133-2.91022
	C69.93072,14.168,80.12499,10.90238,95.4024,6.0137l1.2168-0.38873l1.96478-5.625l-0.37988,0.11719
	c-4.00879,1.23242-7.80951,2.47461-11.2959,3.69342l-0.02441,0.0097c-1.42871,0.48053-23.8252,8.13867-28.91986,16.21881
	l-0.00494-0.01563c0,0-0.39447,0.5332-0.69629,1.40619c-0.05859,0.16022-0.10248,0.32233-0.14545,0.48242
	c-0.00104,0.00391-0.00293,0.00983-0.00397,0.01569c-0.07904,0.29492-0.12988,0.58984-0.15326,0.8847
	c-0.01764,0.17004-0.02734,0.34381-0.0293,0.5235c0,0.01172-0.00104,0.02344,0,0.0351
	c-0.00201,0.26764,0.02148,0.55084,0.06348,0.8399C57.0371,23.49026,57.24029,22.77927,57.60259,22.15036z M65.5147,38.26761
	c1.47949-0.4707,2.8584-1.27155,3.85553-2.39844c0.52136-0.54688,0.80554-1.20117,1.13074-1.91797
	c0.0166-0.03711,0.0274-0.07623,0.04401-0.11523c-0.34668-1.92389-2.49127-3.586-4.77637-5.33789
	c-2.60352-1.9942-5.29401-4.05469-5.0498-6.48242l0.01459-0.14258c0.06354-0.63672,0.15039-1.48438,0.48639-2.28522
	c-0.31836,0.16992-0.63086,0.3457-0.94141,0.53711c-0.52148,0.33209-1.02637,0.6817-1.48047,1.09381
	c-0.45898,0.4082-0.85938,0.875-1.17969,1.4082c-0.31354,0.52338-0.50592,1.13483-0.58893,1.75983
	c0.12701,0.71088,0.3877,1.46667,0.88379,2.25c0.03815,0.0625,0.07813,0.12097,0.11823,0.17957
	c0.10638,0.1582,0.21973,0.31641,0.34473,0.47662c0.09857,0.125,0.20221,0.24609,0.30859,0.36719
	c0.05658,0.06641,0.10162,0.12891,0.16107,0.1933c0.07233,0.07819,0.12799,0.12701,0.1944,0.19928
	c0.0498,0.04883,0.0976,0.0976,0.1474,0.14844c0.3653,0.36908,0.66022,0.63275,0.88873,0.79486
	c0.93646,0.7774,1.9873,1.48645,2.99408,2.15631c2.07129,1.37689,4.0274,2.67773,4.24609,4.1308
	c0.09381,0.6153-0.125,1.2403-0.66888,1.90631C66.33599,37.5723,65.95324,37.93356,65.5147,38.26761z"/>
</svg>
