<svg xmlns="http://www.w3.org/2000/svg" viewBox="0 0 250 250"><path d="M93 194c-2 0-3.6 1.6-3.6 3.6s1.6 3.6 3.6 3.6 3.6-1.6 3.6-3.6S94.9 194 93 194zM102.6 167.4c-2.8 0-5.1 2.3-5.1 5.1s2.3 5.1 5.1 5.1 5.1-2.3 5.1-5.1S105.4 167.4 102.6 167.4zM119.3 136.5c-4.8 0-8.7 3.9-8.7 8.7s3.9 8.7 8.7 8.7 8.7-3.9 8.7-8.7S124.1 136.5 119.3 136.5zM135.1 124.7c0 7 5.7 12.7 12.7 12.7 7 0 12.7-5.7 12.7-12.7 0-7-5.7-12.7-12.7-12.7C140.8 112 135.1 117.7 135.1 124.7zM104.2 40.6h41.6c1.7 0 3-1.3 3-3V20.5c0-4.4-3.6-8-8-8h-31.6c-4.4 0-8 3.6-8 8v17.1C101.2 39.2 102.5 40.6 104.2 40.6zM178.6 85.3L148.6 59c-0.8-0.7-1.6-1.8-2.1-3h3.1c2.2 0 4-1.8 4-4s-1.8-4-4-4h-49.3c-2.2 0-4 1.8-4 4s1.8 4 4 4h3.1c-0.6 1.2-1.3 2.3-2.1 3L71.4 85.3c-1.7 1.5-3.1 4.5-3.1 6.8v141.3c0 2.3 1.8 4.1 4.1 4.1h105.1c2.3 0 4.1-1.8 4.1-4.1V92.1C181.7 89.8 180.3 86.8 178.6 85.3zM169.8 225.6H80.2V93.4l29-25.4c1.2-1.1 2.4-2.4 3.3-3.9h24.9c1 1.5 2.1 2.8 3.3 3.9l29 25.4V225.6z"/></svg>
