<?xml version="1.0" encoding="utf-8"?>
<svg version="1.1" xmlns="http://www.w3.org/2000/svg" xmlns:xlink="http://www.w3.org/1999/xlink" x="0px" y="0px"
	 viewBox="0 0 140.5264 59.623" style="enable-background:new 0 0 140.5264 59.623;" xml:space="preserve">
<path class="secondary" d="M140.07426,58.71278l-28.49603,0.00592l-1.64331-39.04303h5.68719v-0.93359H103.1162v0.93359h5.85413
	l-3.08551,39.01184H22.51958L19.94732,5.01747c-0.01172-0.24219-0.21094-0.43359-0.4541-0.43359
	c-0.24219,0-0.44244,0.19141-0.4541,0.43359l-2.58203,53.67004H0.44927c-0.25098,0.00189-0.45117,0.23425-0.44928,0.48425
	c0.00299,0.25,0.20612,0.44922,0.45514,0.44922h16.43164c0.23926-0.00189,0.43652-0.19141,0.44824-0.43347l2.15723-44.67395
	l2.16016,44.67584c0.01172,0.24219,0.21191,0.43158,0.4541,0.43158h84.18262c0.23627,0,0.43359-0.18347,0.45117-0.41791
	l2.58301-32.45898l1.3642,32.44342c0.00983,0.24408,0.20898,0.43347,0.45123,0.43549l28.93066-0.00201h0.00293
	c0.24896,0,0.45215-0.20111,0.4541-0.45111C140.52739,58.91786,140.32518,58.7148,140.07426,58.71278z M20.42681,0.00001H18.5606
	v2.24017h1.86621V0.00001z"/>
<path class="primary" d="M32.79693,42.67567l-3.92481-9.88861h-5.0166v24.4375h5.26367v-9.82025l3.8974,9.82025h5.0733v-24.4375
	h-5.29297V42.67567z M34.16125,34.1523h2.56537v21.70697H33.9414l-6.18451-15.58398v15.58398h-2.53711V34.1523h2.7265
	l6.21497,15.6543V34.1523z M46.24999,48.89839h2.78522v1.18158c-0.41699,0.40039-0.78613,0.68951-1.10162,0.85754
	c-0.3222,0.17566-0.65326,0.26166-1.01068,0.26166c-0.45612,0-1.12598-0.12891-1.69629-1.23639
	c-0.49713-0.96277-0.74902-2.65619-0.74902-5.0293c0-2.22852,0.25-3.85742,0.74408-4.83978
	c0.56152-1.12305,1.16803-1.25189,1.5791-1.25189c0.4151,0,0.73151,0.14447,0.99811,0.45496
	c0.31732,0.3692,0.54883,0.9375,0.69043,1.6875l0.1416,0.74811l5.31439-1.62891l-0.0957-0.58789
	c-0.25677-1.5567-0.6474-2.8653-1.16211-3.88867c-0.54291-1.08203-1.24512-1.89844-2.08588-2.42383
	c-0.8584-0.53522-2.06934-0.79688-3.70514-0.79688c-1.7002,0-3.08588,0.42578-4.11908,1.26947
	c-1.26758,1.04498-2.23828,2.57819-2.88379,4.55469c-0.625,1.91803-0.94238,4.19733-0.94238,6.77545
	c0,2.44336,0.28906,4.64648,0.85938,6.54688c0.58893,1.95508,1.44043,3.45898,2.5332,4.4707
	c1.13379,1.04877,2.60547,1.58197,4.37598,1.58197c1.4043,0,2.64746-0.29095,3.69635-0.86127
	c1.03015-0.56842,2.16107-1.57813,3.4541-3.08594l0.16296-0.19135V42.72646h-7.7832V48.89839z M47.61327,44.0898h5.05762v8.87109
	c-1.10248,1.25977-2.08099,2.12891-2.9101,2.58588c-0.84381,0.461-1.86823,0.69531-3.04102,0.69531
	c-1.43555,0-2.56348-0.39838-3.44928-1.21869c-0.91211-0.8457-1.63672-2.14453-2.1543-3.86328
	c-0.53223-1.77155-0.8017-3.84375-0.8017-6.1543c0-2.43365,0.29492-4.57031,0.87598-6.3515
	c0.56342-1.72662,1.38861-3.04694,2.44922-3.92395c0.7832-0.63666,1.87891-0.96088,3.25677-0.96088
	c1.3526,0,2.35553,0.19922,2.98151,0.58978c0.62689,0.39075,1.16211,1.0235,1.5918,1.87891
	c0.38861,0.77539,0.7002,1.75201,0.92871,2.91412l-2.74707,0.83978c-0.19434-0.64642-0.46783-1.17572-0.81744-1.58197
	c-0.52045-0.61133-1.22455-0.93164-2.0332-0.93164c-0.81927,0-1.96869,0.3476-2.79877,2.00189
	c-0.59772,1.19342-0.88873,2.97662-0.88873,5.45313c0,2.63092,0.29492,4.48047,0.9024,5.6543
	c0.83881,1.63287,2.04492,1.97473,2.90723,1.97473c0.58301,0,1.14349-0.14465,1.6601-0.42584
	c0.48541-0.26166,1.01569-0.68359,1.61823-1.28906l0.19727-0.19922v-3.11328h-2.78522V44.0898z M60.6582,32.78706h-5.52728v24.4375
	h12.00677v-7.0528H60.6582V32.78706z M65.77349,51.53511v4.32416h-9.2793V34.1523h2.80078v17.38281H65.77349z M73.19048,47.46089
	h6.47949v-6.08203h-6.47949v-2.3028h6.97754v-6.289H67.66509v24.4375H80.3731v-6.58209h-7.18262V47.46089z M79.00982,52.00581
	v3.85345h-9.98145V34.1523h9.77631v3.56049h-6.97644v5.0274h6.47845v3.35742h-6.47845v5.9082H79.00982z M118.7608,47.46089h6.47852
	v-6.08203h-6.47852v-2.3028h6.9765v-6.289h-12.50287v24.4375h12.70795v-6.58209h-7.18158V47.46089z M124.57909,52.00581v3.85345
	h-9.98138V34.1523h9.77637v3.56049h-6.9776v5.0274h6.47949v3.35742h-6.47949v5.9082H124.57909z M138.23637,46.40028
	c0.88574-1.41992,1.33594-3.38281,1.33594-5.83588c0-2.38483-0.41211-4.27155-1.22662-5.60742
	c-0.87982-1.43951-2.21582-2.16992-3.96771-2.16992h-7.60351v24.4375h5.5263v-8.53125h1.60352
	C135.8311,48.69331,137.28911,47.92177,138.23637,46.40028z M133.90428,47.32997h-2.9668v8.5293h-2.7998V34.1523h6.2403
	c1.2627,0,2.1806,0.49609,2.80469,1.51556c0.6806,1.11725,1.02533,2.76563,1.02533,4.89655
	c0,2.19336-0.37891,3.91406-1.12793,5.11517C136.38768,46.78896,135.34959,47.32997,133.90428,47.32997z M132.8145,37.47847
	h-1.87701v6.52344h1.71198c1.04193,0,1.80463-0.3418,2.26855-1.01764c0.40326-0.59369,0.6084-1.3418,0.6084-2.2226
	c0-0.8399-0.17285-1.57416-0.51465-2.17969C134.72661,38.07808,134.1162,37.47847,132.8145,37.47847z M133.79106,42.21681
	c-0.07129,0.10345-0.28906,0.42175-1.1416,0.42175h-0.34869v-3.79675h0.51373c0.77832,0,0.94629,0.29877,1.00879,0.4101
	c0.22461,0.39838,0.33978,0.90625,0.33978,1.50977C134.16307,41.36317,134.03709,41.85347,133.79106,42.21681z M100.8272,42.92958
	c-0.59668-0.51752-1.4317-1.01947-2.53522-1.51361l4.63092-0.46289l-0.04694-0.66022
	c-0.18457-2.56439-0.76367-4.40228-1.76758-5.61908c-1.0351-1.25592-2.53711-1.89258-4.46771-1.89258
	c-1.54785,0-2.80078,0.34766-3.72559,1.03711c-0.90918,0.6817-1.59479,1.6192-2.0401,2.78705
	c-0.4306,1.125-0.64838,2.336-0.64838,3.59961c0,1.93561,0.43549,3.56061,1.29388,4.82819
	c0.8526,1.27734,2.27643,2.30463,4.23639,3.05664c1.27344,0.47461,1.67578,0.87299,1.8017,1.06641
	c0.23639,0.35938,0.34961,0.76166,0.34961,1.22656c0,0.49225-0.12012,0.9101-0.36517,1.27344
	c-0.19342,0.28711-0.44342,0.41406-0.81055,0.41406c-0.32617,0-0.80768-0.10345-1.2207-0.99609
	c-0.22858-0.49811-0.38477-1.26166-0.46387-2.2735l-0.05566-0.69922l-5.29492,0.56451l0.03217,0.64252
	c0.12109,2.42578,0.65533,4.4668,1.5899,6.06842c1.0097,1.72656,2.81049,2.60156,5.35059,2.60156
	c1.45111,0,2.6806-0.37109,3.6543-1.10345c0.95892-0.7207,1.70996-1.7774,2.23145-3.13873
	c0.50586-1.32031,0.7627-2.7774,0.7627-4.33008c0-1.32813-0.19531-2.55084-0.57813-3.63281
	C102.34667,44.64839,101.7022,43.69136,100.8272,42.92958z M101.2832,53.248c-0.42963,1.11908-1.02728,1.97266-1.77832,2.53711
	c-0.7431,0.55859-1.6709,0.83008-2.8349,0.83008c-2.05078,0-3.4151-0.63092-4.17389-1.92767
	c-0.74121-1.26965-1.19818-2.88293-1.3623-4.80286l2.625-0.2793c0.10742,0.84961,0.27643,1.52155,0.51471,2.03912
	c0.68262,1.47852,1.71381,1.789,2.45898,1.789c0.82031,0,1.49121-0.34961,1.94043-1.01361
	c0.3974-0.5918,0.59857-1.27539,0.59857-2.03711c0-0.72845-0.19141-1.39069-0.57025-1.9707
	c-0.3916-0.60156-1.19824-1.125-2.46094-1.59955c-1.68658-0.64465-2.89258-1.49811-3.58789-2.54114
	c-0.7041-1.039-1.0625-2.4082-1.0625-4.06641c0-1.0976,0.18939-2.14447,0.55963-3.11316
	c0.35144-0.92395,0.88568-1.66022,1.58197-2.1817c0.68262-0.50781,1.6601-0.76563,2.90918-0.76563
	c1.52344,0,2.6416,0.45697,3.41602,1.39648c0.72559,0.87891,1.19531,2.2851,1.40039,4.1875l-2.60059,0.2597
	c-0.13971-0.82611-0.37012-1.45502-0.69525-1.9082c-0.46002-0.64648-1.13287-0.99017-1.94342-0.99017
	c-0.70605,0-1.27832,0.28119-1.65924,0.81641c-0.32611,0.46478-0.49121,1.02728-0.49121,1.66797
	c0,0.5097,0.14655,0.97461,0.42487,1.36914c0.29401,0.43945,0.84955,0.79297,1.73633,1.10736
	c1.73822,0.64069,2.98346,1.28131,3.70313,1.9082c0.7041,0.61328,1.20313,1.35364,1.5224,2.26758
	c0.33215,0.9375,0.50098,2.00781,0.50098,3.17975C101.95507,50.79097,101.72857,52.08388,101.2832,53.248z M97.62212,41.12886
	c-0.29388-0.12109-0.60352-0.2403-0.93073-0.36139c-0.84271-0.29681-1.0351-0.53711-1.0752-0.5957
	c-0.12396-0.17767-0.18451-0.37109-0.18451-0.5976c0-0.36139,0.08008-0.6524,0.24121-0.88281
	c0.08398-0.1192,0.21289-0.23828,0.54492-0.23828c0.37109,0,0.62787,0.12891,0.83496,0.41992
	c0.1806,0.25201,0.42181,0.79297,0.53613,1.92767L97.62212,41.12886z M12.35259,42.92958
	c-0.5957-0.51752-1.43066-1.01947-2.53418-1.51361l4.63086-0.46289l-0.04688-0.66022
	c-0.18457-2.5625-0.7627-4.40039-1.76758-5.61908c-1.03522-1.25592-2.53815-1.89258-4.46783-1.89258
	c-1.54779,0-2.80078,0.34766-3.7265,1.03711c-0.90625,0.6817-1.59277,1.6192-2.03906,2.78705
	c-0.42871,1.12701-0.64752,2.33795-0.64752,3.59961c0,1.93561,0.43561,3.56061,1.29199,4.82819
	c0.85553,1.27936,2.2793,2.30664,4.2373,3.05664c1.2735,0.47461,1.67578,0.87299,1.8028,1.06641
	c0.23529,0.35938,0.34863,0.76166,0.34863,1.22656c0,0.49225-0.12012,0.9101-0.36621,1.27344
	c-0.19238,0.28711-0.44238,0.41406-0.80963,0.41406c-0.32611,0-0.80756-0.10345-1.2207-0.99609
	c-0.22845-0.49811-0.38379-1.26166-0.46381-2.2735l-0.05469-0.69922l-5.2959,0.56451l0.03223,0.64453
	c0.12207,2.42578,0.65619,4.4668,1.59076,6.06641c1.00885,1.72656,2.80963,2.60156,5.34961,2.60156
	c1.45123,0,2.67975-0.37109,3.6543-1.10345c0.95801-0.7207,1.71002-1.7774,2.23242-3.13873
	c0.50488-1.31842,0.7608-2.77539,0.7608-4.33008c0-1.32813-0.19427-2.55084-0.57813-3.63281
	C13.87109,44.64638,13.22558,43.68941,12.35259,42.92958z M12.80859,53.248c-0.42767,1.11908-1.02631,1.97266-1.77826,2.53711
	c-0.73145,0.55078-1.68555,0.83008-2.83405,0.83008c-2.05078,0-3.41595-0.63092-4.17279-1.92767
	c-0.74219-1.26764-1.1983-2.88293-1.36224-4.80286l2.62396-0.2793c0.10736,0.84961,0.27728,1.52155,0.51459,2.03912
	c0.68359,1.47852,1.71393,1.789,2.45898,1.789c0.82031,0,1.49121-0.34961,1.93951-1.01361
	c0.39838-0.5899,0.59961-1.27539,0.59961-2.03711c0-0.72845-0.19141-1.39069-0.57031-1.9707
	c-0.3916-0.60156-1.1983-1.125-2.46191-1.59955c-1.68457-0.64264-2.8916-1.49811-3.58789-2.53912
	c-0.70319-1.04102-1.06055-2.41022-1.06055-4.06842c0-1.0957,0.18744-2.14246,0.55853-3.11316
	c0.35162-0.92395,0.8858-1.66022,1.58203-2.1817c0.68268-0.50781,1.66022-0.76563,2.90918-0.76563
	c1.52441,0,2.64069,0.45697,3.41602,1.39648c0.72559,0.87891,1.19629,2.28711,1.40143,4.1875l-2.60254,0.2597
	c-0.13867-0.82422-0.36719-1.45306-0.6944-1.9101c-0.46289-0.64648-1.1347-0.98828-1.9433-0.98828
	c-0.70709,0-1.2793,0.28119-1.65631,0.81451c-0.32806,0.46667-0.4931,1.02917-0.4931,1.66986
	c0,0.5097,0.14453,0.97461,0.42383,1.36914c0.29388,0.43945,0.84863,0.79297,1.7373,1.10736
	c1.73828,0.64069,2.98236,1.28131,3.70209,1.9082c0.70325,0.61139,1.20221,1.35364,1.52252,2.26758
	c0.33301,0.9375,0.5,2.00781,0.5,3.17975C13.48052,50.79488,13.25487,52.08589,12.80859,53.248z M9.14849,41.12886
	c-0.29486-0.12109-0.6026-0.2403-0.93066-0.36139c-0.84283-0.29681-1.03613-0.53711-1.07526-0.5957
	C7.01659,39.99208,6.958,39.80269,6.958,39.57417c0-0.36139,0.08008-0.65039,0.24323-0.88477
	c0.08301-0.11725,0.21185-0.23633,0.54297-0.23633c0.37109,0,0.62793,0.12891,0.8349,0.41992
	c0.18073,0.25201,0.42194,0.79297,0.53619,1.92767L9.14849,41.12886z M139.08208,55.48427v-0.01746
	c0.21582-0.0625,0.3916-0.22272,0.3916-0.48645c0-0.19141-0.06445-0.32605-0.18359-0.414
	c-0.1192-0.08789-0.32031-0.1524-0.62311-0.1524c-0.23828,0-0.39838,0.02545-0.56641,0.04883v2.00201h0.31842v-0.86133h0.22357
	c0.25592,0,0.38385,0.0957,0.4317,0.3515c0.04004,0.26184,0.08698,0.44531,0.13574,0.50983h0.33496
	c-0.03229-0.06451-0.0791-0.18359-0.12799-0.49414C139.377,55.67567,139.25688,55.51558,139.08208,55.48427z M138.65141,55.35738
	h-0.23242v-0.67969c0.05658-0.00781,0.12891-0.01563,0.23242-0.01563c0.35938,0,0.48627,0.17572,0.48627,0.3515
	C139.13768,55.25966,138.91508,55.35738,138.65141,55.35738z M138.76268,53.623h-0.00781c-0.98041,0-1.7793,0.80078-1.7793,1.79688
	c0,1.01361,0.79889,1.80469,1.7793,1.80469c0.99036,0,1.77155-0.79108,1.77155-1.80469
	C140.52641,54.42378,139.74522,53.623,138.76268,53.623z M138.76268,56.94527c-0.79779,0-1.4433-0.67188-1.4433-1.52539
	c0-0.83789,0.64551-1.51556,1.43549-1.51556h0.00781c0.79791,0,1.43658,0.67767,1.43658,1.52338
	S139.56059,56.95308,138.76268,56.94527z"/>
</svg>
