<svg xmlns="http://www.w3.org/2000/svg" viewBox="0 0 250 250"><path d="M90 149.4H60.1v-31.8h29.9V91.9l-37.9 13.6c-2.9 1-4.6 4-4 6.9 0.1 0.3 0.1 0.6 0.2 0.9v36H23.1c-3.3 0-5.9 2.6-5.9 5.9v76.3c0 3.3 2.6 5.9 5.9 5.9s5.9-2.6 5.9-5.9v-70.4h61V149.4zM226.9 149.4H201.7v-36c0.1-0.3 0.2-0.6 0.2-0.9 0.5-3-1.2-5.9-4-6.9l-37.9-13.6v25.7h29.9v31.8h-29.9v11.8h61v70.4c0 3.3 2.6 5.9 5.9 5.9s5.9-2.6 5.9-5.9v-76.3C232.8 152 230.2 149.4 226.9 149.4zM149.3 67h37.6L125 12.5 63.1 67h37.6v114.1H63.1l61.9 54.5 61.9-54.5h-37.6V67z"/></svg>
