<?xml version="1.0" encoding="utf-8"?>
<svg version="1.1" xmlns="http://www.w3.org/2000/svg" xmlns:xlink="http://www.w3.org/1999/xlink" x="0px" y="0px"
	 viewBox="0 0 71.48035 25.2" style="enable-background:new 0 0 71.48035 25.2;" xml:space="preserve">
<circle class="secondary" cx="12.6" cy="12.6" r="12.6"/>
<path class="primary" d="M6.37415,4.61355h15.97186c-2.31091-2.81641-5.81842-4.61359-9.74603-4.61359C5.641-0.00004,0,5.64102,0,12.6
	c0,6.1701,4.43585,11.30463,10.29285,12.38812v-11.146h8.34088v9.82117c3.91223-2.13831,6.56628-6.29114,6.56628-11.06329H3.07856
	L6.37415,4.61355z M46.32935,11.07595c0.98096,0,1.60852-0.59302,1.88232-1.09515h0.02271l0.03442,0.96967h0.50171
	c-0.02271-0.42212-0.04541-0.85547-0.04541-1.33472V5.47488h-0.53638v3.41083c0,0.21667-0.05701,0.43341-0.11401,0.60461
	c-0.22803,0.54755-0.80981,1.10638-1.6084,1.10638c-1.08374,0-1.46021-0.85547-1.46021-2.04187V5.47488h-0.53613v3.18286
	C44.46997,10.73379,45.63355,11.07595,46.32935,11.07595z M54.34778,4.37979c0.28528,0,0.4563-0.21667,0.4563-0.46759
	c0-0.26251-0.17102-0.47919-0.43347-0.47919c-0.25098,0-0.44482,0.22833-0.44482,0.47919
	C53.92579,4.16311,54.09693,4.37979,54.34778,4.37979z M69.66651,10.60836c-0.49048,0-0.93555-0.19415-1.23193-0.37665
	l-0.19409,0.4563c0.36499,0.22827,0.85547,0.38794,1.39185,0.38794c1.11792,0,1.84802-0.63885,1.84802-1.57434
	c0-0.83264-0.52502-1.27765-1.41467-1.61975c-0.74146-0.30798-1.12939-0.55884-1.12939-1.12933
	c0-0.50177,0.36511-0.94678,1.06104-0.94678c0.54761,0,0.90137,0.19379,1.08374,0.33087l0.2168-0.44501
	c-0.2854-0.19379-0.70752-0.34216-1.20923-0.34216c-1.07227,0-1.68848,0.69592-1.68848,1.48309
	c0,0.66138,0.49072,1.15216,1.39172,1.49432c0.78723,0.31921,1.15222,0.63879,1.15222,1.24347
	C70.9441,10.14041,70.53358,10.60836,69.66651,10.60836z M38.16248,5.34945c-1.35742,0-2.58942,1.02679-2.58942,2.90869
	c0,1.71136,1.09509,2.81781,2.50964,2.81781c1.22052,0,2.6236-0.86682,2.6236-2.92035
	C40.7063,6.47878,39.67975,5.34945,38.16248,5.34945z M38.11689,10.61965c-1.11786,0-1.99628-1.02679-1.99628-2.39569
	c0-1.17474,0.63879-2.4295,2.03046-2.4295c1.43744,0,2.00769,1.39148,2.00769,2.39533
	C40.15876,9.59286,39.25763,10.61965,38.11689,10.61965z M54.09693,10.95046h0.53613V5.47488h-0.53613V10.95046z M50.77759,9.37618
	c0,0.55914,0.09119,1.01544,0.34229,1.30054c0.2052,0.26251,0.53613,0.39923,0.9353,0.39923
	c0.33081,0,0.58179-0.05713,0.76428-0.13672l-0.06836-0.42212c-0.13684,0.04541-0.34216,0.09125-0.62732,0.09125
	c-0.58203,0-0.79871-0.44501-0.79871-1.14093V5.90829h1.56287V5.47488h-1.56287V4.26565l-0.54749,0.20538v1.00385h-0.92395v0.43341
	h0.92395V9.37618z M34.51294,8.95407c0-1.15186-0.67316-1.72235-1.93933-2.23572c-1.10657-0.43341-1.59705-0.86676-1.59705-1.72266
	c0-0.60431,0.42212-1.40308,1.66559-1.40308c0.66156,0,1.15216,0.21674,1.35742,0.36505l0.20526-0.4563
	c-0.26233-0.1709-0.80988-0.36505-1.5285-0.36505c-1.30054,0-2.2359,0.82135-2.2359,1.95062
	c0,1.04968,0.74158,1.68848,1.98499,2.12189c1.10645,0.43341,1.55145,0.93549,1.55145,1.80231
	c0,0.94678-0.70734,1.59723-1.84808,1.59723c-0.65027,0-1.25476-0.21674-1.68835-0.51337l-0.2052,0.4563
	c0.39917,0.29663,1.17493,0.52466,1.83643,0.52466C33.71436,11.07595,34.51294,10.07205,34.51294,8.95407z M42.63379,2.85128
	H42.0976v8.09918h0.53619V2.85128z M58.61377,5.34945c-1.3573,0-2.58948,1.02679-2.58948,2.90869
	c0,1.71136,1.09509,2.81781,2.50989,2.81781c1.22046,0,2.62354-0.86682,2.62354-2.92035
	C61.15772,6.47878,60.13099,5.34945,58.61377,5.34945z M58.56836,10.61965c-1.11816,0-1.99658-1.02679-1.99658-2.39569
	c0-1.17474,0.63892-2.4295,2.03076-2.4295c1.43726,0,2.00757,1.39148,2.00757,2.39533
	C60.61011,9.59286,59.70887,10.61965,58.56836,10.61965z M64.95582,5.34945c-0.901,0-1.5857,0.50214-1.88233,1.11804h-0.02246
	l-0.0459-0.99261h-0.50171c0.02246,0.43341,0.04541,0.81006,0.04541,1.31183v4.16376h0.53638V7.56259
	c0-0.1712,0.03418-0.35376,0.07959-0.49048c0.21667-0.70752,0.86719-1.25507,1.64258-1.25507
	c1.12939,0,1.51733,0.90131,1.51733,1.89355v3.23987h0.53625V7.66512C66.86097,5.61196,65.48048,5.34945,64.95582,5.34945z
	 M33.0188,14.32266l-2.78357,7.68872h0.55896l0.94696-2.69202h3.04578l0.96967,2.69202h0.55884l-2.77197-7.68872H33.0188z
	 M34.61567,18.86276h-2.70343l0.94678-2.58948c0.15979-0.49048,0.28522-0.88971,0.39923-1.33435h0.02289
	c0.11401,0.43341,0.21667,0.82098,0.39923,1.35724L34.61567,18.86276z M65.33314,16.53579h-0.66174l-1.92774,2.03064
	c-0.17114,0.1825-0.39954,0.43335-0.53625,0.60461h-0.02283v-5.25891h-0.53601v8.09924h0.53601v-2.28149l0.55908-0.59302
	l2.23572,2.87451h0.66174L63.12,18.80599L65.33314,16.53579z M38.19703,15.3265l-0.54755,0.20544v1.00385h-0.92389v0.43341h0.92389
	v3.46783c0,0.5592,0.09125,1.0155,0.34229,1.30054c0.20526,0.26251,0.53613,0.39923,0.93536,0.39923
	c0.33081,0,0.58173-0.05707,0.76422-0.13672l-0.06836-0.42212c-0.1369,0.04547-0.3421,0.09125-0.62738,0.09125
	c-0.58191,0-0.79858-0.44501-0.79858-1.14087V16.9692h1.56287v-0.43341h-1.56287V15.3265z M54.25733,16.41036
	c-1.35742,0-2.58936,1.02673-2.58936,2.909c0,1.71106,1.09509,2.81744,2.50952,2.81744c1.2207,0,2.62378-0.86676,2.62378-2.92029
	C56.80127,17.53964,55.77442,16.41036,54.25733,16.41036z M54.21167,21.68051c-1.1178,0-1.99622-1.02673-1.99622-2.39563
	c0-1.17474,0.63879-2.42987,2.0304-2.42987c1.43726,0,2.00781,1.39185,2.00781,2.39569
	C56.25367,20.65377,55.3523,21.68051,54.21167,21.68051z M49.62671,18.64602c-0.28516,0.98132-0.52466,1.81396-0.69592,2.64655
	h-0.03418c-0.11414-0.77551-0.37646-1.73395-0.61584-2.66907l-1.14099-4.30084h-0.52466l-1.26624,4.33502
	c-0.29663,1.00385-0.57031,1.91644-0.6958,2.63489H44.6189c-0.14844-0.71844-0.37646-1.64264-0.63892-2.63489l-1.11792-4.33502
	h-0.54761l2.01917,7.68872h0.52466l1.30054-4.43756c0.35364-1.12927,0.55896-1.88226,0.68445-2.60071h0.02271
	c0.11426,0.71844,0.29675,1.48273,0.59338,2.612l1.16345,4.42627h0.52466l2.30444-7.68872h-0.55908L49.62671,18.64602z
	 M58.69434,17.64218h-0.02283l-0.02283-1.10638h-0.50183c0.02258,0.52466,0.04553,1.09509,0.04553,1.6427v3.83289h0.53613v-3.02283
	c0-0.18256,0.02271-0.36505,0.04553-0.52502c0.14832-0.87842,0.68469-1.5285,1.43726-1.5285c0.10291,0,0.1825,0,0.26257,0.02289
	v-0.52466c-0.06836-0.0116-0.14844-0.02289-0.2168-0.02289C59.50415,16.41036,58.9336,16.95791,58.69434,17.64218z
	 M67.41639,20.2402h0.67615v1.77118h0.2644V20.2402h0.67615v-0.22766h-1.6167V20.2402z M70.90723,20.01254l-0.47046,1.2934
	c-0.0293,0.10254-0.08093,0.26453-0.125,0.40399h-0.01465c-0.04419-0.13196-0.08081-0.27209-0.13953-0.41907l-0.47034-1.27832
	h-0.38965l-0.16162,1.99884h0.26453l0.0957-1.35968c0.0072-0.15448,0.01477-0.29395,0.01477-0.42584h0.01465
	c0.03662,0.12439,0.11011,0.3158,0.14697,0.44092l0.47021,1.31519h0.30127l0.46313-1.27899
	c0.05127-0.15381,0.10999-0.35956,0.16162-0.47711h0.01465c0.0072,0.16132,0.01465,0.30829,0.02197,0.42584l0.0957,1.35968h0.27917
	l-0.17639-1.99884H70.90723z"/>
</svg>
