<?xml version="1.0" encoding="utf-8"?>
<svg version="1.1" xmlns="http://www.w3.org/2000/svg" xmlns:xlink="http://www.w3.org/1999/xlink" x="0px" y="0px"
	 viewBox="0 0 96.10062 25.1992" style="enable-background:new 0 0 96.10062 25.1992;" xml:space="preserve">
<path class="secondary" d="M10.11965,19.084l-2.2735,4.1601l-2.2558-4.1601H3.78853l-1.68256,5.96478h1.80365l1.06744-3.76758
	l2.04779,3.76758h1.62988l2.06641-3.76758l1.04297,3.76758h1.78912L11.92232,19.084H10.11965z M18.67043,19.084l-3.75,5.96478
	h1.92383l0.79199-1.22852h3.96771l0.7608,1.22852h1.92377L20.54635,19.084H18.67043z M18.31594,22.7129l1.30371-2.04694
	l1.29779,2.04694H18.31594z M31.74465,19.4062c-0.68658-0.21484-1.7373-0.3222-3.14941-0.3222h-2.19238v5.96478h2.22461
	c1.2597,0,2.14447-0.04877,2.65527-0.14648c0.51074-0.0976,0.98432-0.27142,1.42279-0.52533
	c0.43854-0.25586,0.78223-0.57428,1.03033-0.95898c0.24896-0.38678,0.37299-0.80859,0.37299-1.26959
	c0-0.64453-0.22168-1.20892-0.66602-1.6933C32.99752,19.97066,32.43014,19.62111,31.74465,19.4062z M31.87356,23.16206
	c-0.24121,0.28131-0.5528,0.48242-0.93359,0.60162c-0.38086,0.11908-0.99512,0.17767-1.84082,0.17767h-0.85938V20.1797h0.62787
	c1.15045,0,1.98541,0.15619,2.50592,0.46869c0.57709,0.35162,0.86518,0.8418,0.86518,1.47461
	C32.23873,22.53517,32.11666,22.88087,31.87356,23.16206z M36.55807,25.04878h5.30768v-1.11517H38.3951v-1.56842h3.47064v-1.0918
	H38.3951v-1.07813h3.47064V19.084h-5.30768V25.04878z M48.60006,25.04878h1.83704V19.084h-1.83704V25.04878z M59.14022,23.00978
	L54.97897,19.084h-1.77533v5.96478h1.85052v-3.91211l4.15637,3.91211h1.7793V19.084h-1.84961V23.00978z M73.01217,22.79878
	c0,0.40039-0.04492,0.67188-0.13672,0.8125c-0.08875,0.14258-0.25183,0.25983-0.48914,0.34961
	c-0.23438,0.09381-0.51575,0.13867-0.84082,0.13867c-0.30859,0-0.57227-0.04095-0.79114-0.12299
	c-0.2168-0.08209-0.37402-0.19342-0.46863-0.33008c-0.09387-0.13873-0.1416-0.37311-0.1416-0.70514V19.084h-1.85742v3.55658
	c0,0.711,0.11133,1.2168,0.33582,1.51373c0.22461,0.29877,0.59961,0.54877,1.12012,0.74609
	c0.52356,0.19916,1.13586,0.29877,1.8418,0.29877c0.53711,0,1.00879-0.05267,1.41516-0.15619
	c0.40515-0.10352,0.76257-0.26367,1.07422-0.48047c0.31042-0.21686,0.52051-0.44141,0.63171-0.67383
	c0.1095-0.23248,0.16321-0.6485,0.16321-1.24811V19.084h-1.85657V22.79878z M81.93612,22.1465
	c-0.15039-0.0957-0.57727-0.32422-1.2832-0.68561c-0.75598-0.39252-1.20801-0.64838-1.3584-0.76752
	c-0.10938-0.08789-0.16602-0.18359-0.16602-0.2832c0-0.09967,0.0791-0.18951,0.23242-0.26959
	c0.15527-0.08008,0.35352-0.12109,0.5957-0.12109c0.49792,0,0.99011,0.20709,1.4707,0.61719l1.37109-0.74219
	c-0.51172-0.36328-0.98828-0.61719-1.42786-0.75391c-0.4375-0.13672-0.90027-0.20697-1.38574-0.20697
	c-0.75378,0-1.3877,0.14838-1.90222,0.44336c-0.51367,0.29681-0.77148,0.65234-0.77148,1.06641
	c0,0.2851,0.1543,0.5722,0.46375,0.86133c0.30957,0.28711,0.99219,0.69727,2.05176,1.2265
	c0.55664,0.2774,0.91711,0.48438,1.0791,0.6192c0.16418,0.13666,0.24622,0.27148,0.24622,0.40619
	c0,0.15039-0.1095,0.2793-0.32422,0.39459c-0.2168,0.11328-0.48242,0.16992-0.80188,0.16992
	c-0.6084,0-1.14648-0.26373-1.61511-0.79102l-1.55579,0.57611c0.36621,0.44537,0.80579,0.7735,1.32031,0.98047
	c0.51367,0.20898,1.11719,0.3125,1.81067,0.3125c0.8866,0,1.60449-0.1601,2.15723-0.47852
	c0.55078-0.31836,0.82715-0.72266,0.82715-1.21289c0-0.25-0.0791-0.48236-0.23438-0.69525
	C82.5787,22.59956,82.31112,22.37886,81.93612,22.1465z M90.25546,19.084h-1.87793l-3.74902,5.96478h1.92383l0.79102-1.22852
	h3.96777l0.76074,1.22852h1.92285L90.25546,19.084z M88.02303,22.7129l1.30469-2.04694l1.29688,2.04694H88.02303z"/>
<path class="primary" d="M3.8389,17.959h4.9414V5.0469H3.8389V17.959z M91.75983,0.2305v4.1816c0,2.6563,0.1055,5.1289,0.36909,7.4707
	h-0.0781c-0.78999-2.0781-1.8154-4.4453-2.78909-6.207L86.4473,0.2305h-5.6025v4.205C79.2578,1.7793,76.3545,0,73.03419,0
	c-5.0225,0-9.0937,4.0723-9.0937,9.0937c0,0.4141,0.0312,0.8223,0.0849,1.2227c-0.4775-0.7559-1.2256-1.6269-2.2451-2.6172
	c-1.24218-1.2051-1.9805-1.9922-2.2119-2.3633c-0.2334-0.3711-0.3496-0.6972-0.3496-0.9765c0-0.3633,0.15232-0.6563,0.457-0.8809
	c0.3027-0.2226,0.69732-0.334,1.1787-0.334c0.7764,0,1.919,0.4219,3.4229,1.2657V1.0898C62.958,0.3633,61.669,0,60.4112,0
	c-1.4366,0-2.6426,0.4355-3.6192,1.3047c-0.6494,0.5801-1.082,1.2461-1.2988,2.0019l-0.001-2.9941H51.583l-3.7685,3.7676
	l-3.0137-3.8496h-4.292v4.0664C38.9034,1.7168,36.045,0,32.7842,0c-3.2627,0-6.12208,1.7168-7.7266,4.2969V0.2305h-4.4394v4.6504
	h-4.6953V0.2305H1.92L0,4.6699h11.3184l-0.165,13.2891h4.7695V9.1543h4.8584v8.8047h4.2763v-4.0684
	c1.60452,2.5781,4.4639,4.2969,7.7266,4.2969c3.2608,0,6.1192-1.7188,7.7246-4.2969v3.9063h4.3184V8.5762l2.9922,3.791
	l3.0322-3.6367v9.2285h4.6523v-1.1524c1.545,0.92,2.9825,1.3809,4.3116,1.3809c1.4609,0,2.68362-0.4746,3.6689-1.4199
	c0.9746-0.9356,1.4658-2.1016,1.4756-3.4922c1.5146,2.918,4.5596,4.9121,8.0742,4.9121c3.3203,0,6.2236-1.7793,7.8106-4.4355v4.207
	h4.33981v-4.3672c0-2.8672-0.0527-5.5488-0.1572-7.9434h0.0791c0.8418,2.1582,2.00002,4.5235,2.99902,6.418l2.998,5.8926h4.9971
	V0.2305H91.75983z M32.7842,14.1094c-2.7715,0-5.0156-2.2461-5.0156-5.0157c0-2.7695,2.2441-5.0156,5.0156-5.0156
	c2.7695,0,5.0156,2.2461,5.0156,5.0156C37.7998,11.8633,35.5537,14.1094,32.7842,14.1094z M60.3926,14.4238
	c-0.3076,0.2774-0.6992,0.418-1.1738,0.418c-0.9746,0-2.2139-0.6172-3.7168-1.8477l-0.00587-7.2578
	c0.09567,0.3653,0.23438,0.7364,0.416,1.1133C56.2998,7.6562,57.0996,8.6367,58.3067,9.791
	c1.208,1.1524,1.9355,1.9473,2.1797,2.3828c0.2441,0.4356,0.3681,0.834,0.3681,1.1973
	C60.8545,13.7949,60.6992,14.1445,60.3926,14.4238z M73.03419,14.1094c-2.7705,0-5.01559-2.2461-5.01559-5.0157
	c0-2.7695,2.24509-5.0156,5.01559-5.0156c2.7695,0,5.0156,2.2461,5.0156,5.0156C78.0498,11.8633,75.8037,14.1094,73.03419,14.1094z"
	/>
</svg>
