<?xml version="1.0" encoding="utf-8"?>
<svg version="1.1" xmlns="http://www.w3.org/2000/svg" xmlns:xlink="http://www.w3.org/1999/xlink" x="0px" y="0px"
	 viewBox="0 0 190.6416 25.2012" style="enable-background:new 0 0 190.6416 25.2012;" xml:space="preserve">
<path class="secondary" d="M158.6138,10.7946c1.24927,0,2.04834-0.75525,2.39697-1.39465h0.02905l0.0437,1.23486h0.63892
	c-0.02881-0.53754-0.05786-1.08948-0.05786-1.69977V3.66161h-0.68286v4.34369c0,0.27594-0.07275,0.55194-0.14526,0.77002
	c-0.29053,0.69733-1.03137,1.409-2.04834,1.409c-1.38013,0-1.85962-1.08948-1.85962-2.6004v-3.9223h-0.68274v4.05334
	C156.24576,10.35887,157.72757,10.7946,158.6138,10.7946z M164.27859,8.62993c0,0.7121,0.11621,1.29321,0.43579,1.65625
	c0.26147,0.33429,0.68286,0.50842,1.19116,0.50842c0.42139,0,0.74097-0.07269,0.97339-0.17413l-0.08716-0.5376
	c-0.17432,0.05792-0.43567,0.11627-0.79883,0.11627c-0.74121,0-1.01709-0.56677-1.01709-1.453V4.21355h1.99023V3.66161h-1.99023
	V2.12157l-0.69727,0.2616v1.27844h-1.17664v0.55194h1.17664V8.62993z M143.56522,8.09233c0-1.46692-0.85718-2.19336-2.46973-2.84717
	c-1.40918-0.55194-2.03394-1.10388-2.03394-2.19385c0-0.76959,0.5376-1.78687,2.12122-1.78687
	c0.84241,0,1.46741,0.276,1.72864,0.4649l0.26147-0.58112c-0.33411-0.21765-1.03149-0.46484-1.94653-0.46484
	c-1.65625,0-2.84741,1.04596-2.84741,2.48413c0,1.33679,0.94434,2.15033,2.52783,2.70227
	c1.40906,0.55194,1.97583,1.19135,1.97583,2.29523c0,1.20575-0.90088,2.03412-2.35364,2.03412
	c-0.82813,0-1.59802-0.276-2.15002-0.65381l-0.26147,0.58112c0.50842,0.37781,1.49634,0.66815,2.33887,0.66815
	C142.54825,10.7946,143.56522,9.51616,143.56522,8.09233z M168.50577,10.63481h0.68274V3.66161h-0.68274V10.63481z
	 M188.33377,10.19914c-0.62451,0-1.19128-0.24725-1.5686-0.47968l-0.24731,0.58105c0.46484,0.29077,1.0896,0.49408,1.77246,0.49408
	c1.42383,0,2.35352-0.81354,2.35352-2.00494c0-1.06036-0.66846-1.62708-1.80151-2.06281
	c-0.94409-0.39221-1.43823-0.71167-1.43823-1.43817c0-0.63898,0.46484-1.20575,1.35107-1.20575
	c0.69739,0,1.14795,0.24683,1.38037,0.42139l0.27588-0.56677c-0.3634-0.24683-0.901-0.43573-1.54004-0.43573
	c-1.36548,0-2.15027,0.88623-2.15027,1.88873c0,0.84229,0.62512,1.46735,1.77258,1.90308
	c1.00244,0.40656,1.46729,0.81354,1.46729,1.58356C189.96097,9.6032,189.43826,10.19914,188.33377,10.19914z M168.82523,2.26695
	c0.36328,0,0.58118-0.276,0.58118-0.59552c0-0.33429-0.2179-0.61023-0.55188-0.61023c-0.31982,0-0.56665,0.29077-0.56665,0.61023
	C168.28787,1.99095,168.50577,2.26695,168.82523,2.26695z M148.21304,3.50182c-1.72876,0-3.29773,1.30762-3.29773,3.70428
	c0,2.17944,1.39465,3.5885,3.19604,3.5885c1.55444,0,3.34131-1.10388,3.34131-3.71906
	C151.45267,4.93999,150.14529,3.50182,148.21304,3.50182z M148.15494,10.21349c-1.42358,0-2.54236-1.30762-2.54236-3.0509
	c0-1.49609,0.8136-3.09399,2.58594-3.09399c1.83057,0,2.55688,1.77203,2.55688,3.05048
	C150.7554,8.90587,149.6077,10.21349,148.15494,10.21349z M174.25809,3.50182c-1.72852,0-3.29773,1.30762-3.29773,3.70428
	c0,2.17944,1.39465,3.5885,3.19629,3.5885c1.55432,0,3.34119-1.10388,3.34119-3.71906
	C177.49783,4.93999,176.19022,3.50182,174.25809,3.50182z M174.20023,10.21349c-1.42383,0-2.54248-1.30762-2.54248-3.0509
	c0-1.49609,0.81348-3.09399,2.58594-3.09399c1.83032,0,2.55688,1.77203,2.55688,3.05048
	C176.80057,8.90587,175.65274,10.21349,174.20023,10.21349z M182.33475,3.50182c-1.14746,0-2.01929,0.63947-2.39709,1.42383
	h-0.02869l-0.05835-1.26404h-0.63904c0.02869,0.55194,0.05798,1.03162,0.05798,1.67059v5.30261h0.68286V6.3203
	c0-0.21808,0.04358-0.4505,0.10144-0.62463c0.276-0.90106,1.10437-1.59839,2.09192-1.59839
	c1.43823,0,1.93237,1.14789,1.93237,2.4115v4.12604h0.68286v-4.1839C184.76102,3.8361,183.00296,3.50182,182.33475,3.50182z
	 M153.90726,0.32036h-0.68286v10.31445h0.68286V0.32036z M168.71011,17.58806c-1.72864,0-3.29773,1.30762-3.29773,3.70471
	c0,2.17902,1.39478,3.58807,3.19604,3.58807c1.55444,0,3.34131-1.10388,3.34131-3.71906
	C171.94974,19.02623,170.64212,17.58806,168.71011,17.58806z M168.65201,24.29973c-1.42358,0-2.54224-1.30762-2.54224-3.0509
	c0-1.49609,0.8136-3.09442,2.58582-3.09442c1.83032,0,2.55688,1.77246,2.55688,3.0509
	C171.25247,22.99211,170.10452,24.29973,168.65201,24.29973z M148.25699,16.20781l-0.69739,0.2616v1.27844h-1.17651v0.55194h1.17651
	v4.41638c0,0.7121,0.11621,1.29321,0.43604,1.65625c0.26135,0.33429,0.68274,0.50842,1.19116,0.50842
	c0.42139,0,0.74084-0.07269,0.97327-0.17413l-0.08704-0.5376c-0.17432,0.05792-0.43579,0.11627-0.79907,0.11627
	c-0.74097,0-1.01697-0.56677-1.01697-1.453v-4.53259h1.99036v-0.55194h-1.99036V16.20781z M141.66238,14.92937l-3.54492,9.79169
	h0.71191l1.20605-3.42828h3.87866l1.23499,3.42828h0.71167l-3.53015-9.79169H141.66238z M143.69608,20.71123h-3.44287
	l1.20581-3.29773c0.20337-0.62463,0.36316-1.133,0.5083-1.69934h0.02917c0.14514,0.55194,0.276,1.04559,0.50842,1.72852
	L143.69608,20.71123z M174.36087,19.15685h-0.0293l-0.02905-1.409h-0.63904c0.02869,0.66815,0.05786,1.39465,0.05786,2.09198
	v4.88123h0.68298v-3.84961c0-0.23248,0.02881-0.4649,0.05786-0.66864c0.18896-1.11865,0.87183-1.94659,1.83032-1.94659
	c0.1311,0,0.23242,0,0.33435,0.02917v-0.66815c-0.08704-0.01477-0.18884-0.02917-0.276-0.02917
	C175.392,17.58806,174.66556,18.28539,174.36087,19.15685z M162.8129,20.43529c-0.36316,1.24969-0.66809,2.31006-0.88623,3.37036
	h-0.04358c-0.14526-0.98761-0.47949-2.20819-0.7843-3.39911l-1.453-5.47717h-0.66821l-1.61255,5.52069
	c-0.37769,1.27844-0.72632,2.44067-0.88623,3.35559h-0.04346c-0.18896-0.91492-0.47949-2.09192-0.81348-3.35559l-1.42383-5.52069
	h-0.69739l2.57141,9.79169h0.66821l1.65625-5.65125c0.45032-1.43823,0.71191-2.39716,0.87158-3.31213h0.02905
	c0.14526,0.91498,0.37781,1.88831,0.75562,3.32648l1.48169,5.6369h0.66821l2.93457-9.79169h-0.71179L162.8129,20.43529z
	 M182.81534,17.74785h-0.84265l-2.45508,2.586c-0.21802,0.23242-0.50879,0.55194-0.68298,0.77002h-0.02917V14.4066h-0.6825v10.31445
	h0.6825v-2.90552l0.71216-0.75519l2.84717,3.66071h0.84277l-3.21069-4.08209L182.81534,17.74785z M189.91385,22.17552
	l-0.59888,1.64716c-0.03735,0.13055-0.10315,0.33691-0.1593,0.51447h-0.01868c-0.05615-0.16803-0.10278-0.3465-0.17761-0.53363
	l-0.599-1.62799h-0.49622l-0.20593,2.54553h0.33691l0.12195-1.73151c0.00916-0.19678,0.01868-0.37439,0.01868-0.54242h0.0188
	c0.04651,0.15845,0.14014,0.40222,0.18713,0.56152l0.599,1.67499h0.38342l0.58972-1.62885
	c0.06543-0.19586,0.14026-0.45789,0.20605-0.60767h0.01855c0.00928,0.20551,0.0188,0.39264,0.02795,0.54242l0.12195,1.73151h0.35547
	l-0.22461-2.54553H189.91385z M185.46829,22.46544h0.86108v2.25562h0.33691v-2.25562h0.86096v-0.28992h-2.05896V22.46544z"/>
<path class="primary" d="M5.31876,24.88212h6.84378V6.99425H5.31876V24.88212z M127.12878,0.32169V6.1166
	c0,3.6788,0.14589,7.10337,0.51109,10.34862h-0.10973c-1.09299-2.87869-2.51486-6.15887-3.86332-8.60155l-3.89811-7.54199h-7.76417
	v5.8271c-2.19788-3.68141-6.219-6.14819-10.81819-6.14819c-6.96008,0-12.59992,5.64245-12.59992,12.6013
	c0,0.57519,0.04288,1.1397,0.11767,1.69352c-0.66341-1.046-1.69611-2.25542-3.11141-3.62524
	c-1.72037-1.66941-2.74239-2.76102-3.06609-3.27471c-0.32108-0.51368-0.48163-0.96586-0.48163-1.3538
	c0-0.50286,0.21136-0.90956,0.63149-1.21723c0.42258-0.313,0.96709-0.46821,1.63461-0.46821
	c1.07559,0,2.65678,0.58587,4.73959,1.75776V1.5122c-1.82597-1.006-3.61058-1.509-5.35491-1.509
	c-1.99049,0-3.66141,0.60204-5.01383,1.80858c-0.89888,0.80272-1.49818,1.72571-1.79913,2.77184l-0.00137-4.14701h-5.41643
	l-5.22108,5.21986l-4.1751-5.33479h-5.94614v5.63437C53.89931,2.38177,49.9371,0.0006,45.41818,0.0006
	c-4.51877,0-8.47976,2.38117-10.70299,5.95545V0.32169H28.5629v6.44503h-6.50393V0.32169H2.65938L0,6.47248h15.68066
	l-0.22739,18.40964h6.60571v-12.1946h6.73145v12.1946h5.92477v-5.63437c2.22322,3.57168,6.18422,5.95285,10.70299,5.95285
	c4.51892,0,8.48113-2.38117,10.70449-5.95285v5.41232h5.98353V11.88493l4.14427,5.25177l4.1992-5.04041v12.78582h6.44776v-1.59448
	c2.14035,1.27613,4.13084,1.91296,5.97298,1.91296c2.02392,0,3.7188-0.65546,5.08192-1.96652
	c1.35106-1.2975,2.03337-2.91088,2.04542-4.83713c2.09749,4.03989,6.31941,6.80365,11.18859,6.80365
	c4.59919,0,8.62031-2.46418,10.81819-6.14559v5.8271h6.01436v-6.04915c0-3.97304-0.07219-7.68924-0.21931-11.00408h0.11096
	c1.16517,2.98855,2.77047,6.2686,4.15372,8.89058l4.15357,8.16265h6.92405V0.32169H127.12878z M45.41818,19.55007
	c-3.83784,0-6.94802-3.11156-6.94802-6.94817c0-3.83921,3.11019-6.94817,6.94802-6.94817c3.83934,0,6.94953,3.10896,6.94953,6.94817
	C52.36771,16.43851,49.25753,19.55007,45.41818,19.55007z M83.66903,19.98348c-0.42546,0.38793-0.96723,0.58053-1.62406,0.58053
	c-1.3538,0-3.06868-0.8534-5.15027-2.55774L76.88676,7.95203c0.13246,0.5056,0.32369,1.01929,0.57519,1.54105
	c0.53917,1.11833,1.64543,2.47473,3.32018,4.07468c1.67214,1.59722,2.67951,2.69678,3.018,3.30142
	c0.33971,0.60204,0.51094,1.15586,0.51094,1.65886C84.31107,19.11392,84.0971,19.59815,83.66903,19.98348z M101.18635,19.55007
	c-3.8392,0-6.94939-3.11156-6.94939-6.94817c0-3.83921,3.1102-6.94817,6.94939-6.94817c3.83797,0,6.94817,3.10896,6.94817,6.94817
	C108.13452,16.43851,105.02432,19.55007,101.18635,19.55007z"/>
</svg>
