<svg xmlns="http://www.w3.org/2000/svg" viewBox="0 0 250 250"><path d="M136.7 169.1c0 17 13.8 30.9 30.9 30.9 17 0 30.9-13.8 30.9-30.9s-13.8-30.9-30.9-30.9C150.6 138.2 136.7 152 136.7 169.1zM167.6 50.4c-17 0-30.9 13.8-30.9 30.9 0 17 13.8 30.9 30.9 30.9 17 0 30.9-13.8 30.9-30.9C198.5 64.2 184.7 50.4 167.6 50.4zM51.5 169.1c0 17 13.8 30.9 30.9 30.9 17 0 30.9-13.8 30.9-30.9 0-17-13.8-30.9-30.9-30.9C65.3 138.2 51.5 152 51.5 169.1zM82.4 50.4c-17 0-30.9 13.8-30.9 30.9 0 17 13.8 30.9 30.9 30.9 17 0 30.9-13.8 30.9-30.9C113.3 64.2 99.4 50.4 82.4 50.4zM96.9 95.8c-3.9 3.9-9 6-14.5 6 -11.3 0-20.5-9.2-20.5-20.5 0-5.5 2.1-10.6 6-14.5 3.9-3.9 9-6 14.5-6h0c11.3 0 20.5 9.2 20.5 20.5C102.9 86.8 100.8 91.9 96.9 95.8zM37.7 27h174.7c4 0 7.2-3.2 7.2-7.2S216.3 12.5 212.3 12.5H37.7c-4 0-7.2 3.2-7.2 7.2S33.7 27 37.7 27zM212.3 223H37.7c-4 0-7.2 3.2-7.2 7.2S33.7 237.5 37.7 237.5h174.7c4 0 7.2-3.2 7.2-7.2S216.3 223 212.3 223z"/></svg>